<svg xmlns="http://www.w3.org/2000/svg" version="1.1" width="600px" height="600px" viewBox="0 0 200 200" style="overflow:hidden!important;"><g id="svga-group-wrapper"><g id="svga-group-backs-single"></g><g id="svga-group-humanwrap-move" transform="matrix(1,0,0,1,0,0)"><g id="svga-group-humanwrap"><g id="svga-group-hair-back-move" transform="matrix(0.9986295346632303,-0.05233595798588117,0.05233595798588117,0.9986295346632303,-7.4516673742758,5.432313272419719)"><g id="svga-group-hair-back"><path id="SvgjsPath13829" d="M61.7 93.5s-5.2 14.9-5.8 24.5c-.6 9.6-1 17.8-.9 18.9 0 0 1.8 3.4 3.4 4.6l1.5-.6s.9 5.1 3.1 6.4l4.4-.8s3.9 2.8 4.8 2.7c.9-.1 2.9-.8 3.9-3.3 0 0 4.9 2.9 6-.4.1-.3-2.7-45.6-2.7-45.6s-7.5-9.7-17.7-6.4zm57.3 2.2s-.3 28.1-.2 31.9 1 17 1.5 17.5 4.4 1.5 4.4 1.5l4-3.7 1.4 3.2s5-.1 6-2c.3-.7.8-5.2.8-5.2s4.2.4 4.5-.9c.1-.4.7-4.5.2-6.8 0 0 2.8-1.8 3.1-3.9s-.3-9.5-3.4-19.2-4.5-18.5-4.5-18.5-9.7-2.9-17.8 6.1z" fill="#000000" stroke-width="none" opacity="1" stroke="none"></path><path id="SvgjsPath13830" d="M144.4 119.5c-2.2-9.9-4.5-20-7.4-29.7-.1-.4-.6-.2-.6.2 1.1 6.3 2.8 12.5 4.3 18.7 1.3 5.4 7.2 20.4-.9 22.4-.5-.7-1-1.4-1.5-2-.4-.5-.7-1.2-1.3-1.3-.4-5.3-1.2-10.7-1.6-16-.4-5.4-.3-10.9-.8-16.3 0-.3-.5-.3-.5 0-.7 5.6-.2 11.4.1 17.1.4 5.1.5 10.6 2.1 15.6.1.2.2.3.4.2.1.5.6.9.9 1.3.5.7 1.1 1.4 1.6 2.1 0 .3.3.6.7.6 6.2-1.7 5.6-8.2 4.5-12.9zm-2.7 12.2s-.2-.1-.2 0c-.1 0-.1.1-.1.1-.1.1-.3.3-.2.4.2 1.7.2 3.4-.1 5.1-.7.3-1.3.7-2.1.9-.9.2-1.7.1-2.6.2-.1 0-.2.1-.2.1-.3-5.8-1.7-11.6-2.6-17.3-1.1-6.7-2-13.4-3-20.2 0-.3-.5-.2-.5.1.2 6.2 1.2 12.3 2.1 18.3-.1-.2-.2-.5-.2-.7-.2-.5-1-.3-.8.2.3.9.5 1.8 1 2.6.1.1.3.2.4.1.9 5.8 1.7 11.8 3.2 17.5.1.2.4.2.4-.1l.1.1h.2c-.3 1.5-.5 3-.5 4.6v.1c-.9.2-1.8.7-2.6 1-1 .3-2.1.5-3.2.5h-.1c-4.4-16.1-7-31.7-5.6-48.5.1-.7-1-.7-1.1 0-1.3 15.1-.2 31.4 4.9 45.8-1.4 1-2.7 2.2-4 3.4-.5-.2-1.1-.4-1.6-.5-.7-.2-1.4-.5-2.1-.4.3-16.2-1.3-32.5-.9-48.8 0-.8-1.2-.8-1.2 0-.3 16.1-1.1 33.2 1.6 49.2 0 .1.1.1.2.1v.1c.6.4 1.4.5 2.1.7.6.1 1.1.3 1.7.3.2.3.5.4.8.2 1.2-1 2.5-2.1 3.6-3.2.3.8.6 1.6.9 2.3 0 .3.2.6.6.6 2 0 4.9-.5 6.1-2.2.3.1.6-.1.6-.4.2-1.5.2-3 0-4.4 1.4.2 3.2-.3 4.4-1.1.3.1.7 0 .8-.3.4-1.9.3-3.9.1-5.8 0-.5-.1-.7-.3-.7zm-62-31.6c-.1-.6-.9-.6-.9 0 .3 7.9 1 15.9 1.5 23.8.4 7.1.5 14.3 1.5 21.3-.1 0-.2 0-.2.1-1.6 1.4-3.3 1.1-5 .3.7-3.4-.1-8.2-.3-10.4-.8-12.2-.1-24.2 1.1-36.3 0-.4-.7-.6-.8-.1-1.2 7.6-1.6 15.3-1.6 23 0 3.8.1 7.6.3 11.5.2 2.8 2.7 15.8-3.4 15.3 0-.2-.1-.4-.3-.5-1.2-.3-2.5-1-3.5-1.9.8-8.8.7-17.6 1-26.4.3-8.8 1.1-17.8.7-26.6 0-.4-.6-.4-.7 0-1 8.8-.7 17.8-1 26.6-.3 8.7-.9 17.5-.6 26.2l-.1.1h-.1c-.7.1-1.4.2-2.2.4-.7.1-1.3.2-2 .4-.8-.8-1.5-1.7-1.9-2.8-.4-.9-.6-2-1-2.9l2.4-1.2c.3-.1.3-.5.1-.6-.4-7.6-.6-15.1 0-22.6.6-8.2 2.5-16.1 3.9-24.2.1-.3-.4-.4-.5-.1-5 14.5-5.8 31.8-4 46.9-1.1.6-2.3 1.1-3.4 1.8-.3-.7-1.2-1.2-1.7-1.8-.7-.8-1-1.7-1.5-2.6 0-.1-.1-.1-.2-.2.7-7.3.5-14.6 1.6-22 1.1-7.1 3-13.9 5-20.8.1-.5-.6-.7-.7-.2-2.8 7.6-4.5 15.6-5.6 23.5-.9 6.7-1.9 14-.9 20.7 0 .2.2.2.4.1.3.7.7 1.4 1.1 2.1.5.6 1.1 1.5 1.9 1.7 0 .2.1.3.3.3.4-.1.8-.3 1.2-.4-.3 2.2 1.3 4.6 2.8 6.1.2.1.3.2.5.1.7 0 1.3-.2 2-.3.8-.1 1.6-.2 2.4-.4.1 0 .2-.1.2-.2h.1c.4.5.7.9 1.2 1.2.6.4 1.3.8 2.1 1 0 .1.1.3.3.3 2.9.6 4.3-.7 5-2.8 1.7 1.2 4.4.7 5.8-.6.1 0 .2-.1.2-.2.2-7.6-.7-15.3-1.2-22.8-.3-7.7-.7-15.3-1.3-22.9zM56.5 128c.2 2.2 1.2 5 3.2 6.2.2.2.5-.1.4-.4-.5-.9-1.3-1.7-1.8-2.6-.5-1-.9-2.1-1.3-3.2-.1-.4-.5-.3-.5 0zm1.7-5.8c-1 2.1 0 5.1 1.2 6.9.2.3.6 0 .5-.3-.5-1.2-.9-2.3-1.1-3.6-.1-1 0-2-.2-3 0-.1-.3-.1-.4 0zm2.7-4.2c-.1-.2-.5-.2-.5.1 0 .9.1 1.7 0 2.6-.1 1-.4 1.9-.7 2.8-.1.3.3.4.4.2 1.2-1.5 1.5-3.9.8-5.7zm-2.1.5c-.1.2.3.4.4.2.8-1.7 1.4-3.8.9-5.6-.1-.3-.5-.3-.5 0-.4 1.8-.4 3.6-.8 5.4zm1.4-8.3c.3-.8.2-1.8.2-2.6 0-.4-.6-.4-.7 0-.1.8-.3 1.8-.1 2.6.2.2.5.2.6 0zm3.1 30c.1 1.2.8 3 2.1 3.3.3.1.4-.2.3-.4-.4-.5-.9-.8-1.2-1.3-.3-.5-.6-1-.7-1.6-.1-.3-.6-.3-.5 0zm2.9-1.4c-.2-.8-.8-1.4-1.2-2.1-.4-.9-.7-1.8-.9-2.8 0-.2-.4-.2-.4.1 0 1.7.5 4.3 2.1 5.2.2 0 .4-.2.4-.4zm-.3-8.4c-.4.8-.4 1.9-.6 2.8-.1.4.5.5.6.1.2-.9.6-1.9.5-2.8 0-.2-.3-.4-.5-.1zm67.7 12.1c.4-.4.6-.9.8-1.4l.6-1.5c.1-.4-.4-.6-.6-.2l-.9 1.5c-.2.4-.5.9-.5 1.4.1.3.4.4.6.2zm-.3-6.3c-.2.6-.7 1.1-1 1.7-.1.2.2.4.4.4.8-.2 1.2-1.2 1.3-1.9.1-.5-.5-.7-.7-.2zm6-1.5c.3 0 .4-.4.1-.5-.5-.4-1.1-.5-1.5-1-.2-.2-.6.1-.4.3.4.6 1.1 1.3 1.8 1.2zm-2.4 1.8c.4.4.9.7 1.4.6.2-.1.2-.3 0-.4-.4-.1-.7-.2-1.1-.5-.2-.3-.5 0-.3.3zm1.4-13.2c.3.7.6 1.3 1.1 1.9.4.5 1.1 1.2 1.8 1.3.2 0 .6-.2.4-.5-.4-.5-1-.8-1.4-1.2-.5-.5-.9-1.1-1.3-1.7-.2-.4-.7-.2-.6.2zm1.1-4.5c.1.7.5 1.3 1 1.8.5.4 1.2.8 1.9.6.2-.1.3-.4.1-.5-.4-.3-.9-.4-1.4-.7-.5-.3-.8-.8-1-1.4-.2-.3-.7-.1-.6.2zm.7-5c.6-.5.8-1.5.8-2.2 0-.3-.4-.3-.4 0 0 .8-.4 1.3-.7 2-.1.2.2.3.3.2zm-1.1-5.7c-.1.5-.2 1.1-.1 1.6.1.3.4.2.5 0 .2-.5.2-1.1.2-1.6.1-.4-.5-.4-.6 0zm-68.3 34c-.3-.2-.7.1-.4.4.5.5 1 1.1 1.6 1.4.2.1.5-.1.4-.4-.4-.6-1.1-1-1.6-1.4zm2.2-1.8c.2 0 .3-.3.2-.4-.4-.4-.9-.6-1.3-1-.5-.4-.8-.8-1.1-1.4-.2-.3-.7 0-.5.3.4 1 1.5 2.5 2.7 2.5zm-1.9-9.7c1.4-.5 2-2.1 1.7-3.5-.1-.4-.7-.3-.7.1.1 1.2-.5 2.1-1.3 2.8-.3.3 0 .7.3.6zm-5.1-7c.2.1.4-.1.3-.2-.1-.6-.6-1.1-.9-1.5-.4-.5-.8-1.1-1.3-1.6-.2-.2-.6.1-.4.3.4.6.7 1.1 1.1 1.7.4.5.7 1 1.2 1.3zm64 5.3c.3 0 .3-.3.2-.5-.2-.3-.6-.5-.9-.8-.3-.3-.5-.7-.7-1.1-.2-.4-.8-.2-.7.2.4 1 1.1 2.2 2.1 2.2zm-6 12.5c.8-.4 1.3-1.3 1.6-2.1.1-.3-.4-.5-.5-.1-.2.8-.8 1.4-1.2 2-.2.1 0 .2.1.2zm-1.5-5.5c.4-.3.7-.8 1.1-1.2.2-.2-.2-.6-.4-.4-.3.4-.8.8-1 1.3-.1.3.1.5.3.3z" fill="#000000" stroke-width="none" opacity="1" stroke="none"></path></g></g><g id="svga-group-humanbody-back"><path id="SvgjsPath13703" d="M180.8 184.9c-2.3-3.4-38.9-17.8-38.9-17.8l-13.4-5.2-5.6-68.8H76.8L71.3 162l-13.4 5.2S21.4 181.6 19 185c-2.3 3.4-3.3 14.9-3.3 14.9V219h168.5v-19.2c-.1.1-1-11.5-3.4-14.9z" fill="#391f10" stroke-width="none" opacity="1" stroke="none"></path></g><g id="svga-group-chinshadow-single"><path id="SvgjsPath14039" d="M73 146.3c5.5 2.6 6.6 7.4 9 10.8 2.4 3.4 12.1 3.7 12.1 3.7s9.7-.2 12-3.6c2.4-3.4 3.4-8.2 9-10.8 2.87-1.36 7.58-3.19 11.72-5.63l-3.88-47.67H76.82l-4.22 53.02c.13.06.28.12.4.18z" fill="#1a0b02" stroke-width="none" opacity="1" stroke="none"></path></g><g id="svga-group-humanbody-front"><path id="SvgjsPath13704" d="M184.5 219c-.1-6.4-.1-12.8-.1-19.2l-.3-.1s.1-.1.2 0c.1 0 .1.1.1.1v-.4l-.1-.5-.1-.9-.2-1.9c-.2-1.3-.4-2.5-.6-3.8-.2-1.3-.5-2.5-.9-3.8-.4-1.2-.8-2.5-1.5-3.6-.8-.9-1.9-1.5-2.9-2.1-1-.6-2.1-1.1-3.2-1.7-2.1-1.1-4.3-2.1-6.5-3.1-4.4-2-8.7-3.9-13.1-5.7-4.4-1.9-8.8-3.7-13.2-5.5l-13-5.2-1.2-16.9c-.4-5.7-.9-11.5-1.3-17.2l-1.3-17.2-1.5-17.3-.1-.8h-.8c-7.7 0-15.4.1-23.1.1l-23.1.2h-.5v.5L75 110.2l-1.3 17.2c-.8 11.4-1.8 22.8-2.8 34.2-5.6 2.1-11.2 4.2-16.7 6.4-5.6 2.2-11.2 4.5-16.8 6.9-2.8 1.2-5.6 2.4-8.3 3.6-2.8 1.3-5.5 2.5-8.2 4.1-.7.4-1.3.8-2 1.4-.2.1-.4.4-.5.6l-.3.6c-.2.4-.4.7-.5 1.1-.6 1.5-1 3-1.3 4.5-.6 3-1.1 6-1.4 9.1l-.1 19.1v.9h.9l42.1.1H100c14 0 28.1-.1 42.1-.2l42.1-.5h.3v-.3zm-84.5-1-42.1-.1-41.2.1-.1-18.1c.3-3 .6-5.9 1.2-8.9.3-1.4.6-2.9 1.1-4.2.1-.3.3-.7.4-.9l.2-.4.3-.3c.5-.4 1.1-.8 1.8-1.2 2.5-1.5 5.3-2.8 8-4.1 2.7-1.3 5.5-2.5 8.2-3.7 5.5-2.4 11.1-4.8 16.7-7.1s11.2-4.5 16.9-6.7l.2-.1v-.2c.9-11.5 1.7-23 2.7-34.4l1.4-17.2 1.5-16.7 22.6.2c7.4.1 14.8.1 22.3.1l1.3 16.4 1.5 17.2c.5 5.7 1 11.5 1.5 17.2l1.6 17.2v.3l.3.1 13.4 5c4.4 1.7 8.9 3.4 13.3 5.2 4.4 1.8 8.8 3.7 13.2 5.6 2.2 1 4.3 2 6.5 3 1.1.5 2.1 1.1 3.2 1.6 1 .6 2.1 1.2 2.9 2 .7 1.1 1.1 2.3 1.4 3.5.3 1.2.6 2.5.8 3.7.2 1.3.4 2.5.6 3.8l.2 1.9.1.9.1.5v.4c0 6.3 0 12.6-.1 18.9l-41.8-.5c-14 .1-28.1 0-42.1 0z" fill="#0b0400" stroke-width="none" opacity="1" stroke="none"></path><path id="SvgjsPath13705" d="M125.1 142.4s-1.8 23-9.1 32.9c0 0 7.9-25 9.1-32.9zm-34.5 16s5 7.9 11.5 10.1c0 0-9.5 2.2-11.5-10.1zM73.4 140c6.7 25.6 6.7 25.6 8.5 30.7 0 0 .4-12.6-8.5-30.7z" fill="#1a0b02" stroke-width="none" opacity="1" stroke="none"></path></g><g id="svga-group-clothes-single"><path id="SvgjsPath13900" d="M10.9 220c0-15.2 1.2-32.2 2.3-34.1 1-1.9 5-3.3 5-3.3s3.5-2.9 7.1-4.8c3.5-1.9 15.7-3.9 15.7-3.9s0-1 .4-1.9 1.9-1.2 5-5.2 2.1-4.8 2.7-6.7c.6-1.9 4.4-1.5 4.4-1.5s.4-6 4.8-10c4.4-3.9 13.6-6.6 13.6-6.6s-.1 6.9-.1 11.3-1.3 4.6 5.1 12.6c6.5 7.9 12.4 15.1 15.4 17 3.1 1.9 7.2 4 9.1 9.5 0 0 1.7-4.4 3.7-5.9s6.2-6 7.9-7.7c1.7-1.7 5.3-8.1 7.5-9.5 2.2-1.5 7.4-6.5 8.3-7.9s-.9-21.7-.9-21.7 6.9 3.7 9.4 5.4c2.5 1.7 4.9 9.5 4.9 9.5s2.4 2.1 5.1 4.1 4.7 2.9 6.2 5.7c1.5 2.8.8 5.3 1.4 6.5.6 1.1 1.2 2 1.6 2.6 0 0 17.1 5.1 20 6.4s5.7 4 5.7 4 3.1 1.9 3.9 9.8 1.8 26.4 1.8 26.4l-177-.1z" fill="#000000" stroke-width="none" opacity="1"></path><path id="SvgjsPath13901" d="m188.6 219.9-1.2-18.6c-.2-3.1-.4-6.2-.9-9.3-.2-1.6-.6-3.2-1.2-4.7-.3-.8-.7-1.5-1.1-2.2-.2-.4-.5-.7-.8-1-.3-.3-.5-.6-.9-.9-1.5-1.4-3.1-2.6-4.9-3.6-.9-.5-1.9-.9-2.8-1.2l-2.8-1.1-15.3-4.3c-.5-.8-1.1-1.6-1.4-2.4-.1-.3-.2-.8-.2-1.3s-.1-1-.1-1.6c-.2-2.2-1.2-4.3-2.7-5.9-1.6-1.6-3.4-2.6-5.1-3.8-1.6-1.1-3.2-2.4-4.7-3.7-.6-1.7-1.2-3.3-1.9-4.9-.4-.8-.8-1.6-1.3-2.4-.5-.8-1-1.6-1.9-2.2-1.5-1-3.1-1.9-4.7-2.8-1.6-.9-3.2-1.7-4.8-2.6l-.7-.4s.7 11.7 1 17.3c0 1.4.4 3 .3 4.3 0 .2 0 .3-.1.5 0 .1 0 .1-.1.2l-.1.2c-.2.3-.4.5-.6.8-.4.5-.9 1-1.4 1.5-2 2-4 3.9-6.2 5.6-1.1.9-2 2.1-2.8 3.2-.8 1.1-1.6 2.3-2.4 3.4-.4.6-.8 1.1-1.2 1.7-.4.6-.8 1.1-1.4 1.5-1.1.8-3.5 4.2-6.3 6.5-.6.4-1.2.7-1.8 1.3-.5.5-.9 1.1-1.3 1.7-.6.9-1.1 1.8-1.5 2.8-.9-2.2-2.5-4.3-4.4-5.8-1.1-.9-2.2-1.6-3.4-2.4-1.2-.7-2.1-1.7-3.2-2.5-4.4-4-4.4-6-8.3-9.7-1.9-1.9-3.6-4.1-5.2-6.2-.8-1.1-1.7-2.1-2.4-3.2-.8-1.1-1.4-2.2-1.8-3.4-.4-1.1-.2-2.4-.1-3.8l.1-4.1.1-8.1v-1.2l-1.2.3c-2.2.6-4.3 1.4-6.3 2.3-2.1.9-4.1 1.9-6 3.2-1.9 1.3-3.6 3.1-4.6 5.2-1 1.8-1.6 3.8-1.9 5.8-.7 0-1.4.1-2.2.2-.5.1-1 .3-1.5.7-.2.2-.5.5-.6.8-.2.3-.2.6-.3.8-.1.5-.2 1-.2 1.4 0 .4-.1.8-.2 1.1-.2.7-.7 1.5-1.1 2.2-1 1.4-2.1 2.8-3.3 4-.6.6-1.2 1.1-2 1.8-.2.2-.4.4-.6.7-.2.3-.2.5-.3.8-.1.3-.2.6-.2 1-1.5.4-7.5.9-9 1.4-1.6.6-3.2 1.1-4.8 1.8-1.6.7-3.1 1.6-4.5 2.6-1.4.9-2.7 1.9-4 3-1.6.7-3.1 1.4-4.4 2.6-.3.3-.6.7-.9 1.2-.2.5-.2.9-.3 1.3-.2.9-.3 1.7-.4 2.5-.4 3.4-.6 6.7-.8 10.1-.2 3.4-.3 6.7-.3 10.1 0 1.7-.1 3.4-.1 5 0 1.7 0 3.3.1 5.1l43.9.4 44.2.3c14.7.1 29.5.1 44.3.2 14.8 0 29.6.1 44.4 0h1.1l-.1-1.1zm-85-30.9c.4-.6.8-1.1 1.2-1.6.4-.5 1-.8 1.6-1.2 2.4-1.4 3.4-4.9 12.8-9.5 3.2-1.6 6-3.6 8.7-5.7 1.4-1.1 2.7-2.2 4-3.3.6-.6 1.3-1.2 1.8-2s.9-1.6 1.3-2.4c.7-1.7 1.1-3.4 1.2-5.2 0-.4 0-.9-.1-1.4-.1-.4-.2-.9-.4-1.3-.3-.8-.7-1.6-1.2-2.3.3.8.5 1.6.7 2.5.1.8.2 1.6 0 2.4-.3 1.6-.9 3.2-1.7 4.6-.4.7-.8 1.4-1.3 2-.5.6-1.1 1.1-1.7 1.7-1.3 1.1-2.6 2.1-3.9 3.2-1.3 1.1-2.7 2.1-4.1 3.1l-2.1 1.5c-.7.5-1.4.9-2.1 1.4-1.5.9-2.9 1.9-4.4 2.9.1-.1.1-.2.2-.2.4-.6.8-1.1 1.2-1.7.8-1.1 1.6-2.3 2.4-3.4.8-1.1 1.7-2.3 2.7-3.1 2.3-1.6 4.3-3.6 6.3-5.6l1.5-1.5c.2-.3.5-.5.7-.8 0 0 2-2.5 2.4-3.6.5-1.3.8-2.7.7-4.2-.2-1.4-.9-5.1-1.6-6.4-.5-1.1-2-4.9-2.2-7.2 1.4.8 2.7 1.5 4.1 2.3 1.6.9 3.1 1.8 4.6 2.8.6.4 1.1 1.2 1.6 1.9.4.8.8 1.5 1.2 2.4.7 1.6 1.3 3.3 1.9 5l.1.1.1.1c.1 0 .1.1.1.1v.1c0 1.1-.1 2.3-.3 3.4-.3 2.2-1 4.4-1.8 6.5-1.5 4.2-3.9 8.1-7.5 10.4-.9.6-1.8 1.1-2.9 1.7l-3 1.8-5.8 3.6c-1 .6-1.9 1.1-2.9 1.6-.5.2-1 .5-1.5.6-.5.2-1.1.3-1.6.4-2.2.6-4.4 1.2-6.6 1.9 2.3-.3 4.6-.6 6.8-.9.6-.1 1.1-.1 1.7-.3.6-.1 1.2-.3 1.7-.6 1.1-.4 2.1-1 3.2-1.5 2.1-1.1 4-2.3 6-3.4 1-.6 2-1.1 3-1.7 1-.5 2.1-1.1 3-1.8 2-1.4 3.7-3.1 5-5.1 1.3-2 2.2-4.2 2.9-6.5.7-2.2 1.1-4.5 1.2-6.9 0-1 0-2.1-.1-3.1 1.3 1.2 2.7 2.3 4.1 3.3 1.7 1.2 3.5 2.2 4.8 3.6 1.3 1.4 2.1 3.2 2.3 5.2.1.5.1 1 .1 1.5s0 1 .3 1.7c-.8.9-1.6 1.9-2.3 2.8-.9 1.2-1.9 2.3-2.8 3.4-1.9 2.1-4.2 4.2-6.1 6.6 1.5-.6 2.8-1.4 4.1-2.2 1.3-.9 2.5-1.9 3.5-3 1.1-1.2 1.9-2.5 2.6-3.9.5-1 1-2 1.3-3.1.4.8.9 1.6 1.4 2.2l.1.2h.1c-1.5 2.2-3 4.4-4.7 6.6-1.8 2.3-3.7 4.6-5.9 6.4-2.3 1.8-4.8 3.2-7.5 4.3-2.7 1.1-5.4 2.1-8.2 2.9-2.8.8-5.7 1.3-8.6 1.8-2.9.5-5.7 1.2-8.6 1.6-3.4.6-4.8.5-5.1.5 0-1.1-.1-2.1-.3-2.8.6-.3 1.4-.9.1-1.4-1.6-.5-3.1.2-3.1.9-.1.6.5.7 1.1.7.2.6.2 1.3.2 2.1-.3-.1-.6-.3-.8-.5-.5-.4-.9-.8-1.3-1.3-.3-.5-.7-1.1-.8-1.6l-.6-2.1c.6-.9 1.1-2 1.8-3zm-61.9-14.6v-.6c0-.3.1-.8.2-1.1 0-.2.1-.4.2-.4 0-.1.1-.2.3-.3.6-.5 1.4-1.1 2-1.8 1.3-1.3 2.5-2.7 3.5-4.2.5-.8 1-1.6 1.3-2.6.3-1 .3-2 .5-2.7 0-1.1 1.6-1.3 3.1-1.3 0 .6.1 1.1.1 1.7.4 3.3 1.5 6.6 3.1 9.6 1.7 2.9 3.9 5.6 6.5 7.6 2.6 2.1 5.6 3.7 8.7 4.7-2.8-1.8-5.4-3.7-7.7-5.9s-4.3-4.7-5.8-7.4c-.8-1.4-1.4-2.8-2-4.3-.6-1.5-1-3-1.3-4.5-.1-.5-.2-1.1-.3-1.6l.1-.6c.2-2 .9-4.1 1.9-5.9 1-1.9 2.4-3.4 4.1-4.6 1.7-1.2 3.7-2.1 5.7-3 1.6-.7 3.3-1.3 5-1.9 0 0-1.7 4.2-2.2 5.1-.7 1.1-1 2.6-.7 3.9.1.7.3 1.3.6 1.8.2.6.5 1.1.8 1.6.4.7 3 5.6 3.8 6.8.8 1.1 1.7 2.2 2.5 3.3 1.7 2.1 3.6 4.9 5.6 6.8 4.1 4 3.8 6.3 8.3 9.4 1.1.8 2.3 1.5 3.5 2.2 1.2.7 2.3 1.4 3.3 2.2 2.1 1.6 3.7 3.8 4.6 6.3l.1.3-.4 1.1c-.2.6-.5 1.3-.9 1.8-.4.6-.8 1-1.2 1.1-.1 0-.2.1-.4.1h-1.3c0-.1.1-.2.1-.3.3-.6.6-1.2.8-1.5.4.1.9 0 1-.3.2-.5-.6-2.1-1.6-2-.9 0-1.3.3-.5 1.4-.6.6-1.3 1.5-1.8 2.8h-.6c-3.1-.1-6.1-.4-9.2-.7-3.1-.4-6.1-.7-9-1.5-2.9-.8-15.6-7.5-21.2-10-2.8-1.2-5.7-2.4-8.3-4.1-1.3-.9-2.5-1.8-3.5-3-.8-.9-1.6-2.1-1.9-3.3l.5-.2zm102 44.6c-14.7 0-29.3.1-44 .2l-44.2.3-44.5.4c.1-1.6.1-3.3.2-5l.2-5c.1-3.4.3-6.7.6-10.1.2-3.3.6-6.7 1-10 .1-.8.2-1.6.4-2.4.1-.4.2-.8.3-1.1.1-.3.4-.6.6-.8 1.1-1 2.7-1.8 4.2-2.4h.1l.1-.1c1.3-1 2.7-2 4.1-2.9 1.4-.9 2.8-1.8 4.3-2.4 3-1.3 10.9-2.2 14.1-3.1.3 1.3 1 2.4 1.8 3.5 1 1.2 2.2 2.3 3.4 3.2 2.5 1.9 5.4 3.2 8.2 4.5 5.6 2.7 18.2 9.9 21.2 10.8 1.5.4 3.1.8 4.6 1s3.1.5 4.6.7c3.1.4 6.2.6 9.3.8h.2v.1c-.3 2.9 1.6 8.7 2 12.1s-1 6.8-.3 7 2.5.9 2.8-.2c.3-1.1.6-10.9-.9-13.9-.9-1.8-1.3-3.6-1.3-5.1H98.5c.2 0 .5-.1.8-.1 1.1-.3 1.8-1.2 2.3-1.9.1-.1.1-.2.2-.3 0 .1.1.1.1.2.5.7 1.1 1.3 1.8 1.8.6.4 1.2.7 1.8.9-.1.5-.1.9-.2 1.3-.4 1.9-2 3.1-1.2 7.2s3.1 6.1 3.4 7.7c.3 1.6.4 2.9 1 2.9s2.4-.7 2.7-1.6-.8-3.5-2.3-5.4c-1.5-1.9-2.8-4.6-2.8-6.1 0-1.3.9-3.7 1.3-5.7 6.7-.6 11.3-1.8 14.2-2.3s5.8-1.2 8.6-2c2.9-.9 5.6-1.9 8.3-3.2 2.7-1.3 5.3-2.8 7.6-4.8 2.2-2 4.1-4.4 5.8-6.8 1.6-2.2 3-4.5 4.3-6.9h.1l15.4 4.5 2.7 1.1c.9.4 1.8.8 2.6 1.2 1.6.9 3.2 2.1 4.6 3.4l.1.1.6.6.6.9c.4.6.7 1.3.9 1.9.5 1.4.9 2.8 1.1 4.3.4 3 .6 6.1.8 9.2.4 5.8.7 11.7 1.1 17.5-14.5.2-28.8.2-43.1.3zM32.8 203.3c-.3-1.8-1-3.3-1.7-4.7-1.5-2.9-3.2-5.6-5.1-8.2-1-1.3-1.9-2.6-3.1-3.7-1.2-1.1-2.5-2.1-4.1-2.6 1.4.8 2.5 2 3.4 3.2.9 1.2 1.7 2.6 2.6 3.9 1.6 2.7 3.2 5.4 4.6 8.2.7 1.4 1.4 2.8 1.6 4.1.3 1.5.4 3.1.6 4.6.3 3.1.6 6.3 1.1 9.5.4-3.2.5-6.4.4-9.6 0-1.4-.1-3-.3-4.7zm142.4-17.5c-.9.2-1.8.7-2.4 1.4-.6.7-1.1 1.5-1.5 2.2-1.8 2.8-3.6 5.7-5.2 8.7-.4.8-.7 1.6-1.1 2.4-.2.4-.3.8-.4 1.3-.1.4-.2.9-.3 1.3-.2 1.7-.4 3.4-.4 5.1-.1 3.4-.1 6.8.1 10.1.6-3.3 1-6.7 1.5-10 .2-1.6.4-3.3.7-4.9.3-1.5 1-3 1.7-4.4 1.5-3 3.2-5.8 4.7-8.9.4-.8.7-1.5 1.1-2.1.4-.6 1-1 1.7-1.3.7-.3 1.6-.4 2.4-.8.8-.3 1.6-.8 2.2-1.3-.8.4-1.6.6-2.4.8-.7.2-1.5.2-2.4.4z" fill="#000000" stroke-width="none" opacity="1"></path><path id="SvgjsPath13902" d="M173.1 180.5c-3.5-1.5-13.8-3-16.4-4.8 0 0 11.8 6.1 15.9 7.4 4.1 1.3 7.2.9 7.2.9s-3.2-2-6.7-3.5zm-32.6-24.6c0-3.2-2.4-7.4-4.1-9.5s-5.4-3.2-6.9-4.3c0 0 .9.9 2.6 2.8 1.7 1.9 5 6.7 5.6 10.6.6 3.9-2.6 11.3-4.8 14.1s-10.8 7.2-14.8 9.5c-3.9 2.4-7.5 5.6-12.1 8.2s-3 6.9-3 6.9.7-2.6 2.2-4.6 7.3-6.1 11.6-7.4c4.3-1.3 14.3-7.4 18.2-11.1 3.9-3.4 5.5-11.9 5.5-15.2zm3.2 2.2s1.9 3 3.2 4.8c1.3 1.7 2.4 5.9-1.5 12.4s-15 13.2-15 13.2 9.5-4.3 12.6-6.5c3-2.2 8.9-9.5 9.3-11.3.4-1.7-.2-4.8-1.5-6.9-1.2-2.2-6.2-4.8-7.1-5.7zm-59.3 22.6c-3.9-3-11.4-13.2-14.4-17.1-3-3.9-3.2-8-3.5-10.8 0 0-2.4 2.6-2.8 4.8s-.4 5.9 3.2 8.9c3.7 3 17.5 18 22.7 20.4 5.2 2.4 9.3 5.9 9.3 5.9s-1.1-2.6-2.4-3.9c-1.3-1.5-8.2-5.2-12.1-8.2zM60 185.4c3.9 1.5 14.5 6.3 17.3 7.4s15.1 3 15.1 3-11.8-3.9-15.8-5.6c-3.8-1.7-16.6-4.8-16.6-4.8z" fill="#0f0f0f" stroke-width="none" opacity="1"></path></g><g id="svga-group-head" transform="matrix(0.9986295346632303,-0.05233595798588117,0.05233595798588117,0.9986295346632303,-7.4516673742758,5.432313272419719)"><g id="svga-group-ears-left-move" transform="matrix(1,0,0,1,0,0)"><g id="svga-group-ears-left" transform="matrix(0.9499998000000001,0,0,0.9499998000000001,2.9500595792743667,4.333546997204579)"><path id="SvgjsPath13598" d="M68.53 80.36s-11.15-9.8-12.94-9.96c-1.54-.14-5.36 8.01-7.05 13.16-.45 1.36-.34 2.88.25 4.2 1.62 3.57 5.21 11.04 8.43 14.78 0 0 2.72.59 3.58.33.86-.25 7.58-5.67 8.27-7.77s.83-11.3-.54-14.74z" fill="#391f10" stroke-width="none" opacity="1" stroke="none"></path><path id="SvgjsPath13599" d="M69.49 84.19c.18 1.31.28 2.64.33 3.96.05 1.32.06 2.65-.01 3.98a26.7 26.7 0 0 1-.17 1.99c-.05.34-.1.67-.2 1.02s-.28.7-.46.96c-.72 1.11-1.6 1.95-2.47 2.8-.88.84-1.78 1.63-2.71 2.4-.47.38-.93.75-1.42 1.11-.24.18-.49.35-.74.52l-.4.24c-.16.08-.35.17-.53.19-.67.08-1.23-.01-1.82-.09-.58-.08-1.15-.19-1.73-.32l-.13-.03-.08-.1c-1.45-1.74-2.63-3.68-3.74-5.65-1.1-1.98-2.1-4.03-3.06-6.1l-1.41-3.11c-.5-1.05-.71-2.29-.54-3.46.06-.59.26-1.14.44-1.67.18-.54.37-1.07.56-1.6.4-1.05.79-2.11 1.22-3.15.86-2.07 1.76-4.13 2.94-6.02.3-.47.62-.93 1-1.36.19-.21.4-.42.67-.59.13-.08.3-.16.52-.16.19.01.32.07.47.12 1.06.47 1.87 1.14 2.75 1.76 1.72 1.29 3.37 2.66 5 4.09 1.64 1.41 3.22 2.86 4.81 4.38.49 1.27.72 2.58.91 3.89zM58.4 72.51c-.85-.59-1.75-1.26-2.59-1.61-.09-.02-.2-.08-.26-.08-.04 0-.12.02-.2.07-.17.1-.35.25-.51.44-.34.36-.65.8-.94 1.24-1.16 1.8-2.18 3.77-3.11 5.77-.46 1.01-.92 2.02-1.32 3.06-.2.52-.4 1.04-.59 1.57-.19.53-.38 1.05-.45 1.6-.15 1.11.06 2.27.55 3.26.47 1.03.98 2.05 1.49 3.05 1.02 2.02 2.12 3.99 3.26 5.91 1.15 1.91 2.36 3.79 3.76 5.42l-.21-.13c1.09.2 2.3.43 3.29.33.11-.01.18-.06.28-.11l.35-.22.7-.5c.47-.34.93-.71 1.39-1.08.92-.74 1.81-1.52 2.68-2.34.85-.82 1.73-1.66 2.39-2.61.17-.25.29-.46.38-.72.08-.27.14-.58.19-.89.09-.63.17-1.27.21-1.91.1-1.29.14-2.6.15-3.9.01-1.31-.04-2.62-.15-3.92-.11-1.3-.27-2.62-.66-3.84-3.33-2.62-6.67-5.35-10.08-7.86z" fill="#2a1408" stroke-width="none" opacity="1" stroke="none"></path><path id="SvgjsPath13600" d="M68.79 88.66S58.04 75.08 56.02 76.21c-2.01 1.12-5.19 7.53-5.18 9.67.02 3.14 3.34 8.38 5.01 9.96s3.68 2.55 6.35 1.94c2.66-.61 6.59-9.12 6.59-9.12z" fill="#2a1408" stroke-width="none" opacity="1" stroke="none"></path><path id="SvgjsPath13601" d="M60.61 88.64c-.45-1.26-.95-2.5-1.45-3.74a49.61 49.61 0 0 0-1.66-3.64c-.61-1.18-1.22-2.36-1.97-3.45l-.08-.12-.08.12c-.75 1.18-1.45 2.38-2.12 3.62-.33.62-.66 1.25-.96 1.89-.31.64-.57 1.31-.84 1.98l-.04.1.04.12c.46 1.41.96 2.79 1.47 4.18.25.69.54 1.37.83 2.05.3.68.59 1.35.99 2.01l.19.31.25-.23c.34-.31.6-.65.87-1.02.26-.37.49-.76.69-1.17.4-.82.63-1.78.6-2.74v-.06l-.02-.04c-.5-.99-1.03-1.96-1.55-2.94l-.05.03c.42 1.01.83 2.03 1.26 3.03-.04.86-.3 1.68-.68 2.41-.33.62-.77 1.17-1.24 1.65-.26-.49-.5-1.02-.73-1.56l-.81-2.03c-.53-1.32-1.03-2.66-1.52-3.99.45-1.3.94-2.59 1.52-3.82.57-1.23 1.22-2.41 1.96-3.51.67 1.04 1.17 2.23 1.68 3.39l1.54 3.67 1.56 3.67c.52 1.22 1.05 2.45 1.6 3.66l.06-.03c-.41-1.27-.85-2.54-1.31-3.8z" fill="#0b0400" stroke-width="none" opacity="1" stroke="none"></path></g></g><g id="svga-group-ears-right-move" transform="matrix(1,0,0,1,0,0)"><g id="svga-group-ears-right" transform="matrix(0.9499998000000001,0,0,0.9499998000000001,7.05088460296173,4.334900075736996)"><path id="SvgjsPath13602" d="M131.47 80.36s11.15-9.8 12.94-9.96c1.54-.14 5.36 8.01 7.05 13.16.45 1.36.34 2.88-.25 4.2-1.62 3.57-5.21 11.04-8.43 14.78 0 0-2.72.59-3.58.33-.86-.25-7.58-5.67-8.27-7.77s-.83-11.3.54-14.74z" fill="#391f10" stroke-width="none" opacity="1" stroke="none"></path><path id="SvgjsPath13603" d="M131.44 80.33c1.58-1.52 3.17-2.97 4.81-4.38 1.62-1.42 3.28-2.8 5-4.09.88-.63 1.69-1.29 2.75-1.76.16-.04.28-.11.47-.12.21 0 .38.08.52.16.28.17.49.37.67.59.38.43.7.89 1 1.36 1.18 1.89 2.07 3.96 2.94 6.02.43 1.04.82 2.09 1.22 3.15.19.53.38 1.06.56 1.6.18.53.37 1.08.44 1.67.17 1.17-.04 2.41-.54 3.46l-1.41 3.11c-.97 2.06-1.96 4.11-3.06 6.1-1.11 1.98-2.29 3.92-3.74 5.65l-.08.1-.13.03c-.58.13-1.15.23-1.73.32-.59.07-1.16.16-1.82.09-.18-.02-.37-.11-.53-.19l-.4-.24c-.25-.17-.5-.34-.74-.52-.48-.36-.95-.73-1.42-1.11-.93-.76-1.83-1.56-2.71-2.4-.87-.86-1.75-1.69-2.47-2.8a3.42 3.42 0 0 1-.46-.96c-.1-.35-.14-.69-.2-1.02-.08-.67-.14-1.33-.17-1.99-.07-1.33-.07-2.65-.01-3.98.06-1.32.15-2.65.33-3.96.17-1.34.4-2.65.91-3.89zm.06.06c-.4 1.21-.56 2.54-.66 3.84-.1 1.3-.15 2.61-.15 3.92.01 1.31.06 2.61.15 3.9.05.65.12 1.29.21 1.91.06.31.11.62.19.89.09.26.2.47.38.72.66.94 1.54 1.79 2.39 2.61.86.81 1.76 1.59 2.68 2.34.46.37.92.73 1.39 1.08l.7.5.35.22c.1.05.17.1.28.11.99.1 2.2-.13 3.29-.33l-.21.13c1.4-1.63 2.61-3.51 3.76-5.42 1.14-1.92 2.24-3.89 3.26-5.91.51-1.01 1.02-2.02 1.49-3.05.49-.99.7-2.15.55-3.26-.07-.56-.26-1.07-.45-1.6s-.38-1.05-.59-1.57c-.4-1.04-.86-2.06-1.32-3.06-.93-2.01-1.95-3.97-3.11-5.77-.29-.44-.6-.88-.94-1.24-.17-.18-.35-.34-.51-.44a.431.431 0 0 0-.2-.07c-.06 0-.17.06-.26.08-.84.35-1.74 1.02-2.59 1.61-3.39 2.49-6.73 5.22-10.08 7.86z" fill="#2a1408" stroke-width="none" opacity="1" stroke="none"></path><path id="SvgjsPath13604" d="M131.21 88.66s10.75-13.58 12.77-12.45c2.01 1.12 5.19 7.53 5.18 9.67-.02 3.14-3.34 8.38-5.01 9.96s-3.68 2.55-6.35 1.94c-2.66-.61-6.59-9.12-6.59-9.12z" fill="#2a1408" stroke-width="none" opacity="1" stroke="none"></path><path id="SvgjsPath13605" d="M148.54 85.31c-.26-.67-.52-1.34-.84-1.98-.3-.64-.62-1.27-.96-1.89-.67-1.24-1.38-2.44-2.12-3.62l-.08-.12-.08.12c-.74 1.1-1.36 2.27-1.97 3.45-.6 1.18-1.14 2.4-1.66 3.64-.49 1.24-1 2.48-1.45 3.74-.46 1.26-.9 2.53-1.28 3.81l.06.03c.55-1.21 1.07-2.44 1.6-3.66l1.56-3.67 1.54-3.67c.51-1.16 1.01-2.35 1.68-3.39.74 1.1 1.39 2.29 1.96 3.51.58 1.24 1.08 2.52 1.52 3.82-.5 1.34-.99 2.67-1.52 3.99l-.81 2.03c-.23.53-.47 1.07-.73 1.56-.47-.48-.91-1.03-1.24-1.65-.39-.73-.64-1.55-.68-2.41.43-1 .84-2.02 1.26-3.03l-.05-.03c-.52.98-1.05 1.95-1.55 2.94l-.02.04v.06c-.03.96.2 1.92.6 2.74.2.41.43.81.69 1.17.26.36.53.71.87 1.02l.25.23.19-.31c.4-.67.69-1.34.99-2.01.29-.68.57-1.36.83-2.05.51-1.38 1.01-2.77 1.47-4.18l.04-.12-.07-.11z" fill="#0b0400" stroke-width="none" opacity="1" stroke="none"></path></g></g><g id="svga-group-faceshape-wrap"><g id="svga-group-faceshape-single"><path id="SvgjsPath14029" d="M139.24 94.99c-.76-8.02 1.89-33.13.68-40.1-2.2-10-6.11-15.74-15.01-20.54-9.3-5-25.03-4.86-25.03-4.86s-15.78-.22-25.08 4.78c-8.7 4.9-12.73 10.58-14.93 20.58-.9 4 0 13.7 0 13.7s1.78 19.58 1.18 26.68c-.5 7.1-.79 19.34 1.31 26.44s11.07 14.23 16.57 16.83 6.9 5.52 9.3 8.92 11.7 3.53 11.7 3.53 9.55-.31 11.95-3.71 3.47-6.12 9.07-8.72c5.5-2.6 14.75-9.62 16.85-16.72 2.2-7.2 1.94-19.61 1.44-26.81z" fill="#391f10" stroke-width="none" opacity="1" stroke="none"></path><path id="SvgjsPath14030" d="M139.92 54.89c-2.2-10-6.11-15.74-15.01-20.54-9.3-5-25.03-4.86-25.03-4.86s-15.78-.22-25.08 4.78c-8.7 4.9-12.73 10.58-14.93 20.58-.9 4 0 13.7 0 13.7s1.78 19.58 1.18 26.68c-.5 7.1-.79 19.34 1.31 26.44s11.07 14.23 16.57 16.83 6.9 5.52 9.3 8.92 11.7 3.53 11.7 3.53 9.55-.31 11.95-3.71c2.4-3.4 3.47-6.12 9.07-8.72 5.5-2.6 14.75-9.62 16.85-16.72 2.2-7.2 1.94-19.61 1.44-26.81-.76-8.02 1.89-33.13.68-40.1zm-.46 18.97-.36 10.56c-.1 3.52-.25 7.05.02 10.58.41 7.01.5 14.1-.51 21.04-.26 1.73-.61 3.45-1.11 5.1-.49 1.65-1.27 3.17-2.24 4.58-.96 1.42-2.12 2.71-3.35 3.92a37.24 37.24 0 0 1-3.93 3.38 45.341 45.341 0 0 1-4.29 2.89c-.74.44-1.5.84-2.25 1.23-.73.37-1.58.72-2.4 1.16-1.63.85-3.22 1.94-4.52 3.34-1.3 1.4-2.27 2.96-3.25 4.36l-.37.52c-.11.11-.21.22-.31.34-.09.12-.26.21-.39.32s-.27.21-.44.3c-.61.39-1.39.67-2.14.94-1.56.49-3.24.8-4.93 1-.84.1-1.7.17-2.54.22-.3.03-.76-.02-1.18-.04l-1.27-.1c-1.69-.17-3.37-.45-4.93-.92-.78-.23-1.52-.52-2.16-.89-.15-.09-.32-.18-.46-.28l-.39-.31c-.14-.1-.2-.22-.31-.33-.09-.08-.22-.26-.34-.44-.98-1.4-1.95-2.95-3.21-4.38-1.25-1.44-2.78-2.65-4.39-3.6-.79-.47-1.69-.9-2.43-1.26-.75-.36-1.49-.77-2.21-1.22-2.9-1.77-5.62-3.93-8-6.35-2.36-2.43-4.45-5.21-5.4-8.29-.93-3.23-1.29-6.71-1.52-10.17-.23-3.47-.25-6.97-.17-10.47.04-1.75.11-3.5.21-5.24.11-1.81.08-3.59.03-5.36-.12-3.55-.36-7.07-.63-10.59s-.59-7.03-.94-10.54c-.36-3.49-.59-7-.5-10.49.02-.87.09-1.74.19-2.59.12-.83.35-1.69.54-2.54.43-1.69.94-3.36 1.58-4.98 1.3-3.23 3.23-6.19 5.75-8.58 2.52-2.36 5.49-4.33 8.62-5.74 3.19-1.34 6.61-2.11 10.05-2.66 6.91-1.03 13.92-1.19 20.83-.35 3.46.38 6.89.97 10.21 1.86 1.67.43 3.27 1.01 4.84 1.66 1.51.7 3.05 1.48 4.49 2.42 2.88 1.82 5.46 4.07 7.4 6.84 1.95 2.76 3.26 5.97 4.22 9.3.13.41.22.83.34 1.25.11.42.23.83.27 1.24.14.81.2 1.68.26 2.55.1 1.74.13 3.49.13 5.24-.01 3.53-.11 7.05-.21 10.57z" fill="#0b0400" stroke-width="none" opacity="1" stroke="none"></path></g></g><g id="svga-group-mouth-single-move" transform="matrix(1,0,0,1,0,1)"><g id="svga-group-mouth-single" transform="matrix(0.9499998000000001,0,0,0.9499998000000001,5.0177525004341135,6.278676733563984)"><path id="SvgjsPath13915" d="M88.47 130.85s.96 3.04 5.26 4.47c4.3 1.43 9.08 1.74 13.33-.43 4.26-2.17 5.56-5.08 5.99-7.69s-4.34-6.07-11.16-6.69c-3.22-.29-7.22.33-9.68 1.31-1.73.7-5.55 3.46-3.74 9.03z" fill="#311519" stroke-width="none" opacity="1" stroke="none"></path><path id="SvgjsPath13916" d="M115.6 121.1c-.2 2.1-.4 5-3.1 4.9-1.1 0-2.3-.5-3.4-.6-2.8-.3-5.6-.3-8.3.1-2.6.4-5.2 1.1-7.7 2.1-6.46 3.33-6.2 2.82-8.09 2.86-.4.1-.4.7 0 .8 1.3.3 2.89.54 3.99-.06 1.7-.9 3.3-1.7 5.1-2.3 3.4-1.2 6.9-1.9 10.5-2 1.9 0 3.7.1 5.5.4 1.1.2 2.44.47 3.54.27 1.1-.3 1.43-.81 1.91-1.94.51-1.86.65-2.93.65-4.53 0-.5-.5-.4-.6 0z" fill="#220b0e" stroke-width="none" opacity="1" stroke="none"></path></g></g><g id="svga-group-eyes-left-move" transform="matrix(1,0,0,1,0,0)"><g id="svga-group-eyes-left"><g id="svga-group-eyesback-left"><path id="SvgjsPath13858" d="M80.2 74.2c7.5 0 13.5 5.8 13.5 13s-6 13-13.5 13-13.5-5.8-13.5-13 6-13 13.5-13z" fill="#ffffff" stroke-width="none" opacity="1"></path></g><g id="svga-group-eyesiriswrapper-left" transform="matrix(1,0,0,1,0,0)"><g id="svga-group-eyesiriscontrol-left" transform="matrix(1,0,0,1,0,0)"><g id="svga-group-eyesiris-left"><path id="SvgjsPath13720" d="M80.2 81.6c3.1 0 5.6 2.5 5.6 5.6s-2.5 5.6-5.6 5.6-5.6-2.5-5.6-5.6 2.5-5.6 5.6-5.6z" fill="#000000" stroke-width="none" opacity="1" stroke="none"></path><path id="SvgjsPath13721" d="M80.2 84.2c1.7 0 3 1.3 3 3s-1.3 3-3 3-3-1.3-3-3 1.3-3 3-3z" fill="#000000" stroke-width="none" opacity="1"></path><path id="SvgjsPath13722" d="m79.5 84.8-.6-.6c-.2-.2-.5-.3-.8-.3s-.6.1-.8.3c-.2.2-.3.5-.3.8s.1.6.3.8l.6.6c.2.2.5.3.7.3.3 0 .6-.1.7-.3.6-.6.6-1.2.2-1.6zm2.7 5.1c1 0 1-1.5 0-1.5-.9 0-.9 1.5 0 1.5z" fill="#ffffff" stroke-width="none" opacity="1"></path></g></g></g><g id="svga-group-eyesfront-left"><path id="SvgjsPath13866" d="M80.2 73.7c-7.8 0-14.1 6.1-14.1 13.6s6.3 13.6 14.1 13.6 14.1-6.1 14.1-13.6S88 73.7 80.2 73.7zm0 21.9c-5.5 0-10.7-2.8-10.8-3.7-.2-1 .9-4.2 3.2-6.8 2.4-2.6 8-3.5 12.8-1.5s5.9 8 5.9 8c.1 1.8-5.6 4-11.1 4z" fill="#391f10" stroke-width="none" opacity="1" stroke="none"></path><path id="SvgjsPath13867" d="M89.4 86.9c.7 0 3.1 0 2.4-.2-1.2-.4-5.6-3.8-6.8-4.3s-5.5-1.3-6.2-1.3-7.1 2.8-7.7 3.2c-.6.4-2.2 6-2.6 6.3-.2.2.4.5.8.7 0 .1 0 .2-.1.3v.2c0 .1.1.2.1.3.1.2.2.3.3.4.2.2.5.4.7.6.5.3 1 .6 1.6.9 2.1 1 4.4 1.6 6.8 1.8 2.4.2 4.7-.1 7-.7 1.1-.3 2.2-.7 3.3-1.2.5-.3 1-.5 1.5-.9l.6-.6c.2-.2.3-.5.3-.8-.2-1.1-.7-2.2-1.2-3.3-.3-.4-.5-.9-.8-1.4zm1.6 5.5-.6.6c-.5.3-1 .6-1.5.8-1.1.4-2.2.8-3.3 1-2.2.4-4.6.7-6.8.5-2.3-.2-4.5-.8-6.6-1.7-.5-.2-1-.5-1.5-.8-.2-.2-.5-.3-.7-.5-.1-.1-.2-.2-.2-.3 0-.1 0-.1-.1-.1v-.2c0-.2 0-.4.1-.6.4-1 1.6-3.8 2.5-5 1.2-1.5 3.6-3.3 6.9-3.3 1.7 0 3.2.2 4.5.5.5.2 1.1.3 1.6.6 1.1.4 2 1.1 2.8 1.8 1.6 1.6 2.8 3.7 3.3 5.9-.1.3-.2.6-.4.8z" fill="#000000" stroke-width="none" opacity="1" stroke="none"></path></g></g></g><g id="svga-group-eyes-right-move" transform="matrix(1,0,0,1,0,0)"><g id="svga-group-eyes-right"><g id="svga-group-eyesback-right"><path id="SvgjsPath13859" d="M119.8 74.2c7.5 0 13.5 5.8 13.5 13s-6 13-13.5 13-13.5-5.8-13.5-13 6-13 13.5-13z" fill="#ffffff" stroke-width="none" opacity="1"></path></g><g id="svga-group-eyesiriswrapper-right" transform="matrix(1,0,0,1,0,0)"><g id="svga-group-eyesiriscontrol-right" transform="matrix(1,0,0,1,0,0)"><g id="svga-group-eyesiris-right"><path id="SvgjsPath13723" d="M119.8 82.3c2.7 0 4.9 2.2 4.9 4.9s-2.2 4.9-4.9 4.9-4.9-2.2-4.9-4.9 2.2-4.9 4.9-4.9z" fill="#000000" stroke-width="none" opacity="1" stroke="none"></path><path id="SvgjsPath13724" d="M119.8 84.6c1.4 0 2.6 1.2 2.6 2.6s-1.2 2.6-2.6 2.6-2.6-1.2-2.6-2.6 1.2-2.6 2.6-2.6z" fill="#000000" stroke-width="none" opacity="1"></path><path id="SvgjsPath13725" d="M119.2 85.1c-.2-.2-.3-.4-.5-.5-.2-.2-.4-.3-.7-.3-.2 0-.5.1-.7.3-.2.2-.3.4-.3.7 0 .2.1.5.3.7.2.2.4.3.5.5.2.2.4.3.7.3.2 0 .5-.1.7-.3.3-.5.3-1.1 0-1.4zm2.4 4.5c.8 0 .9-1.3 0-1.3-.8-.1-.8 1.3 0 1.3z" fill="#ffffff" stroke-width="none" opacity="1"></path></g></g></g><g id="svga-group-eyesfront-right"><path id="SvgjsPath13868" d="M119.8 73.7c-7.8 0-14.1 6.1-14.1 13.6s6.3 13.6 14.1 13.6 14.1-6.1 14.1-13.6-6.3-13.6-14.1-13.6zm.3 20.6c-5.5 0-11.3-1.9-11.1-3.4 0 0 1.2-5.1 5.9-6.9s9.6-.7 12 1.5c2.4 2.3 4.2 4.8 4 5.6-.1.8-5.3 3.2-10.8 3.2z" fill="#391f10" stroke-width="none" opacity="1" stroke="none"></path><path id="SvgjsPath13871" d="M131.9 90c-.3-.3-3.5-4-4.1-4.3s-4-3.2-4.8-3.2-6.4 0-7.6.4-4.2 2.8-4.7 3.4c-.3.4.2.2.7 0-.4.5-.8 1-1.1 1.5-.6 1-1 2-1.3 3 0 .3.1.6.3.8.2.2.4.4.7.5.5.3 1 .5 1.5.8 1 .4 2.1.8 3.2 1 2.2.5 4.4.8 6.6.7 2.2-.1 4.4-.6 6.5-1.3 1-.4 2.1-.8 3-1.5l.3-.3c.1-.1.1-.2.1-.3v-.3c0-.1 0-.1-.1-.2.4-.2 1-.4.8-.7zm-1.2 1.1c-.1.1-.1.2-.2.2-.8.6-1.9 1-2.9 1.4-2.1.7-4.2 1.1-6.4 1.3-2.2.1-4.3-.1-6.5-.4-1.1-.2-2.1-.4-3.2-.8-.5-.2-1-.4-1.5-.7-.2-.1-.5-.3-.7-.5-.2-.2-.3-.4-.3-.7.6-2.1 1.9-4 3.6-5.3.9-.7 1.8-1.1 2.8-1.5.9-.3 1.7-.5 2.6-.6.2 0 .5-.1.7-.1h.7c1.8-.1 3.7.2 5.3.9 1.3.8 2.3 1.8 2.9 2.5.9 1 2.3 2.9 2.8 3.7.1.2.1.3.1.5.2-.1.2 0 .2.1z" fill="#000000" stroke-width="none" opacity="1" stroke="none"></path></g></g></g><g id="svga-group-facehighlight-single"></g><g id="svga-group-eyebrows-left-move" transform="matrix(1,0,0,1,0,0)"><g id="svga-group-eyebrows-left-rotate" transform="matrix(0.9914448554507187,0.1305262372103921,-0.1305262372103921,0.9914448554507187,10.26161746251573,-9.761940031349383)"><g id="svga-group-eyebrows-left" transform="matrix(0.8999996000000001,0,0,0.8999996000000001,7.960031305940234,7.340031038473498)"><path id="SvgjsPath13566" d="M93.2 68.2s-1.8 4.7-3.3 5.6-18.1.7-18.1.7-4.2 2.2-5.5 3.9l3.3-8.3.4.4 10.4-1.7-1.2.8 13-1.7-1.3 2.2 2.3-1.9z" fill="#000000" stroke-width="none" opacity="1" stroke="none"></path><path id="SvgjsPath13567" d="m66 79.1.4-.6c.3-.4.7-.8 1.1-1.2.2-.2.4-.3.7-.5.2-.2.5-.3.7-.5.5-.3 1-.6 1.4-.9s1-.6 1.5-.8c2.2.1 4.3.1 6.4.1 2.2 0 4.3 0 6.5-.1 1.1-.1 2.2-.1 3.2-.2.5-.1 1.1-.1 1.6-.3l.2-.1c.1 0 .1-.1.2-.1.1-.1.2-.2.3-.2l.3-.3.2-.3c.3-.4.5-.8.8-1.2l.6-1.2c.2-.4.4-.8.5-1.2.1-.2.2-.4.2-.6l.1-.3.1-.2v-.2l-1.2.9c-.3.2-.5.4-.8.6l1.1-1.8.1-.2h-.3l-3.3.4-3.3.4c-1.1.1-2.2.3-3.3.4l-2.2.3.4-.2.9-.6-1.1.2-2.6.4-2.6.4-5.1.8-.4-.3-.2-.2-.1.3-1.6 4.2-.4 2.2c-.3.7-.5 1.4-.8 2.1l-.2.6zm.6-1.1c.2-.5.4-1.1.7-1.6l.8-2.1 1.6-3.8.2.2.1.1h.1l5.2-.8 2.6-.4 1.5-.2-.4.1-.8.5 1.1-.1 3.3-.4c1.1-.1 2.2-.3 3.2-.5l3.2-.5 3-.4-1.1 2-.3.5.4-.4 1.1-.9c.4-.3.7-.6 1.1-1l-.1.1v.1l-.1.1-.1.3-.3.6-.6 1.2c-.4.8-.9 1.6-1.4 2.3l-.2.3-.2.2c-.1.1-.2.1-.3.2l-.1.1-.2.1c-.5.1-1 .2-1.6.2-1.1.1-2.1.2-3.2.2-2.2.1-4.3.1-6.5.2-2.2 0-4.3.1-6.5.1-1 .6-2 1.1-3 1.8-.5.3-.9.7-1.4 1-.3.1-.6.4-.8.6zm23.1-9c-.6.3-1.1.7-1.6 1-.5.3-1.1.7-1.6 1.1-.5.4-1 .7-1.6 1.1s-1 .8-1.5 1.1l.4.2c.2-.7.3-1.3.4-2l.1-.4-.4.3c-.6.5-1.2 1-1.7 1.5.7-.4 1.3-.8 1.9-1.3l-.3-.1c-.2.7-.4 1.3-.6 1.9l-.2.6.6-.4c.5-.4 1-.7 1.5-1.1l1.5-1.2 1.5-1.2c.6-.3 1.1-.7 1.6-1.1zm-10.9 1.6c-.7.4-1.4.9-2.2 1.4-.7.5-1.4.9-2.1 1.4l.4.2c.1-.3.2-.6.4-1 .1-.3.2-.6.4-1l.2-.5-.5.2c-.5.2-1.1.5-1.6.7s-1 .5-1.5.8c-.5.3-1 .6-1.4.9-.4.3-.9.7-1.2 1.1.4-.3.9-.6 1.4-.9.5-.3 1-.6 1.5-.8.5-.2 1-.5 1.5-.7.5-.2 1-.5 1.6-.7l-.3-.2c-.1.3-.2.6-.4 1-.1.3-.2.6-.3 1l-.2.6.6-.4c.7-.5 1.3-1 2-1.5.4-.5 1.1-1 1.7-1.6z" fill="#000000" stroke-width="none" opacity="1" stroke="none"></path></g></g></g><g id="svga-group-eyebrows-right-move" transform="matrix(1,0,0,1,0,0)"><g id="svga-group-eyebrows-right-rotate" transform="matrix(0.9914448613738104,-0.13052619222005174,0.13052619222005174,0.9914448613738104,-8.666771635822414,16.370577509012442)"><g id="svga-group-eyebrows-right" transform="matrix(0.8999996000000001,0,0,0.8999996000000001,12.055046999291974,7.430027736349473)"><path id="SvgjsPath13568" d="M108.2 71.1s2.3 4.4 3.6 5.2c1.4.7 15.7-1.3 15.7-1.3s4 1.7 5.3 3.2l-4-7.8-.3.4-9.2-.5 1.2.6-11.5-.2 1.4 2-2.2-1.6z" fill="#000000" stroke-width="none" opacity="1" stroke="none"></path><path id="SvgjsPath13569" d="M132.9 78.2c-.3-.7-.7-1.3-1-2l-1-2-2-3.9-.1-.3-.2.2-.3.3-4.5-.3-2.3-.1-2.3-.1-1-.1.9.5.4.2H108.7l.1.2 1.2 1.6c-.2-.2-.5-.3-.8-.5-.4-.2-.8-.5-1.1-.8v.2l.1.2.2.3.3.6c.2.4.4.8.7 1.2.2.4.5.8.7 1.1s.5.7.8 1.1l.2.3.3.2c.1.1.2.1.3.2.1 0 .1.1.2.1h.2c.5.1 1 .1 1.4.1.9 0 1.9-.1 2.8-.2 1.9-.1 3.7-.4 5.6-.6 1.8-.2 3.7-.5 5.5-.8.5.2.9.4 1.4.6.5.2.9.5 1.4.7.2.1.4.3.7.4.2.1.4.3.6.4.4.3.8.6 1.1 1l.4.5-.1-.5zm-1.2-1.1c-.4-.3-.9-.6-1.3-.8-.9-.5-1.8-1-2.8-1.4-1.8.2-3.7.5-5.6.7-1.9.2-3.7.4-5.6.6-.9.1-1.9.2-2.8.2-.5 0-.9 0-1.4-.1H111.9c-.1-.1-.2-.1-.3-.2l-.2-.2-.2-.2c-.6-.7-1.1-1.4-1.6-2.2-.2-.4-.5-.8-.7-1.1l-.3-.6-.2-.3-.1-.2v-.1l-.1-.1c.4.3.7.6 1.1.8l1.1.8.4.3-.3-.4-1.3-1.8 2.6.1 2.9.1c.9 0 1.9.1 2.9.1l2.9.1h.9l-.8-.4-.3-.2 1.3.1 2.3.1 4.6.2h.1l.1-.1.1-.2 1.9 3.6 1 1.9c.3.5.5 1 .8 1.5-.2-.2-.5-.4-.8-.6zm-20.4-5.6c.5.3 1 .6 1.6.8s1 .6 1.5.9l1.5.9 1.5.9-.3.2c-.2-.6-.4-1.3-.7-1.9l-.1-.4.3.3c.6.4 1.1.8 1.7 1.3-.6-.3-1.2-.7-1.8-1.1l.2-.2c.3.6.5 1.2.8 1.9l.2.6-.5-.3-1.5-.9c-.5-.3-1-.6-1.5-1s-1-.7-1.4-1c-.5-.3-1-.7-1.5-1zm9.6.3c.7.3 1.4.7 2.1 1.1s1.3.8 2 1.2l-.3.2c-.2-.3-.3-.6-.5-.9-.2-.3-.3-.6-.5-.9l-.2-.4.5.2c.5.2 1 .3 1.5.5s.9.4 1.4.6c.5.2.9.5 1.4.8.4.3.9.6 1.2.9-.4-.3-.9-.5-1.3-.8-.5-.2-.9-.4-1.4-.6-.5-.2-.9-.4-1.4-.6-.5-.2-1-.3-1.4-.5l.3-.3c.2.3.3.6.4.9.2.3.3.6.4.9l.3.6-.6-.4c-.7-.4-1.3-.8-1.9-1.3-.7-.3-1.4-.7-2-1.2z" fill="#000000" stroke-width="none" opacity="1" stroke="none"></path></g></g></g><g id="svga-group-beardwrap"><g id="svga-group-beard-single-move" transform="matrix(1,0,0,1,0.5,0)"><g id="svga-group-beard-single"></g></g></g><g id="svga-group-mustache-single-move" transform="matrix(1,0,0,1,0,0)"><g id="svga-group-mustache-single"></g></g><g id="svga-group-nose-single-move" transform="matrix(1,0,0,1,0,0)"><g id="svga-group-nose-single" transform="matrix(0.8499993000000002,0,0,0.8499993000000002,14.952073255020125,15.423523399751645)"><path id="SvgjsPath13952" d="M109.17 110.81c-.53.26-3.47.14-4.2-.24 0 0 .03 2.05-.87 2.91-.9.87-3.09 1.28-4.65 1.28-1.56 0-3.99-.31-4.47-1.21-.49-.9-.59-2.81-.59-2.81s-1.8.28-2.5.1c-.69-.17-2.67-.83-3.02-3.05-.35-2.22.42-3.99 1.94-5.06 1.53-1.07 5.51-1.94 10.68-1.66s6.93 1.32 7.97 1.98c1.04.66 1.53 3.22 1.11 4.82s-.63 2.56-1.4 2.94z" fill="#391f10" stroke-width="none" opacity="1" stroke="none"></path><path id="SvgjsPath13953" d="M93.99 90.35c.55.63.95 1.39 1.25 2.17.3.79.49 1.62.55 2.47.08.85-.01 1.71-.22 2.53-.19.83-.59 1.6-1.08 2.27.16-.83.35-1.59.4-2.39.07-.78.08-1.57.01-2.35-.06-.78-.17-1.56-.33-2.34-.16-.78-.35-1.56-.58-2.36z" fill="#0b0400" stroke-width="none" opacity="1" stroke="none"></path><path id="SvgjsPath13954" d="M105.98 110.78c.88.1 1.8.14 2.62-.08.1-.03.2-.06.29-.1.09-.03.14-.08.22-.14.14-.12.27-.28.38-.45.23-.34.4-.74.55-1.14.56-1.61.54-3.45-.32-4.88-.22-.37-.44-.67-.77-.92-.32-.26-.7-.46-1.1-.65-.8-.36-1.66-.62-2.53-.79-1.75-.35-3.56-.42-5.35-.37-1.79.06-3.58.19-5.33.43-.88.12-1.69.32-2.44.71-.75.38-1.44.88-2.01 1.49-.57.6-1 1.34-1.17 2.12-.08.39-.09.79-.01 1.18.08.42.2.83.36 1.22.32.77.83 1.49 1.56 1.92.37.21.77.36 1.2.44.43.08.87.07 1.32.04l.02.09c-.87.23-1.86.23-2.74-.18-.88-.4-1.55-1.17-1.98-2.02-.21-.43-.37-.88-.49-1.34-.13-.48-.14-1.01-.07-1.5.15-1 .67-1.88 1.31-2.6a7.198 7.198 0 0 1 3.66-2.17c.47-.11.93-.17 1.39-.23 1.82-.2 3.64-.19 5.44-.08 1.81.11 3.6.28 5.39.55.89.14 1.79.3 2.67.59.44.15.88.34 1.29.6.21.13.4.29.59.47.18.2.31.38.45.59.54.81.81 1.79.83 2.74.03.96-.16 1.91-.52 2.78-.18.44-.41.86-.71 1.24-.15.19-.32.38-.53.53-.1.08-.24.15-.37.19-.12.03-.24.07-.36.08-.48.09-.95.05-1.4 0-.46-.06-.9-.15-1.34-.29v-.07z" fill="#0b0400" stroke-width="none" opacity="1" stroke="none"></path><path id="SvgjsPath13955" d="M91.77 110.11c.15-.48.59-.89 1.13-.97.26-.04.54-.05.82.07.28.12.49.36.61.6.25.5.32 1.02.42 1.51.09.49.16.98.3 1.42.14.44.36.81.67 1.01.14.1.38.17.59.25.22.07.45.13.68.18.93.19 1.9.27 2.86.22.96-.03 1.92-.17 2.79-.5.43-.16.81-.39 1.11-.7.3-.31.51-.7.65-1.14.14-.44.2-.92.27-1.41.04-.25.06-.5.14-.78.04-.14.1-.28.21-.43.06-.06.13-.12.19-.17.07-.04.14-.07.21-.1.27-.1.54-.12.81-.12s.53.04.78.12c.25.08.5.21.67.43.17.23.13.53.02.75.08-.24.05-.51-.12-.66-.16-.16-.39-.24-.62-.28-.46-.08-.97-.03-1.35.16-.2.1-.24.2-.29.42-.04.21-.05.46-.06.71-.02.5-.05 1.02-.18 1.55-.12.52-.36 1.05-.75 1.48-.38.43-.87.74-1.36.95-1 .41-2.04.57-3.07.61-1.03.03-2.07-.05-3.09-.29-.25-.06-.51-.14-.76-.23-.25-.1-.5-.19-.77-.37-.53-.37-.77-.95-.9-1.47-.13-.53-.17-1.04-.21-1.53-.04-.49-.08-.99-.24-1.4-.08-.21-.2-.38-.37-.48-.17-.11-.41-.13-.64-.13-.45-.01-.91.28-1.15.72z" fill="#0b0400" stroke-width="none" opacity="1" stroke="none"></path><path id="SvgjsPath13956" d="M107.55 103.22c-1.63-1.1-3.85-1.18-5.75-1.28-2.45-.13-5.23-.3-7.55.58-.1.04-.08.17.02.18 2.66.27 5.36-.21 8.06.06 2.11.21 4.28.38 5.6 2.32 1.15 1.68.54 3.21.3 4.98-.03.22.19.37.37.22 2.19-1.85 1.09-5.61-1.05-7.06z" fill="#412515" stroke-width="none" opacity="1" stroke="none"></path></g></g><g id="svga-group-hair-front"><path id="SvgjsPath13827" d="M62.6 77.5s-2.3-1.4-3.2-4.8c0 0-2.2-4.3-2.4-7-.2-2.7.2-6.5.2-6.5s-.6-2.6 0-4.7.8-4.7 2.7-5.8c0 0 1-5.2 3-7.9 0 0 1.9-4.2 6.4-5 0 0-.1-1.8 5.2-4.4 0 0 .9-2.1 5.5-2.1 0 0 2.5-2.3 6.3-2.2 0 0 2.8-1.7 5.6-.5 0 0 .5-1.5 4.9-.8 0 0 2.9-2 7.2.7 0 0 2.1-1.6 4.7-.1 0 0 2.2-.7 5.6.6 0 0 3.4-.3 6.1 2.2 0 0 3.9-.2 5.9 2.6 0 0 2.9.3 5.1 3.8 0 0 3.9.9 6.3 5.2 0 0 1.9 4.1 3 8 0 0 3.5 4 2.5 11 0 0 1.4 4.7-2.2 12.8 0 0-.6 3.3-3.1 4.8 0 0-1.4-5.6.5-11.4 0 0-1.3-4.3-.6-7.8 0 0-.6.6-1.2.1s-2.9-6-2.9-6-2.7-1-3.4-5.1c0 0-3.1-.1-6-3.1 0 0-2.7-.7-4.6-3.3 0 0-2.7.2-4.8-.6 0 0-1.9 1.4-5.2-.2 0 0-1.9 1.3-5.4.6 0 0-4.3 1-6.4-.9 0 0-3.9 1.8-6.1.6 0 0-4 1.2-5.7.3 0 0-3 .4-5.2.7 0 0-1.2 2.2-4.3 2.8 0 0-1.5 2.2-5.6 3.1 0 0-.8 3.9-3.6 5.2 0 0-2.2 5.4-3.2 5.8-1 .4-1.4-.1-1.4-.1s1 3.5-.1 7.2c-.5 0 1.3 7-.1 12.2z" fill="#000000" stroke-width="none" opacity="1" stroke="none"></path><path id="SvgjsPath13828" d="M80.2 41c-.3 0-.4.1-.7.4-.3.3-.6.7-.9 1-.6.6-1.4.9-2.1 1.4-2.4-3.7-2.7-7.2-1.5-11.5.1-.3-.3-.5-.5-.2-2 3.9-1.1 9.1 1.7 12.4.2.2.4.1.5-.1.9-.2 1.6-.6 2.3-1.2.5-.4 1.7-1.2 1.4-2 0-.1-.1-.2-.2-.2zm-4.6 3.2c-.8.5-1.4 1.2-2.2 1.6-.9.5-1.8.7-2.8 1-.4-1.7-.9-3.4-1.1-5.2-.2-2 .1-4 .2-6 1.1-1.5 2.3-2.6 4.2-3.2.2-.1.2-.5-.1-.5-2.2.1-4.3 1.6-5.1 3.7v.1h-.1c-2.6.3-4.8 2.5-6.1 4.7-.2.4.4.8.6.4 1.4-2.3 3.4-3.4 5.6-4.6-.7 3.6-.3 7.5 1.1 11 0 .1.1.1.1.1-.4 1.2-.7 2.2-1.5 3.2-.4.5-.8.9-1.3 1.3-.2.1-.3.2-.4.3-1.3-3.7-1.9-7.4-2.8-11.2-.1-.2-.4-.2-.4.1-.3 3.9 1.1 8.1 2.9 11.5l-.1.1c-1.1 1.7-2 3.5-2.9 5.3v.3c-.2-.1-.5-.3-.7-.5 0-.2-.1-.3-.2-.5s-.3-.2-.5-.1c-3.7-3.8-1.5-11.9 1-15.6.3-.4-.4-.8-.7-.4-1.5 2.2-2.5 4.7-2.8 7.3-.1 0-.2 0-.3.1-2.1 3-3.3 6.9-2.6 10.5.1.4.7.3.7-.1 0-3.5.4-6.5 2-9.5 0 .9 0 1.8.1 2.7.2 2.1.8 4.5 2.5 5.8.1 1.1.3 2.3.3 3.4 0 1.2-.2 2.4-.4 3.6h-.1c-.8-.8-1.6-1.5-2.2-2.3-.8-1-1.3-2.2-1.9-3.3-.1-.2-.4-.1-.5.1-.1 0-.2.1-.2.2-1 3.9-.4 9.9 2.3 13 .2.2.5 0 .4-.2-.5-2-1.5-3.8-1.9-5.8-.4-2-.3-3.9-.3-5.9.7 2.1 2.4 4.3 4.1 5.3 1.1 3.5 1.2 7.2.9 10.9-.5-.5-1-1-1.4-1.6-.5-.7-1-1.5-1.3-2.3-.1-.3-.6-.1-.5.2.6 1.8 1.6 3.8 3.2 4.9.4.3.8-.3.5-.6l-.1-.1c.9-4.1.5-8-.5-12 .6-2.1 1-4.6.5-6.8.1.1.3.1.4.2.2 0 .3-.1.3-.2.2.1.4.1.6-.2 1-1.8 2-3.6 2.7-5.5.9-.2 1.8-1.4 2.3-2.1.6-.9 1.2-2 1.4-3.1h.1c1.9-.2 4.2-1.3 5.3-3 .2-.3-.1-.7-.3-.5zm20-4.7c-.4-.5-.7-1.1-.9-1.7-.3-.6-.4-1.2-.7-1.8-.1-.2-.4-.1-.4.1.1 1.3.9 2.6 1.7 3.6.1.2.5 0 .3-.2zm-8.8-4.7c0 1.3.6 2.3 1.4 3.3.2.2.5-.1.4-.3-.5-1-.9-2-1.3-3-.1-.3-.5-.3-.5 0zM82.2 36c-.2-.3-.6 0-.4.3.5 1.1 1.2 2.6 2.4 3.2.2.1.5-.1.4-.4-.3-.5-.8-1-1.2-1.5-.5-.5-.8-1-1.2-1.6zm-7.4 3.3c.2 1.2.7 2.5 1.7 3.4.2.1.4 0 .3-.2-.6-1.1-1.3-2-1.7-3.2-.1-.3-.4-.2-.3 0zm-4.7.1c.1 1.9.3 4.2 1.5 5.7.2.3.6.1.6-.2-.5-1.9-1.3-3.5-1.5-5.5-.1-.3-.6-.4-.6 0zm32.9.9c-.5 0-1.1 0-1.6.1.1-.1.1-.2 0-.3-.2-.2-.3-.5-.4-.7.1.1.3.2.4 0 .3-.6.6-1.2.8-1.9 0-.2-.2-.3-.3-.2-.4.5-.7 1.2-.9 1.8v.2c-.1-.2-.2-.4-.3-.7-.2-.5-.4-1-.7-1.5-.1-.2-.5-.1-.5.1 0 1.2.8 2.3 1.5 3.1-.3 0-.5 0-.8-.1-.9-.2-1.8-.6-2.6-1.1 1.8-4.5 1.5-9.6-.7-13.9-.1-.3-.4-.2-.6-.1-.8 0-1.6.1-2.3.2-.6.1-1.1.1-1.6.3-.2-.1-.4-.1-.5.1-1.8 4.3-2.5 9.1-1.1 13.6-.7.2-1.4.6-2.2.7h-.3c-1.1-2.2-1.7-4.5-2.4-6.8-.1-.2-.4-.2-.4 0-.1 2.5.9 4.8 2.3 6.9-.6 0-1.2 0-1.8-.2-.2-2.1-.7-4.1-.6-6.2.1-2.3.6-4.4 1.1-6.6.1 0 .2-.1.2-.1h.2c1.5-.6 2.8-.8 4.4-.6.3 0 .3-.5.1-.5-1.5-.6-3.4-.4-4.8.5 0 0-.1 0-.1.1-.1 0-.2 0-.3.1-2.2-.3-4.5.7-6 2.2-.1 0-.1.1-.1.2-1.9-.4-4.5.7-5.8 2-.3.3.1.8.4.6.9-.6 1.7-1.1 2.8-1.5.7-.2 1.5-.3 2.2-.4-.4 3.6-.2 7.3.9 10.7l.1.1c-.2.2-.2.6.2.7 1.4.5 3.4.2 4.6-.9l.1.1c0 .1 0 .1.1.2 1.6.7 4 .8 5.4-.5 0 .1.1.2.1.3.1.2.3.1.3-.1l.1.1c1 .3 2.1.4 3.1.3.8-.1 1.8-.2 2.4-.7.1 0 .1 0 .2-.1l.1-.1c.1-.1.1-.1.1-.2v-.1c1.3 1.3 4.1 2.4 5.8 1.2 0-.1-.1-.4-.3-.4zm-22 .1h-.1c-.2-1-.4-2-.5-3.1.2.4.5.8.8 1.2.5.6 1.3 1.4 2.1 1.8-.8.3-1.5.2-2.3.1zm3.1-.2c-.7-.7-1.6-1.2-2.3-2-.7-.7-1.2-1.6-1.6-2.5-.2-2-.2-3.9 0-5.9v-.2c.1 0 .2 0 .4-.1 1.6-1.3 3.2-1.8 5.1-2-1.5 3.7-1.8 8.5-.6 12.3-.3.1-.6.2-1 .4zm10-.1s0-.1-.1-.1c-1.7-2-2.4-4.2-2.7-6.8 0-.2-.4-.3-.4-.1-.5 2.5.5 5.2 2.3 7-.6 0-1.1-.1-1.6-.1-.2 0-.3.1-.3.2-1-4.8-1-9.3 1.2-13.9.6.1 1.2 0 1.7 0 .6-.1 1.3-.1 1.9-.2 1.9 4.5 2 8.9.6 13.6-.6.1-1.3.4-1.9.5-.2-.1-.5-.1-.7-.1zm3.4-14.2c1-.1 1.9-.4 2.9-.3.9.1 1.7.5 2.5.9.4.1.6-.4.4-.6-1.4-1.4-4.4-1.6-6-.3-.2.1 0 .3.2.3zm2.3 8.3c-.1.9.4 1.8 1 2.4.3.3.7-.1.4-.4-.5-.6-.6-1.4-1-2 0-.2-.4-.2-.4 0zM66.3 46.5c-.1-.2-.5-.1-.4.2.4 1.2 1.9 2.6 3.3 2 .1 0 .1-.2 0-.2l-1.5-.6c-.6-.4-1.1-.9-1.4-1.4zm.4-2.8c-.3-.5-.6-.9-.8-1.5-.1-.3-.7-.2-.6.2.3 1 .9 2.6 2 3 .3.1.5-.2.3-.5-.1-.4-.6-.7-.9-1.2zm-4.3 8c-.2-.3-.6 0-.5.3.4.8 1.4 1.8 2.4 1.7.2 0 .3-.3.1-.4-.4-.2-.8-.3-1.1-.5-.4-.3-.7-.7-.9-1.1zM60 59.2c-.1 0-.1.1 0 .1s.1-.1 0-.1zm59.6-18.6c1.2-3.5 1.4-7.2 1-10.8.8.1 1.5.2 2.2.4 1 .3 1.9.9 2.8 1.5.3.2.7-.3.4-.6-1.3-1.3-3.9-2.4-5.8-2 0 0-.1-.1-.1-.2-1.5-1.5-3.8-2.4-6-2.2-.1-.1-.2-.1-.3-.1 0 0-.1 0-.1-.1-1.3-.9-3.2-1.1-4.7-.6h-.1c-2.1-.7-5.2-1.1-6 1.6-.4 1.5 0 3.5.1 4.9.2 2.5.3 4.9.6 7.4 0 .2.4.2.4 0-.1-2.5-.2-4.9-.4-7.4-.1-1-.3-2.2-.2-3.2.3-3.2 2.2-3.3 4.6-2.7 0 .1-.1.2 0 .3.7 4.2 1.1 8.2 1 12.5-.9.2-1.6.8-2.5.9-1 .2-2 .1-2.9-.2-.3-.1-.6.4-.2.6 1.6.8 4.3.9 5.8-.4 1.4 1.2 3.8 1.1 5.4.4.1 0 .1-.1.1-.2 0 0 .1 0 .1-.1 1.2 1.1 3.1 1.4 4.6.9.3 0 .4-.4.2-.6zm-7.2-.3c1.3-2 2.3-4.4 2.3-6.9 0-.2-.3-.3-.4 0-.7 2.3-1.3 4.6-2.4 6.8h-.3c-.7-.1-1.3-.5-2-.7.5-4.2.3-8.7-.7-12.8.1 0 .2-.1.3-.1 1.5-.1 2.8 0 4.2.6h.2c.1.1.1.1.2.1.5 2.2 1 4.3 1.1 6.6.1 2.1-.4 4.1-.6 6.2-.7.2-1.3.3-1.9.2zm2-12.8c1.9.2 3.5.7 5.1 2 .1.1.2.1.4.1 0 0-.1.1 0 .2.2 2 .2 4 0 5.9-.4.9-1 1.8-1.6 2.5-.7.8-1.6 1.3-2.3 2-.3-.1-.7-.3-1-.5 1.2-3.8.9-8.5-.6-12.2zm2.5 12.9c.8-.4 1.5-1.2 2.1-1.8.3-.4.6-.8.8-1.2-.1 1-.3 2-.5 3.1h-.1c-.8 0-1.6.1-2.3-.1zm8.7-8.4c-.1-.3-.6-.1-.5.2 1.2 4.3.8 7.8-1.5 11.5-.7-.5-1.4-.8-2.1-1.4-.3-.3-.6-.5-.8-.8-.3-.3-.3-.5-.8-.5-.1 0-.2.1-.3.2-.2.8.9 1.6 1.4 2 .7.5 1.5 1 2.3 1.2.1.2.4.3.5.1 2.9-3.4 3.8-8.6 1.8-12.5zm16.7 34.7c-.4 2-1.4 3.8-1.9 5.8-.1.2.2.4.4.2 2.7-3.2 3.4-9.1 2.3-13 0-.1-.1-.2-.2-.2 0-.2-.3-.3-.4-.1-.6 1.1-1.1 2.2-1.9 3.3-.7.9-1.5 1.6-2.2 2.3h-.1c-.2-1.2-.4-2.4-.4-3.6 0-1.2.2-2.3.3-3.4 1.7-1.3 2.3-3.7 2.5-5.8.1-.9.1-1.8.1-2.7 1.6 3 2.1 6 2.1 9.5 0 .4.6.5.7.1.7-3.6-.5-7.6-2.6-10.5-.1-.1-.2-.1-.3-.1-.4-2.6-1.3-5.1-2.8-7.3-.3-.4-1 0-.7.4 2.5 3.7 4.7 11.8 1 15.6-.1-.1-.4-.1-.4.1-.1.2-.1.3-.2.5-.2.2-.4.3-.7.5V58c-.9-1.8-1.8-3.7-2.9-5.3 0-.1-.1-.1-.1-.1 1.8-3.4 3.2-7.6 2.9-11.5 0-.2-.4-.3-.4-.1-.9 3.8-1.5 7.5-2.8 11.2-.1 0-.1-.1-.2-.1-.6-.4-1.1-.9-1.5-1.4-.8-1-1.1-2-1.5-3.2l.1-.1c1.3-3.4 1.8-7.3 1.1-11 2.3 1.2 4.3 2.3 5.6 4.6.2.4.9 0 .6-.4-1.3-2.2-3.4-4.4-6.1-4.7h-.1v-.1c-.8-2.1-2.9-3.5-5.1-3.7-.3 0-.3.4-.1.5 1.9.6 3.1 1.6 4.2 3.2.1 2 .4 4 .2 6-.2 1.8-.7 3.4-1.1 5.2-1-.2-1.9-.5-2.8-1-.8-.5-1.5-1.1-2.2-1.6-.2-.2-.6.2-.4.4 1 1.7 3.4 2.8 5.3 3h.1c.1 1.1.7 2.2 1.4 3.1.5.7 1.4 1.9 2.3 2.1.7 1.9 1.7 3.8 2.7 5.5.1.2.4.3.6.2 0 .2.1.3.3.2.1 0 .3-.1.4-.2-.5 2.2-.1 4.6.5 6.8-1 4-1.4 7.9-.5 12l-.1.1c-.3.3.1.9.5.6 1.6-1.1 2.7-3.1 3.2-4.9.1-.3-.4-.5-.5-.2-.4.8-.8 1.6-1.3 2.3-.4.6-.9 1.1-1.4 1.6-.3-3.7-.2-7.4.9-10.9 1.8-1 3.4-3.2 4.1-5.3-.1 1.9-.1 3.8-.5 5.9zm-29.5-31.9c-.4 1-.8 2.1-1.3 3-.1.2.2.5.4.3.8-1 1.3-2 1.4-3.3 0-.3-.4-.3-.5 0zm3.2 4.7c1.2-.6 1.9-2.1 2.4-3.2.1-.3-.3-.6-.4-.3-.3.6-.7 1.1-1.1 1.7-.4.5-.9.9-1.2 1.5-.2.1 0 .4.3.3zm7.7 3.1c1-.8 1.5-2.1 1.7-3.4 0-.2-.2-.3-.3-.1-.4 1.2-1.1 2.2-1.7 3.2-.2.3.1.5.3.3zm4.9 2.5c1.1-1.6 1.4-3.8 1.5-5.7 0-.3-.5-.3-.5 0-.2 2-1 3.6-1.5 5.5-.2.3.3.5.5.2zm5.3 1.4c-.3.5-.8 1-1.3 1.3-.5.3-1 .4-1.5.6-.1 0-.1.2 0 .2 1.4.6 2.9-.8 3.3-2 0-.2-.4-.3-.5-.1zm.3-4.2c-.2.5-.5 1-.8 1.5-.3.4-.8.8-1 1.2-.1.2.1.6.4.5 1.1-.4 1.7-2 2-3 .1-.5-.4-.6-.6-.2zm1.6 11.4c1 .1 1.9-.9 2.4-1.7.2-.3-.3-.5-.4-.3-.2.4-.5.8-.9 1-.4.2-.8.3-1.1.5-.3.2-.2.5 0 .5zm-30.1-14c1.2-1.1 2.3-3 1.8-4.6-.1-.2-.5-.3-.5 0-.1.7-.1 1.4-.3 2.1-.2.8-.7 1.6-1.2 2.2-.3.2 0 .5.2.3zm-.6-7.1c.2.6.3 1.5.8 2 .1.1.3.1.3-.1.1-.7-.4-1.5-.6-2.1-.1-.2-.5-.1-.5.2zM139 57.7c-.2 1.4-.4 2.6-1 3.8-.1.3.3.5.4.2.7-1.2 1.2-2.7.9-4.1 0-.1-.2-.1-.3.1zm1.6 1.9c.1-.7.4-1.5.3-2.2 0-.2-.3-.4-.4-.1-.2.6-.3 1.2-.4 1.9-.1 0-.1.1 0 .1v.2c-.1.3.5.5.5.1z" fill="#000000" stroke-width="none" opacity="1" stroke="none"></path></g><g id="svga-group-glasses-single-move" transform="matrix(1,0,0,1,0,0)"><g id="svga-group-glasses-single" transform="matrix(1.1000004000000003,0,0,1.1000004000000003,-10.005040706648288,-9.060036468882785)"></g></g></g></g></g><rect id="svga-credit-rect" width="200" height="15" x="0" y="185" fill="#ecf0f1" opacity="0.5" style="display: none;"></rect><text id="svga-credit-text" font-family="Avenir Next, Roboto, Helvetica, Arial, sans-serif" font-size="10px" text-anchor="start" font-weight="400" size="10px" anchor="start" weight="400" fill="#333333" x="33.402061462402344" y="182.71133995056152" style="display: none;"><tspan id="SvgjsTspan13555" dy="13" x="33.402061462402344">Created on AvatarMaker.com</tspan></text></g><defs id="SvgjsDefs13502"></defs></svg>