<svg xmlns="http://www.w3.org/2000/svg" version="1.1" width="600px" height="600px" viewBox="0 0 200 200" style="overflow:hidden!important;"><g id="svga-group-wrapper"><g id="svga-group-backs-single"></g><g id="svga-group-humanwrap-move" transform="matrix(1,0,0,1,2,-4)"><g id="svga-group-humanwrap" transform="matrix(0.8499994000000002,0,0,0.8499994000000002,14.947562307710243,18.40033900862386)"><g id="svga-group-hair-back-move" transform="matrix(0.9986295346632303,-0.05233595798588117,0.05233595798588117,0.9986295346632303,-6.928307794416995,5.418608619052009)"><g id="svga-group-hair-back"></g></g><g id="svga-group-humanbody-back"><path id="SvgjsPath32192" d="M180.8 184.9c-2.3-3.4-38.9-17.8-38.9-17.8l-13.4-5.2-5.6-68.8H76.8L71.3 162l-13.4 5.2S21.4 181.6 19 185c-2.3 3.4-3.3 14.9-3.3 14.9V219h168.5v-19.2c-.1.1-1-11.5-3.4-14.9z" fill="#f0c7b1" stroke-width="none" opacity="1"></path></g><g id="svga-group-chinshadow-single"><path id="SvgjsPath32188" d="M85.7 157.38c2.95 2.5 14.4 2.34 17.66.34 3.2-1.96 8.57-7.52 22.92-23.62l-3.34-41H76.82l-4.05 50.95c6.27 6.89 11.03 11.73 12.93 13.33z" fill="#d19271" stroke-width="none" opacity="1"></path></g><g id="svga-group-humanbody-front"><path id="SvgjsPath32193" d="M184.5 219c-.1-6.4-.1-12.8-.1-19.2l-.3-.1s.1-.1.2 0c.1 0 .1.1.1.1v-.4l-.1-.5-.1-.9-.2-1.9c-.2-1.3-.4-2.5-.6-3.8-.2-1.3-.5-2.5-.9-3.8-.4-1.2-.8-2.5-1.5-3.6-.8-.9-1.9-1.5-2.9-2.1-1-.6-2.1-1.1-3.2-1.7-2.1-1.1-4.3-2.1-6.5-3.1-4.4-2-8.7-3.9-13.1-5.7-4.4-1.9-8.8-3.7-13.2-5.5l-13-5.2-1.2-16.9c-.4-5.7-.9-11.5-1.3-17.2l-1.3-17.2-1.5-17.3-.1-.8h-.8c-7.7 0-15.4.1-23.1.1l-23.1.2h-.5v.5L75 110.2l-1.3 17.2c-.8 11.4-1.8 22.8-2.8 34.2-5.6 2.1-11.2 4.2-16.7 6.4-5.6 2.2-11.2 4.5-16.8 6.9-2.8 1.2-5.6 2.4-8.3 3.6-2.8 1.3-5.5 2.5-8.2 4.1-.7.4-1.3.8-2 1.4-.2.1-.4.4-.5.6l-.3.6c-.2.4-.4.7-.5 1.1-.6 1.5-1 3-1.3 4.5-.6 3-1.1 6-1.4 9.1l-.1 19.1v.9h.9l42.1.1H100c14 0 28.1-.1 42.1-.2l42.1-.5h.3v-.3zm-84.5-1-42.1-.1-41.2.1-.1-18.1c.3-3 .6-5.9 1.2-8.9.3-1.4.6-2.9 1.1-4.2.1-.3.3-.7.4-.9l.2-.4.3-.3c.5-.4 1.1-.8 1.8-1.2 2.5-1.5 5.3-2.8 8-4.1 2.7-1.3 5.5-2.5 8.2-3.7 5.5-2.4 11.1-4.8 16.7-7.1s11.2-4.5 16.9-6.7l.2-.1v-.2c.9-11.5 1.7-23 2.7-34.4l1.4-17.2 1.5-16.7 22.6.2c7.4.1 14.8.1 22.3.1l1.3 16.4 1.5 17.2c.5 5.7 1 11.5 1.5 17.2l1.6 17.2v.3l.3.1 13.4 5c4.4 1.7 8.9 3.4 13.3 5.2 4.4 1.8 8.8 3.7 13.2 5.6 2.2 1 4.3 2 6.5 3 1.1.5 2.1 1.1 3.2 1.6 1 .6 2.1 1.2 2.9 2 .7 1.1 1.1 2.3 1.4 3.5.3 1.2.6 2.5.8 3.7.2 1.3.4 2.5.6 3.8l.2 1.9.1.9.1.5v.4c0 6.3 0 12.6-.1 18.9l-41.8-.5c-14 .1-28.1 0-42.1 0z" fill="#c27b55" stroke-width="none" opacity="1"></path><path id="SvgjsPath32194" d="M125.1 142.4s-1.8 23-9.1 32.9c0 0 7.9-25 9.1-32.9zm-34.5 16s5 7.9 11.5 10.1c0 0-9.5 2.2-11.5-10.1zM73.4 140c6.7 25.6 6.7 25.6 8.5 30.7 0 0 .4-12.6-8.5-30.7z" fill="#d19271" stroke-width="none" opacity="1"></path></g><g id="svga-group-clothes-single"><path id="SvgjsPath32436" d="M53.2 168.3s-14.6 5.6-17.9 7.1c0 0 6.1 11.9 6.1 43.9h115.3s-.3-24 7.4-43.6c0 0-13.9-6.2-16.9-6.9 0 0-6.3 18.4-10.4 25.3-4.2 6.9-44.7 4.9-60.6 4.1-12.2-.5-18.4-15.7-23-29.9z" fill="#2b2b2b" stroke-width="none" opacity="1"></path><path id="SvgjsPath32437" d="M164.5 174.9c-2.8-1.2-5.6-2.5-8.4-3.7l-4.2-1.8c-1.4-.6-2.8-1.1-4.4-1.6l-.9-.2-.3.9c-1.8 5-3.6 10-5.7 14.9-1 2.4-2.1 4.9-3.2 7.3l-.9 1.8c-.3.5-.6 1.2-.9 1.5-.7.7-1.9 1.3-3.1 1.7-2.4.8-5.1 1.2-7.7 1.6-2.7.3-5.3.5-8 .7-5.4.3-10.8.3-16.2.3-5.4 0-10.8-.2-16.2-.3l-8.1-.3c-2.6-.1-5.1-.9-7.3-2.3s-4-3.3-5.6-5.4c-1.6-2.1-2.9-4.4-4.2-6.8-1.2-2.4-2.3-4.8-3.3-7.3s-1.9-5-2.8-7.6c-.3.1-.4.1-.7.2l-.6.2-1.1.4-2.3.8-4.5 1.7-4.5 1.7c-1.5.6-3 1.1-4.5 1.8l-.4.2.2.5c1.4 3.3 2.3 7 3 10.6.7 3.6 1.2 7.3 1.6 11 .4 3.7.6 7.4.8 11.1l.2 5.6V220.5h.8c9.6.1 19.2 0 28.8 0l28.8-.3c4.8-.1 9.6-.1 14.4-.1l14.4-.1c9.6 0 19.2.1 28.8.2h.5v-.5c0-3.7.3-7.4.6-11 .4-3.7.8-7.3 1.5-11 .6-3.6 1.4-7.2 2.3-10.8.9-3.6 2.1-7 3.4-10.5l.3-.8-.4-.7zm-4.5 11.2c-.9 3.6-1.6 7.3-2.1 11s-.9 7.4-1.2 11.1c-.2 3.6-.4 7.1-.4 10.7-9.4.1-18.9.1-28.3.2l-14.4-.1c-4.8 0-9.6-.1-14.4-.1l-28.8-.3c-9.3 0-18.7-.1-28 0l-.1-4.8-.2-5.6c-.2-3.7-.5-7.4-1-11.2-.5-3.7-1.1-7.4-1.9-11.1-.8-3.5-1.7-7-3.2-10.3 2.8-1.3 5.6-2.4 8.4-3.6l4.4-1.8 2.2-.9 1.1-.5.6-.2c.2-.1.4-.1.5-.2.7 2.5 1.5 5 2.4 7.6.9 2.5 1.9 5 3 7.5 1.2 2.4 2.4 4.8 4 7s3.5 4.3 5.8 5.8c2.3 1.6 5.1 2.6 7.9 2.7l8.1.4c5.4.3 10.8.5 16.2.6 5.4.1 10.8.1 16.3-.1 2.7-.1 5.4-.3 8.2-.6 2.7-.4 5.4-.7 8.1-1.6 1.3-.5 2.7-1 3.9-2.2.6-.7.9-1.3 1.2-1.9l.9-1.8c1.2-2.4 2.3-4.9 3.3-7.4 1.9-4.7 3.6-9.4 5.3-14.2l3.3 1.2c1.4.6 2.8 1.1 4.2 1.7 2.6 1.1 5.1 2.2 7.6 3.3-1.1 3.1-2.1 6.4-2.9 9.7z" fill="#0c0c0c" stroke-width="none" opacity="1"></path></g><g id="svga-group-head" transform="matrix(0.9986295346632303,-0.05233595798588117,0.05233595798588117,0.9986295346632303,-6.928307794416995,5.418608619052009)"><g id="svga-group-ears-left-move" transform="matrix(1,0,0,1,0,0)"><g id="svga-group-ears-left"><path id="SvgjsPath32088" d="M68.53 80.36s-11.15-9.8-12.94-9.96c-1.54-.14-5.36 8.01-7.05 13.16-.45 1.36-.34 2.88.25 4.2 1.62 3.57 5.21 11.04 8.43 14.78 0 0 2.72.59 3.58.33.86-.25 7.58-5.67 8.27-7.77s.83-11.3-.54-14.74z" fill="#f0c7b1" stroke-width="none" opacity="1"></path><path id="SvgjsPath32089" d="M69.49 84.19c.18 1.31.28 2.64.33 3.96.05 1.32.06 2.65-.01 3.98a26.7 26.7 0 0 1-.17 1.99c-.05.34-.1.67-.2 1.02s-.28.7-.46.96c-.72 1.11-1.6 1.95-2.47 2.8-.88.84-1.78 1.63-2.71 2.4-.47.38-.93.75-1.42 1.11-.24.18-.49.35-.74.52l-.4.24c-.16.08-.35.17-.53.19-.67.08-1.23-.01-1.82-.09-.58-.08-1.15-.19-1.73-.32l-.13-.03-.08-.1c-1.45-1.74-2.63-3.68-3.74-5.65-1.1-1.98-2.1-4.03-3.06-6.1l-1.41-3.11c-.5-1.05-.71-2.29-.54-3.46.06-.59.26-1.14.44-1.67.18-.54.37-1.07.56-1.6.4-1.05.79-2.11 1.22-3.15.86-2.07 1.76-4.13 2.94-6.02.3-.47.62-.93 1-1.36.19-.21.4-.42.67-.59.13-.08.3-.16.52-.16.19.01.32.07.47.12 1.06.47 1.87 1.14 2.75 1.76 1.72 1.29 3.37 2.66 5 4.09 1.64 1.41 3.22 2.86 4.81 4.38.49 1.27.72 2.58.91 3.89zM58.4 72.51c-.85-.59-1.75-1.26-2.59-1.61-.09-.02-.2-.08-.26-.08-.04 0-.12.02-.2.07-.17.1-.35.25-.51.44-.34.36-.65.8-.94 1.24-1.16 1.8-2.18 3.77-3.11 5.77-.46 1.01-.92 2.02-1.32 3.06-.2.52-.4 1.04-.59 1.57-.19.53-.38 1.05-.45 1.6-.15 1.11.06 2.27.55 3.26.47 1.03.98 2.05 1.49 3.05 1.02 2.02 2.12 3.99 3.26 5.91 1.15 1.91 2.36 3.79 3.76 5.42l-.21-.13c1.09.2 2.3.43 3.29.33.11-.01.18-.06.28-.11l.35-.22.7-.5c.47-.34.93-.71 1.39-1.08.92-.74 1.81-1.52 2.68-2.34.85-.82 1.73-1.66 2.39-2.61.17-.25.29-.46.38-.72.08-.27.14-.58.19-.89.09-.63.17-1.27.21-1.91.1-1.29.14-2.6.15-3.9.01-1.31-.04-2.62-.15-3.92-.11-1.3-.27-2.62-.66-3.84-3.33-2.62-6.67-5.35-10.08-7.86z" fill="#e1ac8f" stroke-width="none" opacity="1"></path><path id="SvgjsPath32090" d="M68.79 88.66S58.04 75.08 56.02 76.21c-2.01 1.12-5.19 7.53-5.18 9.67.02 3.14 3.34 8.38 5.01 9.96s3.68 2.55 6.35 1.94c2.66-.61 6.59-9.12 6.59-9.12z" fill="#e1ac8f" stroke-width="none" opacity="1"></path><path id="SvgjsPath32091" d="M60.61 88.64c-.45-1.26-.95-2.5-1.45-3.74a49.61 49.61 0 0 0-1.66-3.64c-.61-1.18-1.22-2.36-1.97-3.45l-.08-.12-.08.12c-.75 1.18-1.45 2.38-2.12 3.62-.33.62-.66 1.25-.96 1.89-.31.64-.57 1.31-.84 1.98l-.04.1.04.12c.46 1.41.96 2.79 1.47 4.18.25.69.54 1.37.83 2.05.3.68.59 1.35.99 2.01l.19.31.25-.23c.34-.31.6-.65.87-1.02.26-.37.49-.76.69-1.17.4-.82.63-1.78.6-2.74v-.06l-.02-.04c-.5-.99-1.03-1.96-1.55-2.94l-.05.03c.42 1.01.83 2.03 1.26 3.03-.04.86-.3 1.68-.68 2.41-.33.62-.77 1.17-1.24 1.65-.26-.49-.5-1.02-.73-1.56l-.81-2.03c-.53-1.32-1.03-2.66-1.52-3.99.45-1.3.94-2.59 1.52-3.82.57-1.23 1.22-2.41 1.96-3.51.67 1.04 1.17 2.23 1.68 3.39l1.54 3.67 1.56 3.67c.52 1.22 1.05 2.45 1.6 3.66l.06-.03c-.41-1.27-.85-2.54-1.31-3.8z" fill="#c27b55" stroke-width="none" opacity="1"></path></g></g><g id="svga-group-ears-right-move" transform="matrix(1,0,0,1,0,0)"><g id="svga-group-ears-right"><path id="SvgjsPath32092" d="M131.47 80.36s11.15-9.8 12.94-9.96c1.54-.14 5.36 8.01 7.05 13.16.45 1.36.34 2.88-.25 4.2-1.62 3.57-5.21 11.04-8.43 14.78 0 0-2.72.59-3.58.33-.86-.25-7.58-5.67-8.27-7.77s-.83-11.3.54-14.74z" fill="#f0c7b1" stroke-width="none" opacity="1"></path><path id="SvgjsPath32093" d="M131.44 80.33c1.58-1.52 3.17-2.97 4.81-4.38 1.62-1.42 3.28-2.8 5-4.09.88-.63 1.69-1.29 2.75-1.76.16-.04.28-.11.47-.12.21 0 .38.08.52.16.28.17.49.37.67.59.38.43.7.89 1 1.36 1.18 1.89 2.07 3.96 2.94 6.02.43 1.04.82 2.09 1.22 3.15.19.53.38 1.06.56 1.6.18.53.37 1.08.44 1.67.17 1.17-.04 2.41-.54 3.46l-1.41 3.11c-.97 2.06-1.96 4.11-3.06 6.1-1.11 1.98-2.29 3.92-3.74 5.65l-.08.1-.13.03c-.58.13-1.15.23-1.73.32-.59.07-1.16.16-1.82.09-.18-.02-.37-.11-.53-.19l-.4-.24c-.25-.17-.5-.34-.74-.52-.48-.36-.95-.73-1.42-1.11-.93-.76-1.83-1.56-2.71-2.4-.87-.86-1.75-1.69-2.47-2.8a3.42 3.42 0 0 1-.46-.96c-.1-.35-.14-.69-.2-1.02-.08-.67-.14-1.33-.17-1.99-.07-1.33-.07-2.65-.01-3.98.06-1.32.15-2.65.33-3.96.17-1.34.4-2.65.91-3.89zm.06.06c-.4 1.21-.56 2.54-.66 3.84-.1 1.3-.15 2.61-.15 3.92.01 1.31.06 2.61.15 3.9.05.65.12 1.29.21 1.91.06.31.11.62.19.89.09.26.2.47.38.72.66.94 1.54 1.79 2.39 2.61.86.81 1.76 1.59 2.68 2.34.46.37.92.73 1.39 1.08l.7.5.35.22c.1.05.17.1.28.11.99.1 2.2-.13 3.29-.33l-.21.13c1.4-1.63 2.61-3.51 3.76-5.42 1.14-1.92 2.24-3.89 3.26-5.91.51-1.01 1.02-2.02 1.49-3.05.49-.99.7-2.15.55-3.26-.07-.56-.26-1.07-.45-1.6s-.38-1.05-.59-1.57c-.4-1.04-.86-2.06-1.32-3.06-.93-2.01-1.95-3.97-3.11-5.77-.29-.44-.6-.88-.94-1.24-.17-.18-.35-.34-.51-.44a.431.431 0 0 0-.2-.07c-.06 0-.17.06-.26.08-.84.35-1.74 1.02-2.59 1.61-3.39 2.49-6.73 5.22-10.08 7.86z" fill="#e1ac8f" stroke-width="none" opacity="1"></path><path id="SvgjsPath32094" d="M131.21 88.66s10.75-13.58 12.77-12.45c2.01 1.12 5.19 7.53 5.18 9.67-.02 3.14-3.34 8.38-5.01 9.96s-3.68 2.55-6.35 1.94c-2.66-.61-6.59-9.12-6.59-9.12z" fill="#e1ac8f" stroke-width="none" opacity="1"></path><path id="SvgjsPath32095" d="M148.54 85.31c-.26-.67-.52-1.34-.84-1.98-.3-.64-.62-1.27-.96-1.89-.67-1.24-1.38-2.44-2.12-3.62l-.08-.12-.08.12c-.74 1.1-1.36 2.27-1.97 3.45-.6 1.18-1.14 2.4-1.66 3.64-.49 1.24-1 2.48-1.45 3.74-.46 1.26-.9 2.53-1.28 3.81l.06.03c.55-1.21 1.07-2.44 1.6-3.66l1.56-3.67 1.54-3.67c.51-1.16 1.01-2.35 1.68-3.39.74 1.1 1.39 2.29 1.96 3.51.58 1.24 1.08 2.52 1.52 3.82-.5 1.34-.99 2.67-1.52 3.99l-.81 2.03c-.23.53-.47 1.07-.73 1.56-.47-.48-.91-1.03-1.24-1.65-.39-.73-.64-1.55-.68-2.41.43-1 .84-2.02 1.26-3.03l-.05-.03c-.52.98-1.05 1.95-1.55 2.94l-.02.04v.06c-.03.96.2 1.92.6 2.74.2.41.43.81.69 1.17.26.36.53.71.87 1.02l.25.23.19-.31c.4-.67.69-1.34.99-2.01.29-.68.57-1.36.83-2.05.51-1.38 1.01-2.77 1.47-4.18l.04-.12-.07-.11z" fill="#c27b55" stroke-width="none" opacity="1"></path></g></g><g id="svga-group-faceshape-wrap"><g id="svga-group-faceshape-single"><path id="SvgjsPath32174" d="M140.4 54.9c-2.2-10-6.3-16-15.2-20.8-9.3-5-25.2-4.8-25.2-4.8s-15.9-.2-25.2 4.8c-8.8 4.8-13 10.8-15.2 20.8-.9 4 0 13.6 0 13.6s1.6 12.3 1.7 18.2c.2 5.8 1.4 18 2.2 25.1.98 7.08 1.46 7.68 1.46 7.68 12.25 14.4 22.69 25.32 25.74 27.9 2.95 2.5 14.4 2.34 17.66.34 3.46-2.12 9.44-8.42 26.53-27.68 0 0 .27-1.05 1.07-8.15s2.13-16.31 2.54-25.19c.2-5.8 1.7-18.2 1.7-18.2.1-.1 1.1-9.6.2-13.6z" fill="#f0c7b1" stroke-width="none" opacity="1"></path><path id="SvgjsPath32175" d="M140.4 54.9c-2.2-10-6.3-16-15.2-20.8-9.3-5-25.2-4.8-25.2-4.8s-15.9-.2-25.2 4.8c-8.8 4.8-13 10.8-15.2 20.8-.9 4 0 13.6 0 13.6s1.6 12.3 1.7 18.2c.2 5.8 1.4 18 2.2 25.1.98 7.08 1.46 7.68 1.46 7.68 12.25 14.4 22.69 25.32 25.74 27.9 2.95 2.5 14.4 2.34 17.66.34 3.46-2.12 9.44-8.42 26.53-27.68 0 0 .27-1.05 1.07-8.15s2.13-16.31 2.54-25.19c.2-5.8 1.7-18.2 1.7-18.2.1-.1 1.1-9.6.2-13.6zm-.03 10.19-.33 3.24-.06.13c-.55 4.29-1.13 8.57-1.59 12.87-.24 2.14-.41 4.33-.56 6.47-.17 2.14-.39 4.28-.63 6.42-.49 4.28-1.14 8.54-1.72 12.82-.3 2.13-.6 4.3-.86 6.43l-.43 3.2-.23 1.59-.13.78-.08.41-10.86 12.02c-3.72 4.04-7.41 8.17-11.32 11.92-.98.92-1.98 1.83-3 2.6-.25.2-.51.36-.77.54-.14.1-.57.32-.71.37-.53.22-1.14.39-1.76.52-2.52.53-5.25.65-7.89.51-1.32-.09-2.64-.24-3.86-.56-.6-.16-1.19-.36-1.66-.61-.1-.07-.51-.34-.64-.46-.25-.21-.49-.43-.74-.66-1.98-1.83-3.9-3.82-5.82-5.78-3.83-3.94-7.58-7.98-11.27-12.06l-5.53-6.13-1.36-1.54-.68-.77-.17-.19s-.17-.3-.2-.42c-.36-1.24-.61-2.62-.85-3.96-.5-2.7-.79-5.41-1.12-8.16-.31-2.74-.65-5.47-.9-8.22-.26-2.74-.51-5.49-.7-8.23-.21-2.73-.23-5.5-.48-8.26-.21-2.76-.48-5.5-.78-8.25-.27-2.76-.67-5.47-.76-8.21-.12-2.74-.16-5.5.06-8.19.06-.67.14-1.34.28-1.97.14-.64.33-1.31.49-1.97.37-1.31.78-2.6 1.27-3.85.98-2.51 2.25-4.89 3.93-6.95 1.64-2.09 3.68-3.83 5.88-5.34 1.1-.76 2.26-1.43 3.44-2.08 1.16-.62 2.38-1.12 3.64-1.58 2.52-.9 5.16-1.51 7.83-1.97 2.67-.48 5.38-.8 8.09-1 2.72-.21 5.43-.32 8.16-.24 5.45.14 10.94.63 16.2 2.02 2.64.7 5.16 1.68 7.52 3.07 2.36 1.36 4.6 2.96 6.51 4.92 1.86 1.99 3.45 4.26 4.57 6.77 1.14 2.5 1.94 5.14 2.54 7.83.23 1.1.29 2.24.33 3.37.03 1.13.01 2.27-.03 3.4-.1 1.13-.16 2.26-.26 3.39z" fill="#c27b55" stroke-width="none" opacity="1"></path></g></g><g id="svga-group-mouth-single-move" transform="matrix(1,0,0,1,0,0)"><g id="svga-group-mouth-single"><path id="SvgjsPath32283" d="M119.9 121.9c-.2-.3-.6-.6-.9-.8-.3-.1-.8-.1-.8.4 0 .3.2.6.5.8-.66 1.22-2.4 1.46-3.8 1.56-1.5.1-2.71.22-4.49-.17-3.42-.92-6.52-1.82-9.62-1.62-2.9.1-5.13.98-7.93 1.78-3.3.9-7.66 2.74-9.96-.66.3-.2.6-.4.8-.7.4-.4 0-1-.5-.9-1 .3-2.3 1.6-2.2 2.7 0 .2.3.4.5.3.4-.3.7-.7 1-1 .9 1.7 2.7 2.5 4.7 2.7 2 .1 3.9-.5 5.9-.9 2.2-.5 4.4-.7 6.6-.8 4.1-.1 8.1.2 12.2.4 2.4.1 5.7.4 7.5-1.5.1.3.2.6.5.8.1.1.3 0 .4-.1.7-.59 0-1.69-.4-2.29z" fill="#da7c87" stroke-width="none" opacity="1"></path><path id="SvgjsPath32284" d="M105.6 128.4c-3.4.2-6.6.7-10 .5-.3 0-.3.4-.1.4 3.2.7 7 .9 10.2-.2.4-.1.4-.7-.1-.7z" fill="#d19271" stroke-width="none" opacity="1"></path></g></g><g id="svga-group-eyes-left-move" transform="matrix(1,0,0,1,0,0)"><g id="svga-group-eyes-left" transform="matrix(0.9499998000000001,0,0,0.9499998000000001,4.010015887411498,4.36501723111725)"><g id="svga-group-eyesback-left"><path id="SvgjsPath32130" d="M80.2 74.2c7.5 0 13.5 5.8 13.5 13s-6 13-13.5 13-13.5-5.8-13.5-13 6-13 13.5-13z" fill="#ffffff" stroke-width="none" opacity="1"></path></g><g id="svga-group-eyesiriswrapper-left" transform="matrix(1,0,0,1,0,0)"><g id="svga-group-eyesiriscontrol-left" transform="matrix(1,0,0,1,0,0)"><g id="svga-group-eyesiris-left"><path id="SvgjsPath32209" d="M80.2 81.9c2.9 0 5.3 2.4 5.3 5.3s-2.4 5.3-5.3 5.3-5.3-2.4-5.3-5.3 2.4-5.3 5.3-5.3z" fill="#3e4442" stroke-width="none" opacity="1"></path><path id="SvgjsPath32210" d="M80.2 92.8c-3.1 0-5.6-2.5-5.6-5.6s2.5-5.6 5.6-5.6 5.6 2.5 5.6 5.6c0 3.1-2.5 5.6-5.6 5.6zm0-10.6c-2.8 0-5.1 2.3-5.1 5.1s2.3 5.1 5.1 5.1 5.1-2.3 5.1-5.1c-.1-2.9-2.3-5.1-5.1-5.1z" fill="#1b2522" stroke-width="none" opacity="1"></path><path id="SvgjsPath32211" d="M80.2 84.3c1.6 0 2.9 1.3 2.9 2.9s-1.3 2.9-2.9 2.9-2.9-1.3-2.9-2.9 1.3-2.9 2.9-2.9z" fill="#000000" stroke-width="none" opacity="1"></path><path id="SvgjsPath32212" d="M78.9 84.3c.5 0 1 .4 1 1s-.4 1-1 1-1-.4-1-1 .5-1 1-1zm3.3 4.6c.2 0 .4.2.4.4s-.2.4-.4.4-.4-.2-.4-.4.2-.4.4-.4z" fill="#ffffff" stroke-width="none" opacity="1"></path></g></g></g><g id="svga-group-eyesfront-left"><path id="SvgjsPath32138" d="M80.2 73.7c-7.8 0-14.1 6.1-14.1 13.6s6.3 13.6 14.1 13.6 14.1-6.1 14.1-13.6S88 73.7 80.2 73.7zm4.1 20.2c-3.8 1.7-7.2.9-9.8-.2-2.3-1-5.7-4.6-6.4-5.4 1.8-1.2 5.3-3.5 6.3-4 1.2-.7 7-1.6 10-.9 2 .5 4.5 2.8 5.9 4.3-.7 1.1-2.5 4.6-6 6.2z" fill="#f0c7b1" stroke-width="none" opacity="1" stroke="none"></path><path id="SvgjsPath32139" d="M91.5 89.2V89c0-1.2-.1-2.3-.3-3.5-.1-.6-.2-1.2-.4-1.7-.2-.6-.4-1.1-.7-1.6-.6-1-1.3-1.9-2.1-2.8s-1.5-1.8-2.4-2.6h-.1c-1-.3-2-.6-3.1-.8s-2.1-.4-3.2-.4c-.5 0-1.1 0-1.6.1-.6.1-1.1.3-1.6.6-1 .5-1.8 1.2-2.5 2s-1.4 1.7-1.9 2.5c-.6.9-1.2 1.7-1.8 2.6-1.1 1.8-2.3 3.6-2.8 5.7l.9-.6c1.5 1.7 3 3.3 4.9 4.7.5.3 1 .7 1.6.9.5.2 1.1.4 1.7.6 1.1.3 2.3.5 3.5.6 2.4 0 4.8-.7 6.7-2.2.9-.7 1.7-1.6 2.4-2.6.6-.8 1.1-1.8 1.6-2.7.4.4.8.8 1.1 1.2l.1.2zm-2-.3c-.3.5-.7.9-1 1.4-.7.9-1.5 1.7-2.5 2.4-.9.7-2 1.1-3.1 1.4-1.1.3-2.2.5-3.4.5-1.1 0-2.3-.2-3.4-.5-.6-.2-1.1-.3-1.6-.6-.5-.2-1-.5-1.5-.8-.9-.7-1.8-1.4-2.7-2.2-.8-.7-1.5-1.5-2.2-2.2l4.8-3 1.5-.9c.5-.2 1.1-.3 1.6-.5 1.1-.2 2.3-.4 3.4-.5 1.2-.1 2.3-.1 3.4-.1.6.1 1.1.1 1.7.3.5.2 1 .4 1.5.7 1 .6 1.9 1.3 2.7 2.1l1.2 1.2c0 .5-.2.9-.4 1.3zm-3.2-4.8c-.5-.3-1-.6-1.6-.8-.6-.2-1.2-.3-1.8-.4-1.2-.1-2.3-.1-3.5 0-1.2.1-2.3.3-3.5.6-.6.1-1.1.3-1.7.5l-1.5.9c-1.9 1.3-3.9 2.6-5.7 3.9.3-.9.8-1.9 1.3-2.8.5-.9 1.1-1.8 1.7-2.6 1.2-1.7 2.4-3.5 3.8-5 .7-.7 1.5-1.4 2.4-1.9.4-.2.9-.4 1.4-.5.5-.1 1-.1 1.5-.1 2 .1 4.1.5 6.1 1.1.8.8 1.6 1.6 2.3 2.4.8.9 1.5 1.8 2.1 2.7.3.5.6 1 .7 1.5.2.6.3 1.1.4 1.7.2 1.1.3 2.1.3 3.2-1.2-1.5-2.8-3.1-4.7-4.4z" fill="#573427" stroke-width="none" opacity="1" stroke="none"></path></g></g></g><g id="svga-group-eyes-right-move" transform="matrix(1,0,0,1,0,0)"><g id="svga-group-eyes-right" transform="matrix(0.9499998000000001,0,0,0.9499998000000001,5.99002430332412,4.36501723111725)"><g id="svga-group-eyesback-right"><path id="SvgjsPath32131" d="M119.8 74.2c7.5 0 13.5 5.8 13.5 13s-6 13-13.5 13-13.5-5.8-13.5-13 6-13 13.5-13z" fill="#ffffff" stroke-width="none" opacity="1"></path></g><g id="svga-group-eyesiriswrapper-right" transform="matrix(1,0,0,1,0,0)"><g id="svga-group-eyesiriscontrol-right" transform="matrix(1,0,0,1,0,0)"><g id="svga-group-eyesiris-right"><path id="SvgjsPath32213" d="M119.8 82.5c2.6 0 4.7 2.1 4.7 4.7s-2.1 4.7-4.7 4.7-4.7-2.1-4.7-4.7 2.1-4.7 4.7-4.7z" fill="#3e4442" stroke-width="none" opacity="1"></path><path id="SvgjsPath32214" d="M119.8 92.1c-2.7 0-4.9-2.2-4.9-4.9s2.2-4.9 4.9-4.9 4.9 2.2 4.9 4.9-2.2 4.9-4.9 4.9zm0-9.3c-2.4 0-4.4 2-4.4 4.4s2 4.4 4.4 4.4 4.4-2 4.4-4.4c0-2.4-2-4.4-4.4-4.4z" fill="#1b2522" stroke-width="none" opacity="1"></path><path id="SvgjsPath32215" d="M119.8 84.7c1.4 0 2.5 1.1 2.5 2.5s-1.1 2.5-2.5 2.5-2.5-1.1-2.5-2.5 1.1-2.5 2.5-2.5z" fill="#000000" stroke-width="none" opacity="1"></path><path id="SvgjsPath32216" d="M118.7 84.7c.5 0 .9.4.9.9s-.4.9-.9.9-.9-.4-.9-.9.4-.9.9-.9zm2.9 4c.2 0 .3.2.3.3s-.2.3-.3.3-.3-.2-.3-.3.1-.3.3-.3z" fill="#ffffff" stroke-width="none" opacity="1"></path></g></g></g><g id="svga-group-eyesfront-right"><path id="SvgjsPath32140" d="M119.8 73.7c-7.8 0-14.1 6.1-14.1 13.6s6.3 13.6 14.1 13.6 14.1-6.1 14.1-13.6-6.3-13.6-14.1-13.6zm6.7 20.5c-2.6 1.1-7 1.2-10.9-.4-3.4-1.4-5.1-4.7-5.8-6 1.4-1.2 3.9-2.9 5.8-3.3 3-.6 8.8.2 10 .7.9.4 4.5 2.2 6.2 3.1-.7 1.1-3.1 4.9-5.3 5.9z" fill="#f0c7b1" stroke-width="none" opacity="1" stroke="none"></path><path id="SvgjsPath32143" d="M132.8 88.8c-.3-1-.8-1.7-1.3-2.5s-1.1-1.5-1.7-2.2c-.3-.4-.6-.7-.9-1.1-.3-.3-.7-.7-1.1-1-.7-.6-1.5-1.1-2.4-1.6-.8-.5-1.7-.8-2.6-1.1-.9-.3-1.9-.5-2.8-.5-1.9-.1-3.8 0-5.7.3h-.2c-.8.6-1.5 1.2-2.2 1.9-.7.7-1.4 1.4-2 2.1-.3.4-.6.8-.8 1.3-.2.5-.3.9-.4 1.4-.2 1-.3 1.9-.3 2.9v.3l.2-.1c.4-.4.8-.7 1.2-1 .5.9.9 1.8 1.5 2.6.7 1 1.5 1.9 2.5 2.6 1 .7 2.1 1.2 3.3 1.6 1.2.4 2.4.6 3.6.7 1.2.1 2.4.1 3.6-.2.6-.1 1.2-.3 1.8-.5.3-.1.6-.2.9-.4.3-.2.5-.3.8-.5 1-.8 1.8-1.7 2.5-2.7l1.8-2.7c.1.1.4.3.7.4zM109 85.9c.1-.5.3-.9.5-1.3s.5-.8.8-1.2c.6-.7 1.3-1.4 2.1-2 .7-.6 1.4-1.2 2.2-1.8 1.8-.2 3.7-.3 5.5-.2.9.1 1.8.2 2.7.5.9.3 1.7.6 2.6 1.1s1.6.9 2.3 1.5c.4.3.7.6 1 .9.3.3.6.7.9 1l1.8 2.1c.6.7 1.1 1.5 1.5 2.3-1.9-1.1-3.9-2.2-5.8-3.2-.5-.2-1-.5-1.5-.7-.6-.2-1.1-.3-1.7-.4-1.1-.2-2.2-.3-3.3-.4-1.1-.1-2.2-.1-3.3 0-.6 0-1.1.1-1.7.2-.6.1-1.1.3-1.6.6-1.9 1-3.6 2.3-5.3 3.7-.1-.9 0-1.8.3-2.7zm20.8 4.9c-.7.9-1.5 1.8-2.4 2.5-.9.7-2.1 1-3.2 1.2-1.2.2-2.3.2-3.5.2s-2.3-.3-3.5-.6c-1.1-.3-2.2-.8-3.2-1.4-1.8-1.2-3.1-3-4.2-4.9.4-.3.9-.7 1.3-1 .9-.6 1.8-1.2 2.8-1.7.5-.2 1-.4 1.5-.5.5-.1 1.1-.2 1.6-.2 1.1-.1 2.2 0 3.3.1 1.1.1 2.2.2 3.3.4.5.1 1.1.2 1.6.3.5.2 1 .4 1.5.7 1.6.8 3.2 1.6 4.8 2.3-.4.9-1 1.8-1.7 2.6z" fill="#573427" stroke-width="none" opacity="1" stroke="none"></path></g></g></g><g id="svga-group-facehighlight-single"></g><g id="svga-group-eyebrows-left-move" transform="matrix(1,0,0,1,0,0)"><g id="svga-group-eyebrows-left-rotate" transform="matrix(1,1.7453292519943295e-9,-1.7453292519943295e-9,1,1.227825237037905e-7,-1.388480086461641e-7)"><g id="svga-group-eyebrows-left"><path id="SvgjsPath32056" d="M91.5 72.22s-1.28 2.06-2.36 1.59c-1.08-.48-6.27-3.19-9.56-2.78-3.29.41-5.17 2.39-5.17 2.39l-1.48.75.48.39s-3.13 2.59-3.97 2.55c-.84-.04-2.04-1.27-1.97-3.59.07-2.32 3.08-5.09 3.08-5.09s-.48.18-1.49.66c0 0 1.23-1.86 4.52-3.33 3.3-1.47 9.08-1.46 10.9-.54L84 64.16s4.38 1.8 5.44 3.25l.17-1.09c-.01-.01 2.89 2.54 1.89 5.9z" fill="#2a232b" stroke-width="none" opacity="1"></path><path id="SvgjsPath32057" d="M91.49 68.91c-.18-.54-.44-1.04-.74-1.5-.3-.46-.63-.89-1.03-1.27l-.24-.24-.07.37-.11.62c-.3-.32-.63-.57-.97-.8-.45-.31-.91-.59-1.38-.85-.94-.52-1.88-.99-2.86-1.42l-.75-.33.37.82.13.29c-.45-.13-.9-.21-1.35-.28-.7-.09-1.4-.13-2.1-.13-1.4 0-2.79.12-4.17.4-.69.14-1.37.32-2.04.56-.67.25-1.31.56-1.94.91-.63.35-1.23.76-1.8 1.23-.57.47-1.11.97-1.57 1.63l-.57.81.85-.4.47-.22c-.59.67-1.12 1.39-1.57 2.19-.31.58-.58 1.22-.67 1.92-.07.7 0 1.4.21 2.07.21.66.58 1.27 1.11 1.65.27.18.58.32.92.25.31-.08.58-.23.85-.37 1.06-.62 2.06-1.35 3.04-2.11l.2-.16-.21-.18-.2-.17 1.19-.57.02-.01.04-.03c.56-.52 1.23-.95 1.91-1.29.68-.35 1.4-.61 2.13-.78.74-.17 1.47-.28 2.22-.21.75.06 1.5.2 2.25.38 1.49.39 2.96.93 4.41 1.55l1.08.48c.18.08.36.16.55.23.21.08.44.07.64.01.4-.13.72-.41 1.01-.71.29-.31.53-.65.75-1.02.15-.53.28-1.09.25-1.66.02-.56-.07-1.13-.26-1.66zm.1 2.7-.04.2-.08.4c-.23.33-.51.64-.8.92-.29.27-.62.51-.96.59-.17.03-.35.03-.5-.04-.17-.08-.35-.17-.53-.26l-1.07-.53c-1.43-.69-2.9-1.32-4.42-1.75-.76-.21-1.54-.38-2.33-.44l-.6-.02c-.2 0-.4.02-.6.03a9.226 9.226 0 0 0-3.41 1.05c-.7.38-1.35.84-1.95 1.43l-1.44.78-.31.16.28.22.28.22c-.87.74-1.77 1.46-2.72 2.05-.26.15-.52.3-.79.37-.25.06-.54-.06-.78-.22-.49-.34-.84-.92-1.02-1.54-.19-.62-.25-1.31-.18-1.95.08-.64.35-1.24.67-1.79.65-1.09 1.5-2.04 2.4-2.87l.95-.87-1.14.47-.45.19c.23-.21.47-.42.71-.61.55-.43 1.14-.8 1.75-1.13.61-.33 1.24-.62 1.87-.84.64-.21 1.3-.38 1.97-.5.67-.12 1.34-.21 2.02-.26.68-.07 1.36-.08 2.04-.09.68.01 1.36.04 2.03.12.66.09 1.35.2 1.92.47l.82.38-.42-.88-.11-.24c.7.3 1.39.62 2.07.97.46.24.92.5 1.36.79.43.28.87.6 1.18.98l.31.38.07-.49.1-.7c.27.27.52.57.75.88.3.42.56.89.76 1.38.21.49.32 1.03.37 1.57l.02.41-.03.41c-.01.06-.01.13-.02.2z" fill="#1b141c" stroke-width="none" opacity="1"></path></g></g></g><g id="svga-group-eyebrows-right-move" transform="matrix(1,0,0,1,0,0)"><g id="svga-group-eyebrows-right-rotate" transform="matrix(1,1.7453292519943295e-9,-1.7453292519943295e-9,1,1.2733161725009268e-7,-2.111723063080717e-7)"><g id="svga-group-eyebrows-right"><path id="SvgjsPath32058" d="M109.22 76.81s1.57 1.57 2.57.99 5.71-3.72 9.02-3.89c3.31-.17 5.46 1.24 5.46 1.24l1.57.41-.41.41s3.48 1.74 4.3 1.57c.83-.17 1.82-1.41 1.41-3.39-.41-1.99-3.81-3.89-3.81-3.89s.5.08 1.57.33c0 0-1.49-1.41-4.96-2.15s-9.18.17-10.84 1.24l.33-.99s-4.05 2.23-4.88 3.64l-.33-.91c-.01.01-2.49 2.66-1 5.39z" fill="#2a232b" stroke-width="none" opacity="1"></path><path id="SvgjsPath32059" d="M133.17 73.9c-.19-.59-.55-1.09-.95-1.55-.56-.62-1.2-1.16-1.88-1.64l.5.12.9.21-.69-.61c-.56-.49-1.16-.84-1.8-1.15-.63-.31-1.29-.57-1.96-.77-.67-.2-1.35-.37-2.05-.48-.7-.1-1.4-.15-2.1-.16-1.4-.03-2.79.09-4.17.31-.69.11-1.37.25-2.05.44-.43.13-.87.27-1.29.45l.09-.27.25-.76-.69.4c-.9.52-1.76 1.07-2.61 1.66-.42.3-.83.61-1.23.95-.3.25-.58.54-.83.86l-.21-.54-.12-.31-.21.24c-.33.39-.6.81-.83 1.25-.23.44-.4.91-.5 1.4-.11.49-.11 1-.04 1.49.05.5.27.96.5 1.39.28.29.57.54.89.76.33.21.69.4 1.11.45.21.02.43-.01.63-.11.18-.09.34-.19.51-.29l1-.58c1.34-.76 2.71-1.45 4.12-2.02.71-.27 1.43-.52 2.16-.68.73-.17 1.47-.2 2.23-.17.75.03 1.5.15 2.22.34.72.19 1.45.45 2.08.81l.04.02.03.01 1.26.3-.17.18-.18.19.22.1c1.08.5 2.17.97 3.31 1.34.29.08.58.17.9.19.34 0 .63-.17.87-.36.47-.41.74-1 .85-1.6.1-.6.06-1.22-.11-1.81zm-.09 1.78c-.09.56-.35 1.12-.78 1.48-.21.17-.48.32-.74.31-.27-.02-.56-.11-.84-.19-1.03-.35-2.02-.84-2.99-1.33l.24-.23.24-.23-.33-.09-1.54-.44a8.24 8.24 0 0 0-2.14-.92 10.3 10.3 0 0 0-2.34-.38c-.4-.02-.79-.02-1.19.01-.2.02-.4.04-.6.07l-.59.11c-.77.18-1.51.44-2.23.75-1.44.61-2.79 1.38-4.11 2.19l-.98.62c-.16.1-.32.22-.48.31-.14.08-.31.12-.49.11-.36-.02-.71-.17-1.04-.36-.32-.19-.64-.42-.92-.67l-.14-.33-.07-.16c-.02-.06-.03-.12-.05-.17l-.09-.35-.04-.35c-.04-.47 0-.95.13-1.41.13-.46.31-.89.54-1.31.18-.31.39-.6.61-.88l.2.59.14.41.25-.37c.25-.38.63-.72 1.02-1.03.39-.31.8-.61 1.22-.89.62-.41 1.25-.79 1.9-1.16l-.08.22-.28.82.76-.45c.53-.32 1.19-.53 1.83-.7a26 26 0 0 1 1.99-.42c.67-.1 1.35-.2 2.02-.25.68-.06 1.36-.09 2.03-.09.68 0 1.35.04 2.02.12.66.09 1.32.24 1.97.43.65.19 1.29.41 1.9.7.27.12.54.26.8.41l-.47-.09-1.2-.23 1.06.6c1.01.57 1.99 1.25 2.8 2.09.4.42.76.89.93 1.43.19.53.24 1.13.15 1.7z" fill="#1b141c" stroke-width="none" opacity="1"></path></g></g></g><g id="svga-group-beardwrap"><g id="svga-group-beard-single-move" transform="matrix(1,0,0,1,0,0)"><g id="svga-group-beard-single"></g></g></g><g id="svga-group-mustache-single-move" transform="matrix(1,0,0,1,0,0)"><g id="svga-group-mustache-single" transform="matrix(0.7999992000000002,0,0,0.7999992000000002,19.96008121329649,24.03565293544004)"><path id="SvgjsPath32372" d="M130.2 125.3s-6.6-10.9-29-11.8c-18.3-.7-25.8 4.9-31.4 11.3 0 0 15.2 5.2 29.9-2 0-.1 12.5 7.8 30.5 2.5z" fill="#3b3128" stroke-width="none" opacity="1"></path><path id="SvgjsPath32373" d="M127.5 122c-.5-.5-1.1-.9-1.6-1.4-.6-.4-1.1-.8-1.7-1.2-2.3-1.6-4.9-2.8-7.6-3.7-1.3-.5-2.7-.8-4.1-1.2-1.4-.3-2.8-.6-4.1-.8-2.8-.4-5.6-.6-8.4-.7-5.6 0-11.3.5-16.6 2.2-2.7.9-5.2 2.1-7.6 3.7-2.3 1.6-4.4 3.5-6.3 5.6l-.3.3.5.2c2.5.8 5 1.3 7.6 1.6 2.6.3 5.2.4 7.7.3 1.3 0 2.6-.2 3.9-.4 1.3-.2 2.6-.4 3.8-.8 2.4-.6 4.8-1.5 7.1-2.5 2.3 1.3 4.7 2.2 7.2 2.8 2.6.7 5.2 1.1 7.8 1.3 2.6.1 5.3.1 7.9-.3 1.3-.1 2.6-.4 3.9-.7 1.3-.3 2.6-.7 3.8-1.1-.9-1.2-1.9-2.2-2.9-3.2zm-1.2 4.1c-1.3.2-2.6.4-3.9.5-2.6.3-5.2.2-7.8 0-2.6-.2-5.1-.7-7.6-1.4s-4.9-1.6-7.1-2.9l-.2-.1-.3.1c-2.3 1-4.6 2-7.1 2.6-1.2.4-2.5.5-3.7.8-1.2.2-2.5.3-3.8.4-2.5.2-5.1.1-7.6-.1-2.3-.2-4.7-.7-7-1.3 1.7-2 3.6-3.8 5.7-5.3 2.3-1.6 4.8-2.8 7.4-3.7 5.3-1.7 11-2 16.5-1.8 2.8.1 5.5.3 8.3.7 1.4.2 2.7.5 4.1.8 1.3.4 2.7.7 4 1.1 2.6.9 5.2 1.9 7.6 3.4 2.3 1.4 4.6 3.2 6.2 5.4-1.2.2-2.4.5-3.7.8zm-32.6-6.2c-.8.6-1.5 1.2-2.3 1.7-.4.3-.9.6-1.3.9.4-.8.9-1.7 1.3-2.6.6-1.2 1.2-2.5 1.8-3.8l.1-.3-.3.2c-2.1 1.3-4.4 2.4-6.6 3.6-1.8 1-3.7 2-5.5 2.9.5-.9 1-1.7 1.4-2.6l.6-1.1-1 .6c-2.5 1.4-4.9 2.8-7.3 4.4v.1c2.2-1 4.4-2.1 6.6-3.3-.5.9-1 1.7-1.5 2.6l-.6 1 1.1-.5c1.2-.5 2.3-1.1 3.4-1.7 1.1-.6 2.2-1.2 3.2-1.9 2.1-1.2 4-2.5 6.1-3.8-.2.5-.4 1-.7 1.5-.3.6-.6 1.2-1 1.8l-2.1 3.6-.7 1.1 1.1-.7c1.7-1 3.2-2.2 4.7-3.4 1.5-1.2 2.9-2.5 4.3-3.9l-.1-.1-4.7 3.7zm30.5 2.2.7 2.4c-1.1-.3-2-.8-3-1.3-1.1-.6-2.1-1.2-3.1-1.9s-2-1.3-3-2.1c-1-.7-2-1.4-2.9-2.2l-.9-.7.3 1.1c.4 1.4 1.1 2.7 1.9 3.9.7 1.1 1.4 2 2.2 3-1.4-.6-2.8-1.4-4-2.3-1.4-1-2.8-2.1-4-3.3l-.6-.6.1.8c.1 1.3.3 2.7.4 4-1.5-1.4-2.9-2.9-4.4-4.4l-.1.1c.7 1 1.4 1.9 2.2 2.8.8.9 1.6 1.8 2.4 2.6l.6.5-.1-.8c-.1-1.3-.3-2.7-.4-4.1 1.2.9 2.4 1.8 3.7 2.6 1.5.9 3 1.8 4.6 2.5l.5.2-.3-.4c-.8-1.1-1.6-2.3-2.3-3.6-.5-.9-.9-1.8-1.3-2.7 1.6 1.3 3.3 2.5 5.1 3.6 1.1.7 2.1 1.2 3.3 1.8 1.1.5 2.3 1 3.5 1.2l.3.1-.1-.3-1.3-2.5z" fill="#2c2219" stroke-width="none" opacity="1"></path></g></g><g id="svga-group-nose-single-move" transform="matrix(1,0,0,1,0,0)"><g id="svga-group-nose-single"><path id="SvgjsPath32267" d="M109.5 107.91c-1.24.49-2.69.36-3.82.07s-2.48.69-2.95 1.13c-.47.44-1.71 1.71-3.93.91-2.22-.8-2.15-1.57-3.35-1.86-1.2-.29-2.07.66-3.42.29-1.35-.36-1.97-1.38-1.86-2.8.11-1.42.82-3.92 1.48-4.96s10.31-4.3 17.37.43c0 0 1.49 2.39 1.46 4.32s-.14 2.14-.98 2.47z" fill="#f0c7b1" stroke-width="none" opacity="1"></path><path id="SvgjsPath32268" d="M91.66 100.69c-.5 1.38-.97 2.79-1.14 4.22-.08.7-.12 1.45.12 2.05l.09.22c.04.07.09.13.13.2.04.07.09.13.15.19.06.05.1.12.16.16.23.21.53.32.83.39.63.13 1.33.02 2.02-.13l.53-.12.28-.06.15-.03.18-.02c.49-.03.91.14 1.27.31.73.36 1.3.86 1.88 1.29l.21.16c.07.04.12.08.19.12.13.07.27.13.42.17.3.09.63.13.95.12.64-.01 1.28-.21 1.77-.6l.17-.16.21-.2c.14-.13.29-.26.45-.38.31-.24.64-.46 1.01-.64.36-.17.75-.31 1.17-.37a2.43 2.43 0 0 1 1 .07l.29.11c.25.1.61.15.95.17.34.02.69.01 1.04-.03.68-.08 1.4-.27 1.8-.7.19-.19.27-.52.31-.86.04-.34.03-.69-.01-1.05-.14-1.43-.62-2.84-1.24-4.17.8 1.24 1.38 2.63 1.68 4.11.07.37.1.76.09 1.15-.02.39-.08.82-.37 1.2-.28.35-.66.56-1.03.71-.37.15-.75.24-1.14.31-.38.07-.77.09-1.16.09-.4-.01-.78-.04-1.22-.19l-.22-.08c-.07-.01-.13-.03-.2-.03-.14-.02-.29 0-.44.02-.3.05-.61.17-.91.32-.29.16-.58.34-.85.56-.13.11-.26.22-.39.34l-.19.18-.24.21c-.66.54-1.5.8-2.32.82-.41.01-.83-.05-1.23-.17-.2-.06-.4-.15-.59-.25-.09-.05-.19-.12-.28-.18l-.23-.17c-.59-.45-1.15-.92-1.73-1.23-.29-.15-.59-.26-.84-.25h-.09l-.12.02-.26.05-.55.11c-.74.14-1.54.25-2.35.04-.4-.11-.8-.29-1.11-.6-.3-.31-.55-.64-.66-1.06-.25-.8-.14-1.58 0-2.32.16-.74.39-1.45.66-2.14.29-.68.6-1.35.95-2z" fill="#c27b55" stroke-width="none" opacity="1"></path><path id="SvgjsPath32269" d="M102.11 103.91c-.52-.52-1.24-.61-1.94-.46-.09.02-.17.04-.25.06-.29-.19-.59-.32-.98-.32-.43 0-.95.19-1.25.52-.67.73-.68 1.78 0 2.5 1.14 1.22 3.69 1.57 4.66-.08.4-.68.33-1.65-.24-2.22z" fill="#f8d5c3" stroke-width="none" opacity="1"></path></g></g><g id="svga-group-hair-front"><path id="SvgjsPath32384" d="M58.02 71.24s1.85 1.66 2.59 3.33c.74 1.66 0 4.62.55 4.99.55.37 2.4-4.99 2.4-4.99l1.29-21.45 16.09-14.98 6.66 7.21s17.01.92 25.34.55l7.03-5.18 15.54 13.32.55 20.71 2.4 4.62s.74-5.18 1.11-5.92c.37-.74 2.03-2.59 2.03-2.59s1.48-13.5.74-17.38-5.55-13.69-14.24-20.16-35.69-5.55-40.5-5.18c-4.81.37-15.17 3.51-15.17 3.51l.92 1.29-2.59 1.11-.37 1.48s-5.36 3.33-7.4 5.73-3.88 7.03-4.44 10.91-.53 19.07-.53 19.07z" fill="#2a232b" stroke-width="none" opacity="1"></path><path id="SvgjsPath32385" d="M58.07 71.22c.89.82 1.77 1.77 2.4 2.86.69 1.12.63 2.47.62 3.7 0 .31-.01.62 0 .93.01.15.02.3.05.44.01.14.12.27.1.26-.06.02.12-.1.17-.22.08-.12.16-.25.23-.38.14-.27.27-.55.4-.83.49-1.14.91-2.31 1.31-3.49l-.01.06 1.15-21.46.01-.15.11-.11L80.66 37.8l.33-.3.3.33 6.65 7.22-.29-.14c4.21.23 8.43.4 12.65.56 4.22.14 8.44.26 12.65.14l-.16.06 7.07-5.12.14-.1.13.11 15.49 13.37.05.04v.07l.64 20.71-.03-.1 2.42 4.61-.49.08c.22-1.54.45-3.08.75-4.62.08-.39.15-.77.28-1.17.16-.46.42-.75.65-1.08.48-.63.98-1.23 1.5-1.82l-.08.17c.4-4.12.74-8.25.84-12.37.01-2.06.12-4.14-.5-6.04-.6-1.93-1.51-3.79-2.5-5.58-2-3.58-4.5-6.89-7.42-9.75-1.46-1.42-3.02-2.82-4.72-3.86-1.67-1.1-3.65-1.71-5.58-2.32-3.95-1.06-8.05-1.62-12.16-2-4.11-.36-8.24-.51-12.38-.52-2.07 0-4.13.02-6.2.1-1.03.04-2.06.09-3.08.16-1 .09-2.01.25-3.02.42-4.04.76-8.05 1.84-12.02 2.98l.22-.63.92 1.3.29.41-.46.19-2.6 1.09.22-.26-.38 1.48-.04.15-.13.08c-1.41.88-2.81 1.82-4.15 2.81-1.32 1.01-2.66 2.04-3.63 3.34-1.92 2.68-3.12 5.89-3.82 9.12-.35 1.62-.4 3.3-.51 4.98-.09 1.68-.16 3.36-.21 5.04-.1 3.36-.17 6.76-.22 10.08zm-.09.04c-.04-3.4-.04-6.74-.01-10.11.02-1.68.05-3.36.1-5.05.08-1.68.12-3.38.45-5.05.32-1.67.81-3.3 1.43-4.88.63-1.57 1.37-3.12 2.39-4.52 1.03-1.42 2.4-2.47 3.72-3.52 1.35-1.03 2.74-1.99 4.17-2.9l-.17.23.36-1.48.04-.18.18-.08 2.58-1.13-.17.6-.93-1.29-.34-.47.55-.17c3.98-1.2 7.98-2.32 12.08-3.15 1.03-.19 2.06-.38 3.13-.47 1.05-.08 2.09-.13 3.12-.17 2.08-.08 4.16-.11 6.24-.11 4.16 0 8.32.14 12.47.5 4.15.37 8.3.92 12.35 2.04 2 .65 4.03 1.28 5.84 2.47 1.82 1.13 3.36 2.54 4.87 4.01 2.98 2.95 5.51 6.34 7.53 10.01 1 1.84 1.9 3.74 2.51 5.78.32 1.01.45 2.12.48 3.16.02 1.05.02 2.09-.02 3.13-.16 4.16-.54 8.29-.99 12.42l-.01.1-.07.07c-.51.57-1.02 1.16-1.49 1.76-.22.3-.48.62-.57.9-.11.34-.19.73-.27 1.1-.31 1.51-.55 3.05-.78 4.58l-.12.8-.37-.72-2.39-4.63-.03-.05v-.05l-.47-20.72.05.11-15.58-13.27.28.01-6.99 5.23-.07.05h-.09c-4.24.19-8.47.13-12.7.05-4.23-.08-8.45-.26-12.68-.46l-.17-.01-.12-.13-6.67-7.21.63.02-16.13 14.98.12-.25-1.45 21.44v.03l-.01.03c-.43 1.18-.88 2.35-1.41 3.49-.13.29-.27.57-.43.85-.08.14-.16.28-.26.41-.05.07-.1.13-.17.2-.06.05-.16.16-.36.13-.29-.15-.29-.36-.33-.52-.03-.17-.04-.33-.04-.49-.01-.32.01-.63.02-.95.03-1.23.12-2.53-.51-3.6-.59-1.08-1.41-2.01-2.32-2.9z" fill="#1b141c" stroke-width="none" opacity="1"></path></g><g id="svga-group-glasses-single-move" transform="matrix(1,0,0,1,0,0)"><g id="svga-group-glasses-single"><path id="SvgjsPath32499" d="M57.88 82.85c-.1.79-.04 1.79.6 3.48.62 1.64 1.56 3.44 2.85 5.2 1.24 1.7 1.39 2.88 7.08 4.77 5.45 1.82 12.17 3.23 16.3 3.87 4.06.63 6.02-1.53 7.33-3.19 1.35-1.71 3.59-5.88 3.59-9.36 0-3.7-3.04-4.22-6.1-4.96-3.1-.75-11.89-2.38-18.49-2.2-6.64.18-10.88.44-11.95.84-1.07.41-1.21 1.55-1.21 1.55z" fill="url(#SvgjsLinearGradient32500)" opacity="1"></path><path id="SvgjsPath32506" d="M86.21 100.39c-.47 0-.97-.04-1.51-.12-4.02-.62-10.73-2-16.32-3.87-5.03-1.68-5.81-2.84-6.75-4.22-.13-.2-.27-.41-.43-.62-1.18-1.62-2.18-3.43-2.87-5.24-.7-1.83-.7-2.85-.61-3.54.01-.05.16-1.2 1.26-1.62 1.02-.38 4.85-.66 12-.85 6.96-.19 16.01 1.59 18.56 2.21l.49.12c2.84.68 5.73 1.37 5.73 4.98 0 3.38-2.15 7.56-3.62 9.42-1.4 1.78-3.06 3.33-5.93 3.35zM58.04 82.92c-.08.66-.09 1.64.59 3.42.68 1.78 1.66 3.56 2.82 5.16.16.22.3.43.44.63.93 1.38 1.64 2.44 6.54 4.08 5.58 1.86 12.27 3.25 16.29 3.87 3.72.58 5.64-1.15 7.22-3.16 1.45-1.84 3.56-5.98 3.56-9.31-.01-3.39-2.65-4.02-5.49-4.7l-.49-.12c-2.54-.62-11.51-2.38-18.43-2.18-7.01.19-10.91.47-11.89.84-1.01.37-1.16 1.45-1.16 1.47z" fill="#ffffff" stroke-width="none" opacity="1"></path><path id="SvgjsPath32507" d="M138.74 83.36c.17.75.23 1.7-.17 3.29-.39 1.55-1.04 3.26-2.01 4.93-.94 1.62-.95 2.74-5.95 4.57-4.85 1.78-11.02 3.2-14.89 3.86-3.85.66-6-1.45-7.46-3.09-1.51-1.69-4.2-5.83-4.6-9.29-.42-3.69 2.52-4.16 5.43-4.86 2.93-.7 11.15-2.16 17.37-1.89 6.14.27 10.03.58 11.04.98.99.41 1.24 1.5 1.24 1.5z" fill="url(#SvgjsLinearGradient32508)" opacity="1"></path><path id="SvgjsPath32514" d="M108.15 97c-1.65-1.83-4.24-5.98-4.63-9.34-.42-3.6 2.36-4.25 5.06-4.89l.47-.11c2.41-.58 10.88-2.19 17.43-1.89 6.62.29 10.12.61 11.09.99 1.04.41 1.3 1.5 1.31 1.55.15.65.26 1.62-.18 3.35-.43 1.71-1.14 3.42-2.03 4.96-.12.2-.22.4-.32.59-.7 1.32-1.29 2.43-5.71 4.05-4.98 1.83-11.14 3.22-14.91 3.87-.51.09-.99.13-1.43.13-2.78 0-4.57-1.51-6.15-3.26zm30.45-13.58c0-.01-.25-1.04-1.19-1.41-.93-.36-4.5-.68-10.99-.97-6.52-.29-14.91 1.31-17.31 1.88l-.46.11c-2.7.64-5.24 1.23-4.86 4.6.38 3.32 2.93 7.42 4.56 9.23 1.77 1.98 3.83 3.66 7.35 3.05 3.76-.64 9.91-2.04 14.88-3.86 4.3-1.58 4.84-2.6 5.53-3.91.1-.19.21-.39.33-.6.88-1.52 1.57-3.21 1.99-4.89.42-1.68.31-2.6.17-3.23z" fill="#ffffff" stroke-width="none" opacity="1"></path><path id="SvgjsPath32515" d="M142.65 81.44c-.55-1.47-16.4-2.03-21.5-1.65-8.96.66-17.08 3.19-18.55 3.63-1.47.44-2.49.43-2.49.43l-1.35-.01s-1.02-.01-2.56-.46c-1.55-.46-10.16-3.14-19.64-3.97-5.5-.48-22.87-.2-23.31 1.35-.43 1.51.64 5.59 1.73 7.15 1.06 1.51 6.35 3.62 6.35 3.62s-1.74-2.89-2.53-5.03c-.82-2.22-.88-3.91.11-4.65 1-.75 6.12-1.19 14.89-.93 8.65.25 16.62 2.06 18.8 2.98 2.15.9 2.79 2.8 2.17 6.5-.58 3.47-2.73 6.6-2.73 6.6s1.65-.15 2.11-.5c.46-.36.61-.57 2.29-4.22 1.8-3.89 2.62-3.73 2.62-3.73h1.3s.79-.16 3.03 3.72c2.08 3.62 2.25 3.83 2.74 4.18.49.35 2.13.49 2.13.49s-2.46-3.09-3.44-6.53c-1.04-3.68-.62-5.57 1.4-6.43 2.04-.88 9.54-2.55 17.71-2.67 8.1-.12 12.8.37 13.79 1.1.97.72 1.1 2.32.59 4.42-.49 2.03-1.75 4.77-1.75 4.77s4.53-1.98 5.32-3.41c.79-1.48 1.31-5.32.77-6.75z" fill="#858585" stroke-width="none" opacity="1"></path><path id="SvgjsPath32516" d="M142.64 81.44c-.25-.37-.78-.47-1.23-.6-.47-.12-.96-.21-1.46-.29-.99-.16-2.01-.27-3.03-.36-2.06-.19-4.15-.3-6.26-.38-4.24-.12-8.54-.24-12.88.37-4.31.55-8.56 1.46-12.69 2.6l-3.05.88c-.52.13-1.04.22-1.58.26-.55.04-1.07.01-1.61.01-1.09-.02-2.18-.3-3.23-.62-1.06-.31-2.13-.61-3.21-.9-4.39-1.15-8.91-2.1-13.5-2.65-2.32-.3-4.63-.42-6.92-.45-2.3-.04-4.6-.03-6.89.03s-4.57.16-6.8.35c-1.11.1-2.22.22-3.27.42-.52.1-1.04.22-1.46.44-.22.1-.28.3-.31.55-.03.24-.04.48-.03.73.04 1 .25 2.03.53 3.05.3 1 .63 2.02 1.25 2.98.33.46.87.84 1.39 1.18.53.34 1.07.64 1.62.93 1.09.56 2.2 1.06 3.3 1.51l-.05.04c-.63-1.08-1.24-2.18-1.78-3.32-.56-1.16-1.05-2.35-1.27-3.54-.22-1.17-.19-2.51.91-3.04 1.12-.43 2.44-.54 3.73-.66 2.61-.21 5.3-.23 7.98-.2 2.68.03 5.36.11 8.07.38 2.68.26 5.35.63 7.99 1.15 1.31.26 2.61.55 3.89.9.64.19 1.27.36 1.89.63.61.27 1.19.67 1.59 1.2.77 1.08.83 2.32.8 3.43-.05 1.1-.22 2.17-.49 3.18-.55 1.97-1.41 3.77-2.47 5.39l-.13-.15c.99-.13 2.15-.19 2.54-1.04.46-.77.83-1.62 1.23-2.46.4-.86.79-1.74 1.26-2.6.23-.44.49-.87.78-1.29.15-.21.31-.42.49-.61.21-.18.32-.41.77-.46h-.03 1.3-.03c.45.06.59.29.82.47.2.2.39.4.56.61.34.42.65.85.93 1.29.57.86 1.05 1.74 1.54 2.59.49.83.95 1.67 1.49 2.44.48.83 1.63.89 2.61 1.01l-.11.16c-1.22-1.61-2.28-3.38-3.05-5.34-.38-1.01-.67-2.07-.85-3.17-.16-1.11-.24-2.34.4-3.42.33-.53.86-.93 1.44-1.19.58-.26 1.19-.43 1.79-.6 1.22-.33 2.45-.6 3.69-.84 2.5-.46 5.02-.8 7.54-1 2.53-.22 5.04-.25 7.54-.24 2.49.02 4.96.08 7.37.32 1.19.14 2.4.25 3.46.68 1.05.52 1.22 1.79 1.15 2.9-.19 2.25-1.15 4.44-2.04 6.5l-.05-.04c1.03-.46 2.07-.98 3.07-1.57.5-.3 1-.62 1.46-.99.48-.36.84-.83 1.01-1.34.38-1.02.58-2.06.69-3.1.12-1.04.19-2.14-.11-3.1zm.03-.01c.31.96.24 2.06.15 3.11-.11 1.04-.3 2.09-.68 3.12-.17.51-.54 1.01-1.03 1.38-.46.38-.97.7-1.47 1-1 .6-2.04 1.11-3.07 1.58l-.08.03.03-.07c.88-2.06 1.83-4.25 2-6.47.07-1.1-.12-2.33-1.11-2.81-1.03-.41-2.24-.53-3.42-.65-2.4-.22-4.87-.27-7.35-.28-2.49 0-4.99.05-7.51.28-2.51.22-5.02.56-7.5 1.04-1.23.24-2.46.51-3.66.84-1.17.34-2.46.67-3.07 1.68-.59.97-.53 2.17-.37 3.25.18 1.08.46 2.13.83 3.12.75 1.93 1.8 3.71 3.01 5.29l.14.18-.25-.02c-.52-.05-1.03-.12-1.54-.25-.53-.1-.99-.46-1.25-.85-.55-.79-1.01-1.62-1.51-2.45-.5-.85-.98-1.73-1.54-2.58-.28-.43-.58-.86-.91-1.27-.16-.21-.35-.4-.53-.59-.17-.17-.46-.37-.58-.4h-1.35c-.12.02-.38.22-.53.39-.17.18-.33.38-.47.59-.28.41-.54.83-.77 1.27-.47.85-.85 1.73-1.26 2.59-.4.84-.77 1.68-1.24 2.47-.21.39-.64.76-1.16.86-.5.13-1.01.2-1.54.26l-.24.02.11-.17c1.04-1.61 1.91-3.4 2.45-5.35.27-1 .43-2.06.49-3.15.03-1.09-.04-2.3-.76-3.3-.75-1.03-2.11-1.38-3.34-1.75a55.73 55.73 0 0 0-3.87-.9c-2.63-.52-5.29-.9-7.96-1.16-2.69-.28-5.37-.36-8.05-.4-2.68-.03-5.36-.02-7.97.18-1.29.12-2.61.22-3.7.64-1.05.49-1.1 1.79-.89 2.95.47 2.34 1.8 4.66 3.04 6.83l.05.08-.1-.04c-1.11-.45-2.21-.95-3.31-1.51-.55-.29-1.1-.59-1.64-.93-.53-.34-1.08-.73-1.45-1.23-.65-1-.98-2.01-1.29-3.03-.29-1.03-.51-2.07-.55-3.09-.01-.26 0-.51.03-.75.03-.12.03-.24.09-.36s.17-.18.26-.26c.44-.23.97-.35 1.49-.46 1.06-.21 2.17-.33 3.28-.43 2.24-.2 4.52-.31 6.81-.37s4.59-.08 6.9-.05c2.3.02 4.62.14 6.95.44 4.61.55 9.16 1.47 13.56 2.65 1.08.29 2.16.6 3.22.92 1.05.33 2.11.6 3.16.63.53 0 1.08.03 1.59-.01.52-.04 1.04-.13 1.55-.25l3.06-.87c4.15-1.13 8.41-2.02 12.74-2.55 4.35-.59 8.66-.46 12.9-.32 2.11.09 4.2.21 6.26.4 1.02.1 2.04.21 3.03.37.5.08.98.18 1.46.29.44.17.96.26 1.23.65z" fill="#666666" stroke-width="none" opacity="1"></path></g></g></g></g></g><rect id="svga-credit-rect" width="200" height="15" x="0" y="185" fill="#ecf0f1" opacity="0.5" style="display: none;"></rect><text id="svga-credit-text" font-family="Avenir Next, Roboto, Helvetica, Arial, sans-serif" font-size="10px" text-anchor="start" font-weight="400" size="10px" anchor="start" weight="400" fill="#333333" x="33.402061462402344" y="182.71133995056152" style="display: none;"><tspan id="SvgjsTspan32050" dy="13" x="33.402061462402344">Created on AvatarMaker.com</tspan></text></g><defs id="SvgjsDefs31997"><linearGradient id="SvgjsLinearGradient32293" x1="76.732" y1="80.4509" x2="76.732" y2="100.284" gradientUnits="userSpaceOnUse" class="svga-on-canvas-glasses-gradient-single-0-null"><stop id="SvgjsStop32294" stop-opacity="1" stop-color="#ffba38" offset="0.004166667" ></stop><stop id="SvgjsStop32295" stop-opacity="0.8314" stop-color="#f5b232" offset="0.1721" ></stop><stop id="SvgjsStop32296" stop-opacity="0.541" stop-color="#d99d24" offset="0.4612" ></stop><stop id="SvgjsStop32297" stop-opacity="0.1664" stop-color="#ac7b0c" offset="0.8343" ></stop><stop id="SvgjsStop32298" stop-opacity="0" stop-color="#966a00" offset="1" ></stop></linearGradient><linearGradient id="SvgjsLinearGradient32301" x1="-21.2409" y1="80.8676" x2="-21.2409" y2="100.1419" gradientTransform="matrix(-1 0 0 1 100 0)" gradientUnits="userSpaceOnUse" class="svga-on-canvas-glasses-gradient-single-2-null"><stop id="SvgjsStop32302" stop-opacity="1" stop-color="#ffba38" offset="0.004166667" ></stop><stop id="SvgjsStop32303" stop-opacity="0.8314" stop-color="#f5b232" offset="0.1721" ></stop><stop id="SvgjsStop32304" stop-opacity="0.541" stop-color="#d99d24" offset="0.4612" ></stop><stop id="SvgjsStop32305" stop-opacity="0.1664" stop-color="#ac7b0c" offset="0.8343" ></stop><stop id="SvgjsStop32306" stop-opacity="0" stop-color="#966a00" offset="1" ></stop></linearGradient><linearGradient id="SvgjsLinearGradient32500" x1="76.732" y1="80.4509" x2="76.732" y2="100.284" gradientUnits="userSpaceOnUse" class="svga-on-canvas-glasses-gradient-single-0-null"><stop id="SvgjsStop32501" stop-opacity="1" stop-color="#ffba38" offset="0.004166667" ></stop><stop id="SvgjsStop32502" stop-opacity="0.8314" stop-color="#f5b232" offset="0.1721" ></stop><stop id="SvgjsStop32503" stop-opacity="0.541" stop-color="#d99d24" offset="0.4612" ></stop><stop id="SvgjsStop32504" stop-opacity="0.1664" stop-color="#ac7b0c" offset="0.8343" ></stop><stop id="SvgjsStop32505" stop-opacity="0" stop-color="#966a00" offset="1" ></stop></linearGradient><linearGradient id="SvgjsLinearGradient32508" x1="-21.2409" y1="80.8676" x2="-21.2409" y2="100.1419" gradientTransform="matrix(-1 0 0 1 100 0)" gradientUnits="userSpaceOnUse" class="svga-on-canvas-glasses-gradient-single-2-null"><stop id="SvgjsStop32509" stop-opacity="1" stop-color="#ffba38" offset="0.004166667" ></stop><stop id="SvgjsStop32510" stop-opacity="0.8314" stop-color="#f5b232" offset="0.1721" ></stop><stop id="SvgjsStop32511" stop-opacity="0.541" stop-color="#d99d24" offset="0.4612" ></stop><stop id="SvgjsStop32512" stop-opacity="0.1664" stop-color="#ac7b0c" offset="0.8343" ></stop><stop id="SvgjsStop32513" stop-opacity="0" stop-color="#966a00" offset="1" ></stop></linearGradient></defs></svg>