<?xml version="1.0" encoding="UTF-8"?>
<svg version="1.1" xmlns="http://www.w3.org/2000/svg" width="400" height="400">
<path d="M0 0 C3.45248176 1.15082725 3.68652725 1.7475427 5.5625 4.6875 C12.38507584 14.00614018 23.42575479 16.81362744 34 20 C33.525625 18.9275 33.05125 17.855 32.5625 16.75 C30.48909857 11.31221133 30.27867008 5.76558787 30 0 C30.66 0 31.32 0 32 0 C32.32871094 0.99580078 32.32871094 0.99580078 32.6640625 2.01171875 C35.05634233 8.86973182 35.05634233 8.86973182 39.9609375 14.0546875 C44.30486284 16.06853794 48.99022904 16.78474458 53.68066406 17.59667969 C56.39245842 18.06824645 59.09828572 18.56873658 61.8046875 19.0703125 C67.19971881 20.06625819 72.59853808 21.03959336 78 22 C77.67 19.69 77.34 17.38 77 15 C77.2475 15.5775 77.495 16.155 77.75 16.75 C81.74712199 23.94481959 88.66264934 25.2866091 96.02734375 27.73632812 C103.5998994 30.42075049 109.33032535 34.12466584 113.9375 40.8125 C114.95606146 43.86818439 115.00486197 45.66194073 115 48.8125 C115.24652292 52.46651755 115.70183204 53.6926889 118.29296875 56.36328125 C120.24140145 57.88574081 122.21088869 59.38159086 124.19921875 60.8515625 C132.61046616 67.30370486 135.50697268 75.82186757 137 86 C137.21557539 90.51911226 137.18512281 95.03871452 137.1875 99.5625 C137.19974609 100.76197266 137.21199219 101.96144531 137.22460938 103.19726562 C137.25584151 122.48831697 137.25584151 122.48831697 134 129 C134.556875 128.649375 135.11375 128.29875 135.6875 127.9375 C138 127 138 127 140.4375 126.875 C148.11888008 130.24731321 151.08134846 142.73107987 154 150 C156.49313038 157.47939115 154.68965203 162.59411361 151.3828125 169.43945312 C150.88523437 170.42880859 150.38765625 171.41816406 149.875 172.4375 C149.1634375 173.91573242 149.1634375 173.91573242 148.4375 175.42382812 C140.40897306 191.79551347 140.40897306 191.79551347 136 194 C134.00039988 194.039992 131.99952758 194.04346799 130 194 C130.04640625 194.77859375 130.0928125 195.5571875 130.140625 196.359375 C130.82596575 217.60493814 124.7171995 242.57693241 110 258.4375 C106.62225137 262.45468879 106.69510838 265.39831915 107.0625 270.5625 C107.33790734 272.71340858 107.638082 274.86194661 108 277 C108.99 276.67 109.98 276.34 111 276 C111.66 286.89 112.32 297.78 113 309 C117.95 310.485 117.95 310.485 123 312 C125.86217494 312.9582964 128.71299768 313.92920802 131.55859375 314.93359375 C132.33690048 315.2073735 133.11520721 315.48115326 133.917099 315.76322937 C152.68426209 322.39301415 170.98759215 329.49659642 189 338 C190.14855469 338.53463867 191.29710937 339.06927734 192.48046875 339.62011719 C195.9505542 341.2358638 199.41427732 342.86430507 202.875 344.5 C203.92220215 344.99258301 204.9694043 345.48516602 206.04833984 345.99267578 C217.60768064 351.54323004 217.60768064 351.54323004 220.2109375 356.13671875 C221.3628582 360.31670824 222.0066294 364.5249202 222.625 368.8125 C222.7590625 369.67681641 222.893125 370.54113281 223.03125 371.43164062 C223.82386433 376.78987528 224 381.46141446 224 387 C109.16 387 -5.68 387 -124 387 C-122.82049671 369.30745072 -122.82049671 369.30745072 -121.3125 362.875 C-121.17650391 362.17375 -121.04050781 361.4725 -120.90039062 360.75 C-119.91643595 356.45785203 -118.48845356 353.77978082 -114.8996582 351.16748047 C-110.88143731 348.69798653 -106.69862991 346.63950238 -102.4375 344.625 C-100.84240601 343.86485596 -100.84240601 343.86485596 -99.21508789 343.08935547 C-74.77017068 331.65658154 -49.28985446 321.53050449 -23.625 313.1875 C-21.82509063 312.59897031 -20.02558895 312.00919184 -18.2265625 311.41796875 C-17.45908691 311.16813232 -16.69161133 310.9182959 -15.90087891 310.66088867 C-13.9479946 310.02761706 -13.9479946 310.02761706 -12 309 C-11.54611059 306.6741551 -11.54611059 306.6741551 -11.40234375 303.86328125 C-11.32306641 302.81076172 -11.24378906 301.75824219 -11.16210938 300.67382812 C-11.08798828 299.56458984 -11.01386719 298.45535156 -10.9375 297.3125 C-10.78217255 295.14176675 -10.62468494 292.9711868 -10.46484375 290.80078125 C-10.36610962 289.34925659 -10.36610962 289.34925659 -10.26538086 287.8684082 C-9.988697 284.87782982 -9.52777619 281.95571082 -9 279 C-7.68 279.33 -6.36 279.66 -5 280 C-4.02305795 270.64667222 -4.02305795 270.64667222 -6.125 261.765625 C-7.61388951 260.16054844 -7.61388951 260.16054844 -9.28515625 258.6796875 C-22.2217028 246.00835489 -27.53363325 219.8355469 -28.1171875 202.5234375 C-28.12384977 199.67864841 -28.09220943 196.8431242 -28 194 C-28.886875 194.103125 -29.77375 194.20625 -30.6875 194.3125 C-34.15168321 193.98569026 -35.42900878 193.42160239 -37.70947266 190.83203125 C-40.65571443 186.64954955 -42.88612372 182.05723708 -45.1875 177.5 C-45.72052734 176.46746094 -46.25355469 175.43492187 -46.80273438 174.37109375 C-54.52685155 159.31149422 -54.52685155 159.31149422 -51.8984375 150.16796875 C-51.40573696 148.8354603 -50.89737728 147.50865652 -50.375 146.1875 C-50.10574707 145.49188965 -49.83649414 144.7962793 -49.55908203 144.07958984 C-44.00462936 130.15311497 -44.00462936 130.15311497 -39.0703125 126.6171875 C-37 126 -37 126 -34.75 126.875 C-33.88375 127.431875 -33.88375 127.431875 -33 128 C-33.2165625 127.00484375 -33.433125 126.0096875 -33.65625 124.984375 C-37.10175556 108.14513074 -39.92355055 84.2130093 -30.25 68.875 C-22.92515924 59.46257962 -22.92515924 59.46257962 -18 57 C-18.33 55.824375 -18.66 54.64875 -19 53.4375 C-21.29434057 43.84146242 -18.78658841 36.33920871 -13.77734375 27.953125 C-13.41769531 27.39109375 -13.05804688 26.8290625 -12.6875 26.25 C-10.53551788 22.10544184 -10.67683574 19.60509075 -11 15 C-10.34 15 -9.68 15 -9 15 C-9.33 11.7 -9.66 8.4 -10 5 C-7.66666667 7.33333333 -5.33333333 9.66666667 -3 12 C-3.495 8.04 -3.495 8.04 -4 4 C-0.40521193 7.32850747 2.22364768 10.98971331 5 15 C3.78355078 11.35065233 2.3066948 7.832239 0.83984375 4.27734375 C0 2 0 2 0 0 Z " fill="#EFC6B0" transform="translate(149,13)"/>
<path d="M0 0 C0.99 16.335 0.99 16.335 2 33 C5.3 33.99 8.6 34.98 12 36 C14.86217494 36.9582964 17.71299768 37.92920802 20.55859375 38.93359375 C21.33690048 39.2073735 22.11520721 39.48115326 22.917099 39.76322937 C41.68426209 46.39301415 59.98759215 53.49659642 78 62 C79.72283203 62.80195801 79.72283203 62.80195801 81.48046875 63.62011719 C84.9505542 65.2358638 88.41427732 66.86430507 91.875 68.5 C92.92220215 68.99258301 93.9694043 69.48516602 95.04833984 69.99267578 C106.60768064 75.54323004 106.60768064 75.54323004 109.2109375 80.13671875 C110.3628582 84.31670824 111.0066294 88.5249202 111.625 92.8125 C111.7590625 93.67681641 111.893125 94.54113281 112.03125 95.43164062 C112.82386433 100.78987528 113 105.46141446 113 111 C-1.84 111 -116.68 111 -235 111 C-233.82049671 93.30745072 -233.82049671 93.30745072 -232.3125 86.875 C-232.10850586 85.823125 -232.10850586 85.823125 -231.90039062 84.75 C-230.91643595 80.45785203 -229.48845356 77.77978082 -225.8996582 75.16748047 C-221.88143731 72.69798653 -217.69862991 70.63950238 -213.4375 68.625 C-212.374104 68.1182373 -211.31070801 67.61147461 -210.21508789 67.08935547 C-185.77017068 55.65658154 -160.28985446 45.53050449 -134.625 37.1875 C-132.82509063 36.59897031 -131.02558895 36.00919184 -129.2265625 35.41796875 C-128.45908691 35.16813232 -127.69161133 34.9182959 -126.90087891 34.66088867 C-124.9479946 34.02761706 -124.9479946 34.02761706 -123 33 C-122.54611059 30.6741551 -122.54611059 30.6741551 -122.40234375 27.86328125 C-122.32306641 26.81076172 -122.24378906 25.75824219 -122.16210938 24.67382812 C-122.08798828 23.56458984 -122.01386719 22.45535156 -121.9375 21.3125 C-121.78217255 19.14176675 -121.62468494 16.9711868 -121.46484375 14.80078125 C-121.399021 13.83309814 -121.33319824 12.86541504 -121.26538086 11.8684082 C-120.988697 8.87782982 -120.52777619 5.95571082 -120 3 C-116.11086852 4.24841156 -112.38788454 5.66070927 -108.65234375 7.30859375 C-103.83387609 9.33855842 -99.00133185 11.02240492 -94.00390625 12.53515625 C-93.31557709 12.74353119 -92.62724792 12.95190613 -91.9180603 13.16659546 C-89.07795068 14.02018167 -86.23537169 14.8649257 -83.38989258 15.70043945 C-81.27897973 16.32300733 -79.17264321 16.95947741 -77.06640625 17.59765625 C-75.82834229 17.96383057 -74.59027832 18.33000488 -73.31469727 18.70727539 C-69.30139007 20.27245633 -66.07716504 22.12633969 -63.890625 25.9296875 C-61.54167243 33.0624825 -60.85019385 39.50969259 -61 47 C-60.01 47 -59.02 47 -58 47 C-58.03480469 45.85402344 -58.06960937 44.70804687 -58.10546875 43.52734375 C-58.13362703 41.99741061 -58.16092499 40.46746146 -58.1875 38.9375 C-58.21263672 38.18533203 -58.23777344 37.43316406 -58.26367188 36.65820312 C-58.33283561 31.33259586 -57.60609572 27.68273633 -55 23 C-49.20441258 17.74382873 -40.32791892 16.07330581 -33 14 C-23.11638414 11.15734758 -23.11638414 11.15734758 -13.7734375 6.9375 C-11.96707533 5.98259489 -10.14295916 5.20426827 -8.25 4.4375 C-6.01006211 3.44675824 -2.31810721 0 0 0 Z " fill="#000000" transform="translate(260,289)"/>
<path d="M0 0 C3.45248176 1.15082725 3.68652725 1.7475427 5.5625 4.6875 C12.38507584 14.00614018 23.42575479 16.81362744 34 20 C33.525625 18.9275 33.05125 17.855 32.5625 16.75 C30.48909857 11.31221133 30.27867008 5.76558787 30 0 C30.66 0 31.32 0 32 0 C32.21914062 0.66386719 32.43828125 1.32773438 32.6640625 2.01171875 C35.05634233 8.86973182 35.05634233 8.86973182 39.9609375 14.0546875 C44.30486284 16.06853794 48.99022904 16.78474458 53.68066406 17.59667969 C56.39245842 18.06824645 59.09828572 18.56873658 61.8046875 19.0703125 C67.19971881 20.06625819 72.59853808 21.03959336 78 22 C77.505 18.535 77.505 18.535 77 15 C77.2475 15.5775 77.495 16.155 77.75 16.75 C81.74712199 23.94481959 88.66264934 25.2866091 96.02734375 27.73632812 C103.5998994 30.42075049 109.33032535 34.12466584 113.9375 40.8125 C114.95606146 43.86818439 115.00486197 45.66194073 115 48.8125 C115.24652292 52.46651755 115.70183204 53.6926889 118.29296875 56.36328125 C120.24140145 57.88574081 122.21088869 59.38159086 124.19921875 60.8515625 C132.63092877 67.31940143 135.46960576 75.81386918 137 86 C138.23946652 104.03972911 136.26096394 121.05865282 132.62988281 138.69360352 C131.73622568 143.38461073 131.08168734 148.09974502 130.44287109 152.83129883 C129.08630482 162.53740339 129.08630482 162.53740339 128 166 C127.34 166.33 126.68 166.66 126 167 C125.97812622 165.89712646 125.97812622 165.89712646 125.95581055 164.77197266 C125.88060745 161.3891622 125.78418818 158.00726189 125.6875 154.625 C125.66494141 153.46871094 125.64238281 152.31242188 125.61914062 151.12109375 C125.37869996 143.38327606 124.70853927 135.95738372 120.93408203 129.04907227 C119.80078726 126.56299202 119.63645167 124.54056982 119.47265625 121.81640625 C119.40449707 120.8123877 119.33633789 119.80836914 119.26611328 118.77392578 C119.16532471 117.18427002 119.16532471 117.18427002 119.0625 115.5625 C118.41259839 106.77379033 117.63181149 98.44885277 115 90 C114.72414063 89.10410156 114.44828125 88.20820312 114.1640625 87.28515625 C112.04034278 81.24979893 108.94537911 76.15368465 104 72 C102.09887932 71.20419738 102.09887932 71.20419738 100 71 C97.54954443 72.4997969 95.38023974 73.99752071 93.125 75.75 C86.00198646 81.17268127 79.97410959 84.33411863 71.0625 85.6875 C70.28970703 85.81705078 69.51691406 85.94660156 68.72070312 86.08007812 C62.38752809 87.09188715 56.85917579 87.92958789 51 85 C49.948125 85.020625 48.89625 85.04125 47.8125 85.0625 C43.76392952 84.99612999 41.06882232 84.09198323 37.32421875 82.71875 C34.96878252 81.99034619 32.89101455 81.73141666 30.4375 81.5625 C27.20998056 81.29631283 25.11031634 80.68166179 22.3125 79.0625 C18.59435609 76.98361793 15.21762216 76.49856875 11 76 C5.12096088 75.30462978 1.0574222 74.03445332 -4 71 C-4.38865234 71.83337891 -4.38865234 71.83337891 -4.78515625 72.68359375 C-6.1540114 75.2936616 -7.77239217 77.63108448 -9.4375 80.0625 C-16.53426077 91.19351897 -17.78817663 104.56247974 -18.28857422 117.53564453 C-18.54722748 124.16272098 -19.10160299 129.86945318 -22.0625 135.921875 C-23.91885148 140.03678744 -24.1492915 144.27393004 -24.31640625 148.73828125 C-24.37924805 150.33833008 -24.37924805 150.33833008 -24.44335938 151.97070312 C-24.48267578 153.07349609 -24.52199219 154.17628906 -24.5625 155.3125 C-24.60568359 156.43462891 -24.64886719 157.55675781 -24.69335938 158.71289062 C-24.79914787 161.47514569 -24.90123672 164.2374863 -25 167 C-26.90082443 164.14876335 -27.37763213 162.89714478 -27.94555664 159.65551758 C-28.1023439 158.78063187 -28.25913116 157.90574615 -28.42066956 157.00434875 C-28.58220016 156.06060898 -28.74373077 155.1168692 -28.91015625 154.14453125 C-29.08252304 153.16892746 -29.25488983 152.19332367 -29.43247986 151.18815613 C-29.79626934 149.12170438 -30.15665963 147.05465178 -30.51391602 144.98706055 C-31.05757354 141.84100859 -31.61080918 138.69676662 -32.16601562 135.55273438 C-32.51879412 133.54176569 -32.87102514 131.53070088 -33.22265625 129.51953125 C-33.38621109 128.58591263 -33.54976593 127.65229401 -33.71827698 126.69038391 C-36.72415653 109.26483383 -40.23966286 84.71422481 -30.25 68.875 C-22.92515924 59.46257962 -22.92515924 59.46257962 -18 57 C-18.495 55.2365625 -18.495 55.2365625 -19 53.4375 C-21.29434057 43.84146242 -18.78658841 36.33920871 -13.77734375 27.953125 C-13.41769531 27.39109375 -13.05804688 26.8290625 -12.6875 26.25 C-10.53551788 22.10544184 -10.67683574 19.60509075 -11 15 C-10.34 15 -9.68 15 -9 15 C-9.495 10.05 -9.495 10.05 -10 5 C-7.66666667 7.33333333 -5.33333333 9.66666667 -3 12 C-3.495 8.04 -3.495 8.04 -4 4 C-0.40521193 7.32850747 2.22364768 10.98971331 5 15 C3.78355078 11.35065233 2.3066948 7.832239 0.83984375 4.27734375 C0 2 0 2 0 0 Z " fill="#29222A" transform="translate(149,13)"/>
<path d="M0 0 C2.58984375 0.55078125 2.58984375 0.55078125 5 2 C6.00390625 4.23046875 6.00390625 4.23046875 6.5625 7.1875 C6.78808594 8.33476562 7.01367188 9.48203125 7.24609375 10.6640625 C7.49994073 12.1089302 7.75092058 13.5543028 8 15 C8.34502743 16.94531687 8.69008143 18.89062903 9.03515625 20.8359375 C9.9033264 25.76694232 10.74415016 30.70208923 11.56689453 35.64086914 C11.94671425 37.93932776 11.94671425 37.93932776 12.5546875 39.89013672 C13.18239752 42.86418824 13.05382868 45.68570544 12.9921875 48.72265625 C12.97197724 50.07046057 12.95281188 51.41828088 12.93457031 52.76611328 C12.92413696 53.46802795 12.91370361 54.16994263 12.9029541 54.89312744 C12.54145991 82.94681291 16.31054773 114.96309556 36.72485352 136.1640625 C51.4838569 150.90833844 69.4680839 160.79190449 90.8125 161.3125 C108.64737725 161.11097596 123.76585288 153.7484484 137 142 C137.67417969 141.41992188 138.34835938 140.83984375 139.04296875 140.2421875 C145.64881385 134.15056986 150.21453545 126.53122289 155 119 C155.33 119.66 155.66 120.32 156 121 C154.63333314 123.41908927 153.22657676 125.69485646 151.6875 128 C151.27048828 128.64195312 150.85347656 129.28390625 150.42382812 129.9453125 C148.75333169 132.49235332 147.15928671 134.84071329 145 137 C144.94814428 140.40395777 145.05570805 143.750088 145.25390625 147.14648438 C145.42162757 152.52836544 145.42162757 152.52836544 143.3203125 154.87890625 C140.82585916 156.08413876 138.37173656 157.10111889 135.75 158 C134.77160156 158.34160156 133.79320312 158.68320312 132.78515625 159.03515625 C131.86605469 159.35355469 130.94695312 159.67195312 130 160 C128.72719037 160.47389208 127.45612542 160.95251793 126.1875 161.4375 C118.49874757 164.33264752 110.7679679 167.13705869 102.9375 169.625 C99.63686808 170.73543565 96.7302359 171.76617063 94 174 C91.8945658 178.92777252 91.58947932 183.60238333 91.375 188.875 C91.33632812 189.65875 91.29765625 190.4425 91.2578125 191.25 C91.16433378 193.16631367 91.08111505 195.08312319 91 197 C90.01 197 89.02 197 88 197 C87.90203125 196.02160156 87.8040625 195.04320312 87.703125 194.03515625 C86.69532415 182.90395821 86.69532415 182.90395821 82 173 C74.60756317 168.33271503 65.1550955 166.51635933 56.85742188 164.08789062 C48.66814617 161.64124196 40.65905708 158.82952854 33 155 C33.06960937 153.85402344 33.13921875 152.70804688 33.2109375 151.52734375 C33.83209931 143.39883895 33.83209931 143.39883895 31.875 135.69921875 C30.38973541 134.09780609 30.38973541 134.09780609 28.71484375 132.64453125 C15.72040722 120.18289622 10.46143885 93.68935243 9.8828125 76.5234375 C9.87615023 73.67864841 9.90779057 70.8431242 10 68 C9.113125 68.103125 8.22625 68.20625 7.3125 68.3125 C3.84831679 67.98569026 2.57099122 67.42160239 0.29052734 64.83203125 C-2.65571443 60.64954955 -4.88612372 56.05723708 -7.1875 51.5 C-7.98704102 49.95119141 -7.98704102 49.95119141 -8.80273438 48.37109375 C-16.52685155 33.31149422 -16.52685155 33.31149422 -13.8984375 24.16796875 C-13.40559142 22.83551412 -12.89723878 21.50871128 -12.375 20.1875 C-12.10647217 19.49188965 -11.83794434 18.7962793 -11.5612793 18.07958984 C-5.94171123 3.96114082 -5.94171123 3.96114082 0 0 Z " fill="#CC8F6F" transform="translate(111,139)"/>
<path d="M0 0 C5.80047444 2.29321082 7.76485625 9.09536001 10.12524414 14.48364258 C16.42221097 29.14628219 16.42221097 29.14628219 13.74902344 36.72216797 C12.43252729 39.69323484 11.02257174 42.59687808 9.5625 45.5 C9.088125 46.48548828 8.61375 47.47097656 8.125 48.48632812 C0.09647306 64.85801347 0.09647306 64.85801347 -4.3125 67.0625 C-6.31210012 67.102492 -8.31297242 67.10596799 -10.3125 67.0625 C-10.26609375 67.84109375 -10.2196875 68.6196875 -10.171875 69.421875 C-9.67269387 84.89648991 -13.02539693 99.94228491 -19.3125 114.0625 C-20.62966367 110.11100899 -19.60747923 108.76443131 -18.0625 104.9375 C-12.16497528 88.93888439 -11.95287761 73.40570976 -12.25 56.5625 C-12.29815752 53.48816263 -12.34140576 50.41403999 -12.37220764 47.33947754 C-12.39166101 45.4460296 -12.4209278 43.55264517 -12.46214294 41.6595459 C-12.5202196 36.54880024 -12.03838214 31.99804894 -10.80149841 27.03765869 C-10.19933255 24.6053949 -9.86021518 22.18222164 -9.56640625 19.6953125 C-9.45103516 18.79039062 -9.33566406 17.88546875 -9.21679688 16.953125 C-8.98613656 15.08675357 -8.76233605 13.21952331 -8.54492188 11.3515625 C-8.42826172 10.454375 -8.31160156 9.5571875 -8.19140625 8.6328125 C-8.0941626 7.82602051 -7.99691895 7.01922852 -7.89672852 6.18798828 C-7.20556938 3.67347452 -6.31656537 2.69230281 -4.3125 1.0625 C-2.3125 0.0625 -2.3125 0.0625 0 0 Z " fill="#DEA88B" transform="translate(289.3125,139.9375)"/>
<path d="M0 0 C2.41796875 1.48828125 2.41796875 1.48828125 3.4921875 4.0703125 C3.69457031 5.13636719 3.89695312 6.20242187 4.10546875 7.30078125 C4.42064453 8.85732422 4.42064453 8.85732422 4.7421875 10.4453125 C4.84466797 11.06075928 4.94714844 11.67620605 5.05273438 12.31030273 C5.32157871 13.91348475 5.62182564 15.5114787 5.93945312 17.10571289 C7.83382031 27.49377323 7.64220707 37.78619994 7.54296875 48.30078125 C7.53291355 50.16861496 7.52379222 52.03645395 7.515625 53.90429688 C7.49382495 58.43242434 7.45943677 62.96029295 7.41796875 67.48828125 C1.72900391 67.7109375 1.72900391 67.7109375 -1.0703125 65.70703125 C-4.85024516 61.41474466 -7.21123972 56.05426768 -9.76953125 50.98828125 C-10.56907227 49.43947266 -10.56907227 49.43947266 -11.38476562 47.859375 C-19.1088828 32.79977547 -19.1088828 32.79977547 -16.48046875 23.65625 C-15.98762267 22.32379537 -15.47927003 20.99699253 -14.95703125 19.67578125 C-14.68850342 18.9801709 -14.41997559 18.28456055 -14.14331055 17.56787109 C-6.62793438 -1.31355432 -6.62793438 -1.31355432 0 0 Z " fill="#EDC3AC" transform="translate(113.58203125,139.51171875)"/>
<path d="M0 0 C1.22244667 0.00333092 1.22244667 0.00333092 2.46958923 0.00672913 C3.39046829 0.00680466 4.31134735 0.00688019 5.26013184 0.00695801 C6.2611644 0.01211929 7.26219696 0.01728058 8.29356384 0.02259827 C9.31316696 0.02401321 10.33277008 0.02542816 11.38327026 0.02688599 C14.65417867 0.03250355 17.92501972 0.04505902 21.19590759 0.05775452 C23.40749515 0.06276725 25.61908377 0.06733055 27.83067322 0.07142639 C33.26494413 0.08247869 38.69916443 0.09975508 44.13340759 0.12025452 C43.80340759 3.09025452 43.47340759 6.06025452 43.13340759 9.12025452 C41.48340759 9.45025452 39.83340759 9.78025452 38.13340759 10.12025452 C39.78340759 10.12025452 41.43340759 10.12025452 43.13340759 10.12025452 C43.23106384 16.27259827 43.23106384 16.27259827 43.13340759 18.12025452 C41.58839309 19.66526902 40.14680539 19.24744583 37.99668884 19.24964905 C36.68027405 19.25437729 36.68027405 19.25437729 35.33726501 19.25920105 C34.38311707 19.25717682 33.42896912 19.25515259 32.44590759 19.25306702 C30.98664856 19.25450211 30.98664856 19.25450211 29.49790955 19.25596619 C27.43662959 19.2566481 25.37534751 19.25479304 23.31407166 19.25062561 C20.14703071 19.24527752 16.98013159 19.25057024 13.81309509 19.25697327 C11.81569894 19.25631249 9.81830288 19.25503133 7.82090759 19.25306702 C6.86675964 19.25509125 5.91261169 19.25711548 4.92955017 19.25920105 C4.05194031 19.25604889 3.17433044 19.25289673 2.27012634 19.24964905 C1.49370789 19.24885345 0.71728943 19.24805786 -0.08265686 19.24723816 C-1.86659241 19.12025452 -1.86659241 19.12025452 -2.86659241 18.12025452 C-2.96646216 15.27690404 -3.00537122 12.46328289 -2.99159241 9.62025452 C-2.99545959 8.82232483 -2.99932678 8.02439514 -3.00331116 7.20228577 C-2.99141037 0.19272049 -2.99141037 0.19272049 0 0 Z " fill="#F0DBD0" transform="translate(217.86659240722656,166.87974548339844)"/>
<path d="M0 0 C7.26 0 14.52 0 22 0 C22.04125 2.92875 22.0825 5.8575 22.125 8.875 C22.14320801 9.79651855 22.16141602 10.71803711 22.18017578 11.66748047 C22.1851709 12.39338379 22.19016602 13.11928711 22.1953125 13.8671875 C22.21102295 14.98262939 22.21102295 14.98262939 22.22705078 16.12060547 C22 18 22 18 20 20 C17.98191833 20.28520203 17.98191833 20.28520203 15.47436523 20.3347168 C14.06797035 20.36936287 14.06797035 20.36936287 12.63316345 20.40470886 C11.61855545 20.41939713 10.60394745 20.43408539 9.55859375 20.44921875 C8.52058121 20.47095657 7.48256866 20.4926944 6.4131012 20.51509094 C4.21665083 20.55905071 2.02010066 20.59824068 -0.17651367 20.63305664 C-3.55224005 20.68733503 -6.92735723 20.75748672 -10.30273438 20.83007812 C-12.43227396 20.87072992 -14.56183111 20.91047439 -16.69140625 20.94921875 C-18.2163546 20.98036018 -18.2163546 20.98036018 -19.77210999 21.01213074 C-20.70655441 21.02577164 -21.64099884 21.03941254 -22.60375977 21.0534668 C-23.4304567 21.06741989 -24.25715363 21.08137299 -25.10890198 21.0957489 C-27 21 -27 21 -28 20 C-28.07205511 18.31391034 -28.08386068 16.62499341 -28.0625 14.9375 C-28.05347656 14.01839844 -28.04445312 13.09929687 -28.03515625 12.15234375 C-28.02355469 11.44207031 -28.01195312 10.73179687 -28 10 C-27.36578125 10.20496094 -26.7315625 10.40992188 -26.078125 10.62109375 C-16.14825676 13.48758886 -6.27691757 13.70550335 4 14 C4.33 10.04 4.66 6.08 5 2 C2.525 1.505 2.525 1.505 0 1 C0 0.67 0 0.34 0 0 Z " fill="#EFD9CE" transform="translate(166,168)"/>
<path d="M0 0 C1.4540625 0.495 1.4540625 0.495 2.9375 1 C5.62149574 2.05173363 5.62149574 2.05173363 7 2 C8.7865396 11.5097483 9.25206396 20.65075219 9.125 30.3125 C9.11493218 31.65038379 9.10581316 32.98827507 9.09765625 34.32617188 C9.07437244 37.55097962 9.0416741 40.77538654 9 44 C3.51773404 42.81755048 0.60508928 41.54824517 -3 37 C-4.34960084 34.47114979 -5.35089316 31.88456616 -6.3125 29.1875 C-6.57611328 28.51396484 -6.83972656 27.84042969 -7.11132812 27.14648438 C-9.24167388 21.36411731 -10.27423763 16.02270609 -7.79296875 10.13671875 C-6.99826172 8.92435547 -6.99826172 8.92435547 -6.1875 7.6875 C-5.66542969 6.86636719 -5.14335938 6.04523438 -4.60546875 5.19921875 C-3.18931325 3.25932691 -1.75637892 1.62979305 0 0 Z " fill="#E0AB8E" transform="translate(112,152)"/>
<path d="M0 0 C0 1.32 0 2.64 0 4 C-0.99 4 -1.98 4 -3 4 C-3 5.98 -3 7.96 -3 10 C-2.01 9.67 -1.02 9.34 0 9 C0 9.66 0 10.32 0 11 C-0.66 11.33 -1.32 11.66 -2 12 C-2.91031272 14.34386809 -2.91031272 14.34386809 -3.625 17.0625 C-3.88539063 17.98160156 -4.14578125 18.90070313 -4.4140625 19.84765625 C-4.60742188 20.55792969 -4.80078125 21.26820313 -5 22 C-15.8311045 22.79286517 -26.63961957 23.12978191 -37.5 23.1875 C-38.69923096 23.20039063 -39.89846191 23.21328125 -41.1340332 23.2265625 C-42.81565552 23.22849609 -42.81565552 23.22849609 -44.53125 23.23046875 C-46.04041992 23.23663208 -46.04041992 23.23663208 -47.58007812 23.24291992 C-50 23 -50 23 -52 21 C-52 17.04 -52 13.08 -52 9 C-59.92 9 -67.84 9 -76 9 C-76 12.63 -76 16.26 -76 20 C-79 24 -79 24 -81.47753906 24.60498047 C-82.9813916 24.67289795 -82.9813916 24.67289795 -84.515625 24.7421875 C-86.25682617 24.82484863 -86.25682617 24.82484863 -88.03320312 24.90917969 C-94.79216084 25.06392687 -101.54585838 25.14813386 -108.30664062 25.13037109 C-110.78781996 25.12491686 -113.26882548 25.13039914 -115.75 25.13671875 C-117.3281254 25.13605948 -118.90625069 25.13478148 -120.484375 25.1328125 C-121.22588806 25.13483673 -121.96740112 25.13686096 -122.73138428 25.13894653 C-127.88498851 25.11501149 -127.88498851 25.11501149 -129 24 C-129.07179964 22.48071962 -129.08392007 20.95832518 -129.0625 19.4375 C-129.05347656 18.61121094 -129.04445312 17.78492188 -129.03515625 16.93359375 C-129.02355469 16.29550781 -129.01195312 15.65742188 -129 15 C-128.67 15 -128.34 15 -128 15 C-127.67 17.64 -127.34 20.28 -127 23 C-120.32465139 22.88270365 -113.64947491 22.75786785 -106.97436523 22.62768555 C-104.70161164 22.58426335 -102.42882387 22.54259384 -100.15600586 22.50268555 C-96.89686768 22.44515881 -93.63790269 22.38141448 -90.37890625 22.31640625 C-89.35599991 22.29969376 -88.33309357 22.28298126 -87.27919006 22.26576233 C-86.33829025 22.24581711 -85.39739044 22.22587189 -84.42797852 22.20532227 C-83.59524918 22.18977798 -82.76251984 22.1742337 -81.90455627 22.15821838 C-79.99033415 22.20571386 -79.99033415 22.20571386 -79 21 C-78.84417697 19.65984779 -78.74955858 18.31241097 -78.68359375 16.96484375 C-78.62075195 15.75151367 -78.62075195 15.75151367 -78.55664062 14.51367188 C-78.51732422 13.66353516 -78.47800781 12.81339844 -78.4375 11.9375 C-78.37272461 10.65649414 -78.37272461 10.65649414 -78.30664062 9.34960938 C-78.20023298 7.23327963 -78.09958269 5.11666187 -78 3 C-84.15653732 3.11852687 -90.31292241 3.24279396 -96.46923828 3.37231445 C-98.56230544 3.41554894 -100.65540526 3.45723185 -102.74853516 3.49731445 C-105.76214426 3.55529601 -108.77559071 3.61890942 -111.7890625 3.68359375 C-112.72054108 3.70030624 -113.65201965 3.71701874 -114.61172485 3.73423767 C-119.17094252 3.83751847 -123.51340071 4.08774645 -128 5 C-128.33 7.64 -128.66 10.28 -129 13 C-129.99 12.34 -130.98 11.68 -132 11 C-131.34 11 -130.68 11 -130 11 C-130 9.35 -130 7.7 -130 6 C-130.99 6 -131.98 6 -133 6 C-133 4.68 -133 3.36 -133 2 C-114.52 2 -96.04 2 -77 2 C-76.505 4.475 -76.505 4.475 -76 7 C-75.01 6.67 -74.02 6.34 -73 6 C-71.37280518 5.91856145 -69.74248281 5.8924698 -68.11328125 5.90234375 C-67.17548828 5.90556641 -66.23769531 5.90878906 -65.27148438 5.91210938 C-63.80678711 5.92467773 -63.80678711 5.92467773 -62.3125 5.9375 C-61.32443359 5.94201172 -60.33636719 5.94652344 -59.31835938 5.95117188 C-56.87884526 5.96295697 -54.43945311 5.97940989 -52 6 C-51.67 4.35 -51.34 2.7 -51 1 C-34.03959778 -0.47025159 -17.00654727 -0.0946507 0 0 Z M-51 3 C-51.09986975 5.84335048 -51.13877881 8.65697163 -51.125 11.5 C-51.12886719 12.29792969 -51.13273437 13.09585938 -51.13671875 13.91796875 C-51.5089961 17.7683932 -51.5089961 17.7683932 -50 21 C-48.62390118 21.09795311 -47.24286118 21.12798088 -45.86328125 21.12939453 C-44.54686646 21.13412277 -44.54686646 21.13412277 -43.20385742 21.13894653 C-42.24970947 21.1369223 -41.29556152 21.13489807 -40.3125 21.1328125 C-38.85324097 21.13424759 -38.85324097 21.13424759 -37.36450195 21.13571167 C-35.303222 21.13639358 -33.24193992 21.13453853 -31.18066406 21.13037109 C-28.01362312 21.125023 -24.846724 21.13031572 -21.6796875 21.13671875 C-19.68229135 21.13605797 -17.68489529 21.13477681 -15.6875 21.1328125 C-14.73335205 21.13483673 -13.7792041 21.13686096 -12.79614258 21.13894653 C-11.91853271 21.13579437 -11.04092285 21.13264221 -10.13671875 21.12939453 C-9.36030029 21.12859894 -8.58388184 21.12780334 -7.78393555 21.12698364 C-5.97566338 21.19403542 -5.97566338 21.19403542 -5 20 C-4.92851801 18.64756083 -4.91600546 17.29165633 -4.9375 15.9375 C-4.958125 14.638125 -4.97875 13.33875 -5 12 C-6.65 12 -8.3 12 -10 12 C-8.35 11.67 -6.7 11.34 -5 11 C-4.67 8.03 -4.34 5.06 -4 2 C-10.53279339 1.97535653 -17.06555998 1.95716709 -23.59838867 1.94506836 C-25.82267732 1.94002683 -28.04696263 1.93319377 -30.27124023 1.92456055 C-33.46078309 1.91248702 -36.65028229 1.90677004 -39.83984375 1.90234375 C-40.84087631 1.89718246 -41.84190887 1.89202118 -42.87327576 1.88670349 C-43.79415482 1.88662796 -44.71503387 1.88655243 -45.66381836 1.88647461 C-46.47878281 1.884254 -47.29374725 1.88203339 -48.13340759 1.87974548 C-50.01477856 1.79471755 -50.01477856 1.79471755 -51 3 Z " fill="#442E25" transform="translate(266,165)"/>
<path d="M0 0 C5.80047444 2.29321082 7.76485625 9.09536001 10.12524414 14.48364258 C13.13652851 21.49549109 14.81166942 26.48816553 14.6875 34.0625 C14.0275 34.0625 13.3675 34.0625 12.6875 34.0625 C12.45675781 34.8565625 12.22601563 35.650625 11.98828125 36.46875 C10.32777633 41.05633117 8.15000704 45.25372378 5.875 49.5625 C5.44896484 50.39136719 5.02292969 51.22023437 4.58398438 52.07421875 C2.04989127 56.89704648 -0.48448427 61.15917904 -4.3125 65.0625 C-7.625 65.4375 -7.625 65.4375 -10.3125 65.0625 C-10.3125 62.0925 -10.3125 59.1225 -10.3125 56.0625 C-8.32682292 55.11848958 -6.34114583 54.17447917 -4.35546875 53.23046875 C-0.96058289 51.28960666 0.44230688 49.79807936 1.6875 46.0625 C2.40873047 45.34320313 2.40873047 45.34320313 3.14453125 44.609375 C6.51750765 41.22785941 7.45745726 36.39163582 8.25 31.8125 C7.23710796 25.05988638 3.90557604 17.63811022 -1.3125 13.0625 C-4.85768884 14.46009905 -4.85768884 14.46009905 -8.3125 16.0625 C-8.22534983 14.12416004 -8.11717036 12.1867571 -8 10.25 C-7.94199219 9.17105469 -7.88398438 8.09210938 -7.82421875 6.98046875 C-7.27535911 3.85071187 -6.81365509 2.92138316 -4.3125 1.0625 C-2.3125 0.0625 -2.3125 0.0625 0 0 Z " fill="#EFC5AF" transform="translate(289.3125,139.9375)"/>
<path d="M0 0 C2.62893904 5.15889732 3.11066803 8.88533214 2.9921875 14.72265625 C2.97197724 16.07046057 2.95281188 17.41828088 2.93457031 18.76611328 C2.92413696 19.46802795 2.91370361 20.16994263 2.9029541 20.89312744 C2.54145991 48.94681291 6.31054773 80.96309556 26.72485352 102.1640625 C39.42967077 114.8562021 52.46674584 122.01051977 70 126 C70.77859375 126.19851563 71.5571875 126.39703125 72.359375 126.6015625 C76.3416823 127.20244319 80.29211526 127.10375099 84.3125 127.0625 C85.14845703 127.05798828 85.98441406 127.05347656 86.84570312 127.04882812 C88.89716649 127.03710548 90.94859273 127.01917203 93 127 C93 127.66 93 128.32 93 129 C77.17988395 133.87983679 58.93511088 127.5791382 44.9375 120.4375 C37.70435184 116.45188775 31.96447656 111.70133789 26 106 C25.34 110.95 24.68 115.9 24 121 C23.67 121 23.34 121 23 121 C23.06960937 119.85402344 23.13921875 118.70804687 23.2109375 117.52734375 C23.83209931 109.39883895 23.83209931 109.39883895 21.875 101.69921875 C20.38973541 100.09780609 20.38973541 100.09780609 18.71484375 98.64453125 C9.07834633 89.40315217 4.63764433 71.60036371 2 59 C1.72639648 57.7473938 1.72639648 57.7473938 1.44726562 56.46948242 C-0.67447578 45.13072393 -0.21853603 33.67566638 -0.125 22.1875 C-0.11494907 20.03060312 -0.10582696 17.8737017 -0.09765625 15.71679688 C-0.07581271 10.47776415 -0.042503 5.23890375 0 0 Z " fill="#C88561" transform="translate(121,173)"/>
<path d="M0 0 C0.97582031 -0.00773438 1.95164063 -0.01546875 2.95703125 -0.0234375 C3.90191406 -0.02085937 4.84679687 -0.01828125 5.8203125 -0.015625 C7.09672607 -0.01224121 7.09672607 -0.01224121 8.39892578 -0.00878906 C11.17630651 0.28149131 13.33875547 1.1080379 15.875 2.25 C15.90212066 3.68739513 15.92145067 5.12493863 15.9375 6.5625 C15.94910156 7.36300781 15.96070313 8.16351563 15.97265625 8.98828125 C15.875 11.25 15.875 11.25 14.875 14.25 C-6.84840426 14.82446809 -6.84840426 14.82446809 -16.125 11.25 C-17.62243119 12.74743119 -17.45702693 14.23824239 -17.6875 16.3125 C-17.831875 17.611875 -17.97625 18.91125 -18.125 20.25 C-18.455 20.25 -18.785 20.25 -19.125 20.25 C-19.23769443 14.1394576 -19.02104368 8.29829486 -18.125 2.25 C-12.02624475 0.1094898 -6.42927753 -0.05136573 0 0 Z " fill="#7C7977" transform="translate(155.125,167.75)"/>
<path d="M0 0 C0.33 0 0.66 0 1 0 C1.09796875 1.09957031 1.1959375 2.19914062 1.296875 3.33203125 C2.73990831 18.18668686 5.59716079 30.21409948 17.58642578 40.33984375 C20.22996918 42.42681096 22.93346862 44.38528011 25.69140625 46.3203125 C26.45324219 46.87460938 27.21507812 47.42890625 28 48 C28 48.33 28 48.66 28 49 C21.42684522 49.36517527 16.20514474 48.13619737 10 46 C10 45.34 10 44.68 10 44 C8.40963415 42.46982639 8.40963415 42.46982639 6.375 40.875 C0.50191955 35.87663366 -5.33750384 29.76578687 -6.25 21.82421875 C-6.66116122 13.56244794 -3.6605326 7.22213189 0 0 Z " fill="#2A232B" transform="translate(138,40)"/>
<path d="M0 0 C0.66 0 1.32 0 2 0 C2.21914062 0.66386719 2.43828125 1.32773438 2.6640625 2.01171875 C5.05634233 8.86973182 5.05634233 8.86973182 9.9609375 14.0546875 C14.30486284 16.06853794 18.99022904 16.78474458 23.68066406 17.59667969 C26.39245842 18.06824645 29.09828572 18.56873658 31.8046875 19.0703125 C37.19971881 20.06625819 42.59853808 21.03959336 48 22 C47.505 18.535 47.505 18.535 47 15 C47.2475 15.5775 47.495 16.155 47.75 16.75 C51.74712199 23.94481959 58.66264934 25.2866091 66.02734375 27.73632812 C73.5998994 30.42075049 79.33032535 34.12466584 83.9375 40.8125 C85.17043802 44.51131405 85.54226215 47.94983381 85.7890625 51.828125 C85.87338212 54.04564523 85.87338212 54.04564523 87 56 C86.01 56 85.02 56 84 56 C82.32633157 57.79563491 82.32633157 57.79563491 80.75 60.125 C77.54766808 64.44712389 74.2006836 67.65659877 70 71 C69.34 70.67 68.68 70.34 68 70 C68.75925781 69.29875 69.51851563 68.5975 70.30078125 67.875 C78.84357299 59.93129513 78.84357299 59.93129513 82.1796875 49.01171875 C82.04068252 43.89832116 79.83187707 40.55304989 76.38671875 36.8984375 C71.80042756 33.25042192 66.41162364 31.14837389 61 29 C61.46921875 29.58265625 61.9384375 30.1653125 62.421875 30.765625 C65.9100435 35.70431902 66.4355347 41.22551799 65.4921875 47.03515625 C64.6937283 50.22265607 63.41868273 53.03927083 62 56 C61.375 54.25 61.375 54.25 61 52 C61.47373047 51.09314453 61.47373047 51.09314453 61.95703125 50.16796875 C63.81954491 46.29645159 63.43097609 42.20030667 63 38 C60.68689075 32.21722688 56.01445879 28.86810931 50.46484375 26.4765625 C45.50326741 24.68982636 40.43907032 23.8549283 35.25 23 C9.1753757 18.46255188 9.1753757 18.46255188 3 10 C2.34 10.66 1.68 11.32 1 12 C0.67 8.04 0.34 4.08 0 0 Z " fill="#1C151D" transform="translate(179,13)"/>
<path d="M0 0 C1.6254308 0.14095064 3.25034051 0.28792087 4.875 0.4375 C5.77992188 0.51871094 6.68484375 0.59992188 7.6171875 0.68359375 C10 1 10 1 12 2 C12 2.99 12 3.98 12 5 C10.35 5.33 8.7 5.66 7 6 C8.65 6 10.3 6 12 6 C12.09765625 12.15234375 12.09765625 12.15234375 12 14 C10.45498549 15.54501451 9.0133978 15.12719131 6.86328125 15.12939453 C5.54686646 15.13412277 5.54686646 15.13412277 4.20385742 15.13894653 C3.24970947 15.1369223 2.29556152 15.13489807 1.3125 15.1328125 C-0.14675903 15.13424759 -0.14675903 15.13424759 -1.63549805 15.13571167 C-3.696778 15.13639358 -5.75806008 15.13453853 -7.81933594 15.13037109 C-10.98637688 15.125023 -14.153276 15.13031572 -17.3203125 15.13671875 C-19.31770865 15.13605797 -21.31510471 15.13477681 -23.3125 15.1328125 C-24.26664795 15.13483673 -25.2207959 15.13686096 -26.20385742 15.13894653 C-27.08146729 15.13579437 -27.95907715 15.13264221 -28.86328125 15.12939453 C-29.63969971 15.12859894 -30.41611816 15.12780334 -31.21606445 15.12698364 C-33 15 -33 15 -34 14 C-34 12.02 -34 10.04 -34 8 C-22.78 8 -11.56 8 0 8 C0 5.36 0 2.72 0 0 Z " fill="#F1DACE" transform="translate(249,171)"/>
<path d="M0 0 C1.02204025 -0.00350464 1.02204025 -0.00350464 2.06472778 -0.00708008 C16.53990865 -0.02569903 30.71097611 1.34837672 45.0625 3.25 C44.7325 3.91 44.4025 4.57 44.0625 5.25 C42.13232422 5.59716797 42.13232422 5.59716797 39.6171875 5.7421875 C38.70453125 5.80792969 37.791875 5.87367188 36.8515625 5.94140625 C34.93267889 6.06230106 33.01339624 6.17704431 31.09375 6.28515625 C24.95254931 6.74101568 21.20503001 7.86622863 16.0625 11.25 C13.125 12 13.125 12 11.0625 12.25 C11.0625 11.59 11.0625 10.93 11.0625 10.25 C5.44556455 8.28407259 -0.25794823 6.87276015 -6.046875 5.52734375 C-7.66335937 5.14255859 -7.66335937 5.14255859 -9.3125 4.75 C-10.33085937 4.5128125 -11.34921875 4.275625 -12.3984375 4.03125 C-14.9375 3.25 -14.9375 3.25 -16.9375 1.25 C-11.51611162 -0.55712946 -5.67545477 0.00875413 0 0 Z " fill="#DB8089" transform="translate(185.9375,244.75)"/>
<path d="M0 0 C2.21550033 1.5008228 4.02218474 3.0570278 5.6953125 5.1484375 C5.6953125 5.8084375 5.6953125 6.4684375 5.6953125 7.1484375 C4.91220703 6.82359375 4.91220703 6.82359375 4.11328125 6.4921875 C-1.99439664 4.18175243 -7.82789155 2.65635709 -14.3046875 4.1484375 C-17.48965926 5.75743276 -20.40745404 7.73502234 -23.27026367 9.85839844 C-27.26123198 12.77382377 -30.34382564 14.00929137 -35.3046875 14.1484375 C-35.9646875 13.4884375 -36.6246875 12.8284375 -37.3046875 12.1484375 C-37.21639583 8.79335393 -36.62745842 7.47120842 -34.2421875 5.0859375 C-23.94737823 -1.70425585 -11.54727255 -6.59176287 0 0 Z " fill="#32292F" transform="translate(258.3046875,136.8515625)"/>
<path d="M0 0 C2.34765625 1.47265625 2.34765625 1.47265625 4 3 C4.3125 5.625 4.3125 5.625 4 8 C3 9 3 9 -0.75 9.4375 C-5.31532845 9.43023037 -8.44062244 8.02492425 -12.5 6 C-17.82911406 3.40043216 -22.09989335 1.37851679 -28 3 C-31.53643211 4.7324429 -34.75164991 6.78326204 -38 9 C-38.99 9.495 -38.99 9.495 -40 10 C-38.43522806 4.26250289 -34.07754724 -0.00321881 -29.17578125 -3.18359375 C-20.01798059 -6.61982416 -8.64255028 -3.68108623 0 0 Z " fill="#30282E" transform="translate(176,142)"/>
<path d="M0 0 C3.45248176 1.15082725 3.68652725 1.7475427 5.5625 4.6875 C12.33080129 13.96073632 23.21345393 16.90339849 33.94604492 19.46435547 C45.50359069 22.47841174 60.69871222 28.33946067 67 39 C69.51644942 44.20382748 71.13897994 49.54280899 71.09765625 55.328125 C71.09282227 56.52695313 71.09282227 56.52695313 71.08789062 57.75 C71.07532227 58.9875 71.07532227 58.9875 71.0625 60.25 C71.05798828 61.09046875 71.05347656 61.9309375 71.04882812 62.796875 C71.03707961 64.86461401 71.01914522 66.93231624 71 69 C70.67 69 70.34 69 70 69 C69.88785156 67.04320313 69.88785156 67.04320313 69.7734375 65.046875 C68.65006791 48.70454498 68.65006791 48.70454498 60.109375 35.0859375 C51.06823745 27.86014647 39.95117319 24.88915949 29.0859375 21.53125 C20.02997866 18.62765781 12.5447807 14.76803076 5 9 C5.3609375 9.55429687 5.721875 10.10859375 6.09375 10.6796875 C6.78984375 11.76636719 6.78984375 11.76636719 7.5 12.875 C7.9640625 13.59429687 8.428125 14.31359375 8.90625 15.0546875 C10 17 10 17 10 19 C10.99 19.33 11.98 19.66 13 20 C12.34 20.33 11.68 20.66 11 21 C8 19.1875 8 19.1875 5 17 C5 16.01 5 15.02 5 14 C4.21624122 11.95942803 3.37602709 9.94019527 2.5 7.9375 C0 2.20833333 0 2.20833333 0 0 Z " fill="#1C161E" transform="translate(149,13)"/>
<path d="M0 0 C12.87 0 25.74 0 39 0 C39 1.98 39 3.96 39 6 C26.13 6 13.26 6 0 6 C0 4.02 0 2.04 0 0 Z " fill="#7F7F7F" transform="translate(181,389)"/>
<path d="M0 0 C0.48984375 0.2165625 0.9796875 0.433125 1.484375 0.65625 C13.50156088 5.13161578 28.73884853 4.14965359 41 1 C38.38517603 3.09303174 36.02613643 4.55524756 32.875 5.6875 C31.85019531 6.06455078 31.85019531 6.06455078 30.8046875 6.44921875 C29 7 29 7 27 7 C27 7.66 27 8.32 27 9 C27.9075 9.103125 28.815 9.20625 29.75 9.3125 C33.0725419 10.0153454 34.42487307 10.91190795 37 13 C35.64636353 12.99214478 35.64636353 12.99214478 34.26538086 12.98413086 C30.89021149 12.96700242 27.5150889 12.95450788 24.13989258 12.94506836 C22.68415596 12.94006583 21.22842429 12.9332617 19.77270508 12.92456055 C17.67007212 12.912315 15.56750609 12.90673077 13.46484375 12.90234375 C12.202771 12.89710693 10.94069824 12.89187012 9.64038086 12.88647461 C6.02328018 12.99927401 2.56920449 13.41887318 -1 14 C2.48720616 9.6409923 5.72760915 9.05447817 11 8 C11 7.34 11 6.68 11 6 C10.29875 5.9175 9.5975 5.835 8.875 5.75 C5.33014368 4.82525487 2.92295379 3.17522143 0 1 C0 0.67 0 0.34 0 0 Z " fill="#D39675" transform="translate(179,261)"/>
<path d="M0 0 C1.4540625 0.495 1.4540625 0.495 2.9375 1 C5.62149574 2.05173363 5.62149574 2.05173363 7 2 C8.7865396 11.5097483 9.25206396 20.65075219 9.125 30.3125 C9.11493218 31.65038379 9.10581316 32.98827507 9.09765625 34.32617188 C9.07437244 37.55097962 9.0416741 40.77538654 9 44 C8.67 44 8.34 44 8 44 C8.00902344 42.741875 8.01804687 41.48375 8.02734375 40.1875 C7.90576926 29.2199752 6.4700732 20.79851095 1.49609375 10.9921875 C0 8 0 8 0 6 C-3.67920344 9.39209797 -5.85333211 13.113546 -7 18 C-6.36758429 23.47559931 -4.44609774 27.73386767 -1 32 C0.49743119 30.50256881 0.33202693 29.01175761 0.5625 26.9375 C0.706875 25.638125 0.85125 24.33875 1 23 C1.66 23.66 2.32 24.32 3 25 C2.74964126 29.50645731 2.25629805 32.74370195 -1 36 C-1.66 36 -2.32 36 -3 36 C-4.01799273 33.67315947 -5.01409574 31.34041236 -6 29 C-6.28617187 28.35160156 -6.57234375 27.70320313 -6.8671875 27.03515625 C-8.91177113 22.11841942 -9.50523508 18.32941524 -9 13 C-7.79296875 10.13671875 -7.79296875 10.13671875 -6.1875 7.6875 C-5.66542969 6.86636719 -5.14335938 6.04523438 -4.60546875 5.19921875 C-3.18931325 3.25932691 -1.75637892 1.62979305 0 0 Z " fill="#DBA588" transform="translate(112,152)"/>
<path d="M0 0 C18.48 0 36.96 0 56 0 C56.81239058 4.06195292 57.19297778 7.46165223 57.25 11.5625 C57.27578125 12.67753906 57.3015625 13.79257813 57.328125 14.94140625 C56.9555238 18.41458168 56.42170941 19.53712931 54 22 C51.52246094 22.60498047 51.52246094 22.60498047 48.484375 22.7421875 C46.74317383 22.82484863 46.74317383 22.82484863 44.96679688 22.90917969 C38.20783916 23.06392687 31.45414162 23.14813386 24.69335938 23.13037109 C22.21218004 23.12491686 19.73117452 23.13039914 17.25 23.13671875 C15.6718746 23.13605948 14.09374931 23.13478148 12.515625 23.1328125 C11.77411194 23.13483673 11.03259888 23.13686096 10.26861572 23.13894653 C5.11501149 23.11501149 5.11501149 23.11501149 4 22 C3.92820036 20.48071962 3.91607993 18.95832518 3.9375 17.4375 C3.94652344 16.61121094 3.95554688 15.78492188 3.96484375 14.93359375 C3.97644531 14.29550781 3.98804688 13.65742188 4 13 C4.33 13 4.66 13 5 13 C5.33 15.64 5.66 18.28 6 21 C12.67534861 20.88270365 19.35052509 20.75786785 26.02563477 20.62768555 C28.29838836 20.58426335 30.57117613 20.54259384 32.84399414 20.50268555 C36.10313232 20.44515881 39.36209731 20.38141448 42.62109375 20.31640625 C43.64400009 20.29969376 44.66690643 20.28298126 45.72080994 20.26576233 C46.66170975 20.24581711 47.60260956 20.22587189 48.57202148 20.20532227 C49.40475082 20.18977798 50.23748016 20.1742337 51.09544373 20.15821838 C53.00966585 20.20571386 53.00966585 20.20571386 54 19 C54.15582303 17.65984779 54.25044142 16.31241097 54.31640625 14.96484375 C54.37924805 13.75151367 54.37924805 13.75151367 54.44335938 12.51367188 C54.48267578 11.66353516 54.52199219 10.81339844 54.5625 9.9375 C54.62727539 8.65649414 54.62727539 8.65649414 54.69335938 7.34960938 C54.79976702 5.23327963 54.90041731 3.11666187 55 1 C48.84346268 1.11852687 42.68707759 1.24279396 36.53076172 1.37231445 C34.43769456 1.41554894 32.34459474 1.45723185 30.25146484 1.49731445 C27.23785574 1.55529601 24.22440929 1.61890942 21.2109375 1.68359375 C20.27945892 1.70030624 19.34798035 1.71701874 18.38827515 1.73423767 C13.82905748 1.83751847 9.48659929 2.08774645 5 3 C4.67 5.64 4.34 8.28 4 11 C3.01 10.34 2.02 9.68 1 9 C1.66 9 2.32 9 3 9 C3 7.35 3 5.7 3 4 C2.01 4 1.02 4 0 4 C0 2.68 0 1.36 0 0 Z " fill="#4D372F" transform="translate(133,167)"/>
<path d="M0 0 C12.54 0 25.08 0 38 0 C38.495 2.475 38.495 2.475 39 5 C26.13 5 13.26 5 0 5 C0 3.35 0 1.7 0 0 Z " fill="#919191" transform="translate(181,360)"/>
<path d="M0 0 C0.66 0.33 1.32 0.66 2 1 C1.48050781 1.43828125 0.96101563 1.8765625 0.42578125 2.328125 C-7.82882501 9.8350867 -11.59836676 19.07930569 -12.16113281 30.17773438 C-12.207528 33.95192905 -12.24415936 37.72554488 -12.25 41.5 C-12.25233643 42.18353546 -12.25467285 42.86707092 -12.25708008 43.57131958 C-12.27294479 55.90090173 -11.14097973 67.8550376 -9 80 C-9.66 80 -10.32 80 -11 80 C-11.65001678 77.00085281 -12.29511037 74.00078199 -12.9375 71 C-13.11990234 70.16082031 -13.30230469 69.32164062 -13.49023438 68.45703125 C-17.12993653 51.38351932 -20.07238577 26.44899669 -10.25 10.875 C-7.1871678 6.9271786 -3.67373047 3.38026679 0 0 Z " fill="#1D161E" transform="translate(129,71)"/>
<path d="M0 0 C9.07685063 6.01194003 15.55066428 13.20408178 18 24 C21.02758365 40.07353559 20.12388099 58.19178954 16 74 C15.34 74 14.68 74 14 74 C14.14469531 72.20824107 14.29083261 70.41659858 14.4375 68.625 C14.52773438 67.51640625 14.61796875 66.4078125 14.7109375 65.265625 C14.94473533 62.6243414 15.24051108 60.00610943 15.5625 57.375 C17.03020968 42.65055774 18.52626817 23.20269589 9 11 C6.67089486 8.52239486 4.28923405 6.15659984 1.79296875 3.84765625 C0 2 0 2 0 0 Z " fill="#1B151D" transform="translate(267,69)"/>
<path d="M0 0 C1.65 0 3.3 0 5 0 C5.33 0.66 5.66 1.32 6 2 C8.02463255 2.65213292 8.02463255 2.65213292 10 3 C10 2.01 10 1.02 10 0 C11.47906892 -0.02689216 12.95827483 -0.04634621 14.4375 -0.0625 C15.26121094 -0.07410156 16.08492187 -0.08570313 16.93359375 -0.09765625 C19 0 19 0 20 1 C20 3.64 20 6.28 20 9 C14.06 9 8.12 9 2 9 C1.34 6.03 0.68 3.06 0 0 Z " fill="#787878" transform="translate(229,170)"/>
<path d="M0 0 C0.495 0.99 0.495 0.99 1 2 C-0.36666686 4.41908927 -1.77342324 6.69485646 -3.3125 9 C-3.72951172 9.64195312 -4.14652344 10.28390625 -4.57617188 10.9453125 C-6.24666831 13.49235332 -7.84071329 15.84071329 -10 18 C-10.14507695 20.74485593 -10.18652423 23.38480543 -10.125 26.125 C-10.11597656 26.87910156 -10.10695312 27.63320313 -10.09765625 28.41015625 C-10.0740687 30.27357254 -10.03819719 32.13682593 -10 34 C-10.99 34.33 -11.98 34.66 -13 35 C-13.09087891 33.95199219 -13.09087891 33.95199219 -13.18359375 32.8828125 C-13.26738281 31.97273438 -13.35117188 31.06265625 -13.4375 30.125 C-13.51871094 29.22007812 -13.59992188 28.31515625 -13.68359375 27.3828125 C-13.86989285 24.98889139 -13.86989285 24.98889139 -15 23 C-15.55945313 23.556875 -16.11890625 24.11375 -16.6953125 24.6875 C-24.44203347 32.06058491 -33.67553969 38.74806155 -44 42 C-44.99 41.67 -45.98 41.34 -47 41 C-46.47680176 40.73896484 -45.95360352 40.47792969 -45.41455078 40.20898438 C-30.85722108 32.90514064 -30.85722108 32.90514064 -18 23 C-17.33355469 22.42378906 -16.66710937 21.84757812 -15.98046875 21.25390625 C-9.3530153 15.17547261 -4.78830775 7.53569744 0 0 Z " fill="#C78460" transform="translate(266,258)"/>
<path d="M0 0 C1.32 0.33 2.64 0.66 4 1 C3.01 1 2.02 1 1 1 C1.02356567 2.20946289 1.02356567 2.20946289 1.04760742 3.44335938 C1.11031976 7.1288337 1.1491062 10.81419535 1.1875 14.5 C1.21263672 15.7684375 1.23777344 17.036875 1.26367188 18.34375 C1.35095014 29.515368 -0.67731568 35.76658055 -7.57421875 44.60546875 C-9.19510043 47.32766182 -9.29300765 48.88748475 -9 52 C-6.69 52.66 -4.38 53.32 -2 54 C-2 54.33 -2 54.66 -2 55 C-8.3833448 55.48176187 -8.3833448 55.48176187 -11 53.4375 C-12.51976982 49.73306106 -12.13839311 47.85788777 -11 44 C-9.90743027 42.70117986 -8.77782998 41.43314256 -7.625 40.1875 C0.78123414 30.041451 -0.46135823 12.56803451 0 0 Z " fill="#C38868" transform="translate(190,174)"/>
<path d="M0 0 C4.29 0 8.58 0 13 0 C12.67 0.99 12.34 1.98 12 3 C11.01 3 10.02 3 9 3 C9 3.66 9 4.32 9 5 C7.2984375 5.680625 7.2984375 5.680625 5.5625 6.375 C1.95278308 7.57095806 1.95278308 7.57095806 1 10 C5.95 9.67 10.9 9.34 16 9 C16 9.66 16 10.32 16 11 C19.63 11 23.26 11 27 11 C27 11.33 27 11.66 27 12 C23.2500163 12.02905924 19.50006163 12.04681874 15.75 12.0625 C14.15478516 12.07506836 14.15478516 12.07506836 12.52734375 12.08789062 C11.50253906 12.09111328 10.47773438 12.09433594 9.421875 12.09765625 C8.47924805 12.10289307 7.53662109 12.10812988 6.56542969 12.11352539 C4 12 4 12 0 11 C0 7.37 0 3.74 0 0 Z " fill="#D5C4BC" transform="translate(215,168)"/>
<path d="M0 0 C3.96 0 7.92 0 12 0 C12 3.3 12 6.6 12 10 C2.25 9.125 2.25 9.125 0 8 C0 5.36 0 2.72 0 0 Z " fill="#FBFBFB" transform="translate(138,169)"/>
<path d="M0 0 C2.26176007 4.22195213 3.12725908 7.71384137 3.11352539 12.49316406 C3.11341209 13.81408051 3.11341209 13.81408051 3.11329651 15.16168213 C3.10813522 16.10348328 3.10297394 17.04528442 3.09765625 18.015625 C3.0962413 18.98659119 3.09482635 19.95755737 3.09336853 20.95794678 C3.08777663 24.05532935 3.07522559 27.15263932 3.0625 30.25 C3.05748395 32.35156146 3.05292123 34.45312404 3.04882812 36.5546875 C3.03780985 41.70315292 3.02055074 46.85156416 3 52 C2.67 52 2.34 52 2 52 C-0.36140787 46.4192333 -0.2582471 41.29731643 -0.1953125 35.3515625 C-0.1924826 34.33903412 -0.18965271 33.32650574 -0.18673706 32.28329468 C-0.17558254 29.06374062 -0.15048646 25.84446935 -0.125 22.625 C-0.1149641 20.43620195 -0.10583931 18.24739951 -0.09765625 16.05859375 C-0.0756587 10.70563342 -0.04222824 5.35283692 0 0 Z " fill="#C4805C" transform="translate(121,173)"/>
<path d="M0 0 C11.22 0 22.44 0 34 0 C34 1.32 34 2.64 34 4 C33.01 4 32.02 4 31 4 C31 5.98 31 7.96 31 10 C31.99 9.67 32.98 9.34 34 9 C34 9.66 34 10.32 34 11 C33.34 11.33 32.68 11.66 32 12 C31.31527335 13.88764903 31.31527335 13.88764903 30.875 16.0625 C30.70742188 16.79597656 30.53984375 17.52945313 30.3671875 18.28515625 C30.24601562 18.85105469 30.12484375 19.41695312 30 20 C29.67 20 29.34 20 29 20 C29 17.36 29 14.72 29 12 C28.01 12.495 28.01 12.495 27 13 C24.3276379 13.13415472 21.67749512 13.04318541 19 13 C19 12.67 19 12.34 19 12 C22.3 11.67 25.6 11.34 29 11 C29.33 8.03 29.66 5.06 30 2 C15.15 1.505 15.15 1.505 0 1 C0 0.67 0 0.34 0 0 Z " fill="#674C40" transform="translate(232,165)"/>
<path d="M0 0 C18.48 0 36.96 0 56 0 C55.67 0.66 55.34 1.32 55 2 C53.69853027 1.99476318 52.39706055 1.98952637 51.05615234 1.98413086 C46.2143625 1.96599162 41.37257565 1.95453538 36.53076172 1.94506836 C34.43765762 1.94004854 32.34455701 1.93323132 30.25146484 1.92456055 C27.23794695 1.91239195 24.22447554 1.90674809 21.2109375 1.90234375 C20.27945892 1.89718246 19.34798035 1.89202118 18.38827515 1.88670349 C13.80717591 1.8863105 9.50762724 2.05737752 5 3 C4.67 5.64 4.34 8.28 4 11 C3.01 10.34 2.02 9.68 1 9 C1.66 9 2.32 9 3 9 C3 7.35 3 5.7 3 4 C2.01 4 1.02 4 0 4 C0 2.68 0 1.36 0 0 Z " fill="#2A150E" transform="translate(133,167)"/>
<path d="M0 0 C2.97 0.99 5.94 1.98 9 3 C9 3.66 9 4.32 9 5 C9.66 5 10.32 5 11 5 C11 5.66 11 6.32 11 7 C11.66 7.33 12.32 7.66 13 8 C9.85069107 9.04976964 7.61185544 9.10131595 4.3125 9.0625 C3.31863281 9.05347656 2.32476562 9.04445312 1.30078125 9.03515625 C0.16189453 9.01775391 0.16189453 9.01775391 -1 9 C-0.67 6.03 -0.34 3.06 0 0 Z " fill="#FEFEFE" transform="translate(172,171)"/>
<path d="M0 0 C7.50898981 8.39947898 12.18039928 21.99564413 12 33 C11.67 33 11.34 33 11 33 C10.9484375 32.46375 10.896875 31.9275 10.84375 31.375 C9.30372622 20.73483567 3.58412053 11.05012637 -2 2 C-4.92879371 2.62759865 -7.36095629 3.58622659 -10 5 C-9.75 3.125 -9.75 3.125 -9 1 C-5.88641561 -1.3351883 -3.54395546 -1.55588288 0 0 Z " fill="#E0AD91" transform="translate(292,141)"/>
<path d="M0 0 C0 2.31 0 4.62 0 7 C-4.62 7 -9.24 7 -14 7 C-13.67 6.01 -13.34 5.02 -13 4 C-8.93807314 1.96903657 -4.63840429 0 0 0 Z " fill="#FDFDFD" transform="translate(230,171)"/>
<path d="M0 0 C8.24575681 2.2222607 16.03844461 5.50432127 20.875 12.875 C24.12842346 18.77394081 26.51434595 24.14205398 26 31 C24.32580441 27.81141841 23.04347219 24.54621611 21.75 21.1875 C17.06650591 10.09784733 10.58639778 6.16754432 0 1 C0 0.67 0 0.34 0 0 Z " fill="#1D161E" transform="translate(166,37)"/>
<path d="M0 0 C2.43618715 2.21835611 3.88414616 4.37910347 5.375 7.30859375 C6.01695313 8.55286133 6.01695313 8.55286133 6.671875 9.82226562 C7.11015625 10.68529297 7.5484375 11.54832031 8 12.4375 C8.87167182 14.14623314 9.74656867 15.85332571 10.625 17.55859375 C11.00914063 18.31454834 11.39328125 19.07050293 11.7890625 19.84936523 C14.08533165 23.92755777 15.11526478 25.70008976 19.6875 27.25 C20.780625 27.4975 21.87375 27.745 23 28 C23 28.66 23 29.32 23 30 C19.38843031 30.41994996 17.61401119 30.47502892 14.6875 28.2109375 C10.68006726 23.94637565 8.30938314 18.48299373 5.6875 13.3125 C4.86282227 11.72598633 4.86282227 11.72598633 4.02148438 10.10742188 C0 2.2892566 0 2.2892566 0 0 Z " fill="#E2AF93" transform="translate(98,177)"/>
<path d="M0 0 C2.3125 1.4375 2.3125 1.4375 3.125 3.5625 C3.186875 4.18125 3.24875 4.8 3.3125 5.4375 C2.735 5.086875 2.1575 4.73625 1.5625 4.375 C-1.12480767 3.25528847 -2.01417561 3.39504476 -4.6875 4.4375 C-5.90940405 5.9532823 -5.90940405 5.9532823 -6.72265625 7.89453125 C-7.05716797 8.59513672 -7.39167969 9.29574219 -7.73632812 10.01757812 C-8.07083984 10.75427734 -8.40535156 11.49097656 -8.75 12.25 C-12.88547486 21.11173184 -12.88547486 21.11173184 -15.6875 24.4375 C-15.12425743 19.0824923 -13.27685184 14.97959936 -10.875 10.25 C-10.53146484 9.53908203 -10.18792969 8.82816406 -9.83398438 8.09570312 C-5.22623395 -1.09386292 -5.22623395 -1.09386292 0 0 Z " fill="#E1AE91" transform="translate(113.6875,139.5625)"/>
<path d="M0 0 C2.94956528 1.36944102 5.52468811 2.87830409 8 5 C8 5.66 8 6.32 8 7 C14.1796648 5.82799461 17.43966604 4.33231726 22 0 C20.44303593 3.82163907 17.96591316 6.18618495 15 9 C14.67 9.33 14.34 9.66 14 10 C10.69534309 10.45898013 9.28498763 10.18072386 6.4375 8.375 C3.79778058 5.80296569 1.92353194 3.13464465 0 0 Z " fill="#CD8D6B" transform="translate(187,224)"/>
<path d="M0 0 C1 2 1 2 0.41015625 4.23046875 C-0.13561221 7.91570532 0.9195563 9.94340544 2.4375 13.3125 C2.91058594 14.38113281 3.38367188 15.44976562 3.87109375 16.55078125 C4.24363281 17.35902344 4.61617188 18.16726562 5 19 C5.66 18.67 6.32 18.34 7 18 C7.46523063 16.10466658 7.46523063 16.10466658 7.625 13.9375 C7.74875 12.638125 7.8725 11.33875 8 10 C8.66 10.66 9.32 11.32 10 12 C9.74964126 16.50645731 9.25629805 19.74370195 6 23 C5.34 23 4.68 23 4 23 C2.95803611 20.65331612 1.94183447 18.30024695 0.9375 15.9375 C0.64294922 15.28072266 0.34839844 14.62394531 0.04492188 13.94726562 C-1.91558008 9.26512566 -2.23578731 6.07902114 -1 1 C-0.67 0.67 -0.34 0.34 0 0 Z " fill="#CB8966" transform="translate(105,165)"/>
<path d="M0 0 C1.6254308 0.14095064 3.25034051 0.28792087 4.875 0.4375 C5.77992188 0.51871094 6.68484375 0.59992188 7.6171875 0.68359375 C10 1 10 1 12 2 C12 2.99 12 3.98 12 5 C8.37 5.33 4.74 5.66 1 6 C0.67 4.02 0.34 2.04 0 0 Z " fill="#FDFDFD" transform="translate(249,171)"/>
<path d="M0 0 C8.25 0 16.5 0 25 0 C25 0.66 25 1.32 25 2 C21.21399184 3.21075388 17.57662529 3.13288748 13.625 3.125 C11.69527344 3.12886719 11.69527344 3.12886719 9.7265625 3.1328125 C6.3825749 3.01363474 3.27902051 2.63956128 0 2 C0 1.34 0 0.68 0 0 Z " fill="#C37C57" transform="translate(189,300)"/>
<path d="M0 0 C2.80084946 2.52610674 3.87755738 4.55224252 4.28125 8.39453125 C3.64947725 14.24720385 0.54476328 19.74819868 -2 25 C-2.99 24.67 -3.98 24.34 -5 24 C-5.6875 21.9375 -5.6875 21.9375 -6 20 C-5.01 20.33 -4.02 20.66 -3 21 C1.35271482 12.7615059 1.35271482 12.7615059 1.3125 3.75 C0.879375 2.5125 0.44625 1.275 0 0 Z " fill="#CB8A67" transform="translate(293,163)"/>
<path d="M0 0 C2 2 2 2 2.1953125 5.0390625 C2.17210937 6.22242188 2.14890625 7.40578125 2.125 8.625 C2.10695313 9.81351562 2.08890625 11.00203125 2.0703125 12.2265625 C2.04710937 13.14179688 2.02390625 14.05703125 2 15 C1.01 15.33 0.02 15.66 -1 16 C-1.22197585 13.89722877 -1.42713637 11.79267698 -1.625 9.6875 C-1.74101562 8.51574219 -1.85703125 7.34398437 -1.9765625 6.13671875 C-2 3 -2 3 0 0 Z " fill="#C17A54" transform="translate(254,277)"/>
<path d="M0 0 C7.59 0 15.18 0 23 0 C22.67 0.66 22.34 1.32 22 2 C19.93359375 2.4140625 19.93359375 2.4140625 17.4375 2.625 C16.61121094 2.69976562 15.78492188 2.77453125 14.93359375 2.8515625 C13.97646484 2.92503906 13.97646484 2.92503906 13 3 C13 3.66 13 4.32 13 5 C11.35 5 9.7 5 8 5 C8.99 4.67 9.98 4.34 11 4 C11 3.34 11 2.68 11 2 C7.37 1.67 3.74 1.34 0 1 C0 0.67 0 0.34 0 0 Z " fill="#D5C0B6" transform="translate(216,167)"/>
<path d="M0 0 C0.53625 0.20496094 1.0725 0.40992188 1.625 0.62109375 C9.66848033 3.38604011 17.57785798 3.69697008 26 4 C26 4.33 26 4.66 26 5 C21.71 5 17.42 5 13 5 C13 5.99 13 6.98 13 8 C12.34 8 11.68 8 11 8 C11 7.34 11 6.68 11 6 C10.29875 5.9175 9.5975 5.835 8.875 5.75 C5.33014368 4.82525487 2.92295379 3.17522143 0 1 C0 0.67 0 0.34 0 0 Z " fill="#DBA486" transform="translate(179,261)"/>
<path d="M0 0 C0.66 1.32 1.32 2.64 2 4 C2.99 4 3.98 4 5 4 C5 4.66 5 5.32 5 6 C4.01 6.495 4.01 6.495 3 7 C2.31527335 8.88764903 2.31527335 8.88764903 1.875 11.0625 C1.62363281 12.16271484 1.62363281 12.16271484 1.3671875 13.28515625 C1.24601562 13.85105469 1.12484375 14.41695312 1 15 C0.67 15 0.34 15 0 15 C0 12.36 0 9.72 0 7 C-0.99 7.495 -0.99 7.495 -2 8 C-4.6723621 8.13415472 -7.32250488 8.04318541 -10 8 C-10 7.67 -10 7.34 -10 7 C-6.7 6.67 -3.4 6.34 0 6 C0 4.02 0 2.04 0 0 Z " fill="#756660" transform="translate(261,170)"/>
<path d="M0 0 C0.33 0 0.66 0 1 0 C1 9.57 1 19.14 1 29 C0.67 29 0.34 29 0 29 C-0.01981934 28.42032471 -0.03963867 27.84064941 -0.06005859 27.2434082 C-0.15572601 24.59934063 -0.26523453 21.9560183 -0.375 19.3125 C-0.4059375 18.40048828 -0.436875 17.48847656 -0.46875 16.54882812 C-0.67243702 11.88100054 -1.10091842 8.31834639 -3 4 C-2.67 3.01 -2.34 2.02 -2 1 C-1.67 1.66 -1.34 2.32 -1 3 C-0.67 2.01 -0.34 1.02 0 0 Z " fill="#D49A7C" transform="translate(120,167)"/>
<path d="M0 0 C1.258125 -0.04125 2.51625 -0.0825 3.8125 -0.125 C4.52019531 -0.14820313 5.22789062 -0.17140625 5.95703125 -0.1953125 C8 0 8 0 11 2 C9.02 2.33 7.04 2.66 5 3 C4.67 5.64 4.34 8.28 4 11 C3.01 10.34 2.02 9.68 1 9 C1.66 9 2.32 9 3 9 C3 7.35 3 5.7 3 4 C2.01 4 1.02 4 0 4 C0 2.68 0 1.36 0 0 Z " fill="#3E2921" transform="translate(133,167)"/>
<path d="M0 0 C4.62 0 9.24 0 14 0 C14 0.33 14 0.66 14 1 C12.35 1 10.7 1 9 1 C9 1.66 9 2.32 9 3 C9.66 3.33 10.32 3.66 11 4 C9.35 3.67 7.7 3.34 6 3 C6 4.98 6 6.96 6 9 C5.67 9 5.34 9 5 9 C5 6.69 5 4.38 5 2 C3.35 1.67 1.7 1.34 0 1 C0 0.67 0 0.34 0 0 Z " fill="#D3C4BD" transform="translate(166,168)"/>
<path d="M0 0 C0.33 0 0.66 0 1 0 C1 6.6 1 13.2 1 20 C-1.12508244 16.81237635 -1.5020163 14.73487777 -2 11 C-1.34 11 -0.68 11 0 11 C0 7.37 0 3.74 0 0 Z " fill="#453536" transform="translate(123,160)"/>
<path d="M0 0 C0.33 0.99 0.66 1.98 1 3 C0.00390625 4.82421875 0.00390625 4.82421875 -1.4375 6.6875 C-1.91058594 7.31011719 -2.38367188 7.93273437 -2.87109375 8.57421875 C-3.24363281 9.04472656 -3.61617187 9.51523438 -4 10 C-4.99 9.67 -5.98 9.34 -7 9 C-4.69 6.03 -2.38 3.06 0 0 Z " fill="#C5815C" transform="translate(188,207)"/>
<path d="M0 0 C3.63 0 7.26 0 11 0 C11 0.33 11 0.66 11 1 C9.35 1 7.7 1 6 1 C6 1.99 6 2.98 6 4 C4.35 3.67 2.7 3.34 1 3 C0.67 2.01 0.34 1.02 0 0 Z " fill="#DED7D2" transform="translate(233,169)"/>
<path d="M0 0 C3.63 0 7.26 0 11 0 C8.09907498 1.93395001 7.10325263 2.30131941 3.8125 2.625 C2.554375 2.74875 1.29625 2.8725 0 3 C0 2.01 0 1.02 0 0 Z " fill="#E5D5CD" transform="translate(138,169)"/>
<path d="M0 0 C0 3 0 3 -2.25 5.625 C-4.72881204 7.76579221 -5.83568489 8.64840943 -9 9 C-6 6 -3 3 0 0 Z " fill="#C88561" transform="translate(208,224)"/>
<path d="M0 0 C0.99 0 1.98 0 3 0 C2.34 3.63 1.68 7.26 1 11 C0.67 11 0.34 11 0 11 C0 7.37 0 3.74 0 0 Z " fill="#47383A" transform="translate(276,167)"/>
<path d="M0 0 C-1.28913487 0.67154933 -2.58140204 1.33708859 -3.875 2 C-4.59429687 2.37125 -5.31359375 2.7425 -6.0546875 3.125 C-8 4 -8 4 -10 4 C-10.33 3.01 -10.66 2.02 -11 1 C-3.375 -1.125 -3.375 -1.125 0 0 Z " fill="#D89E7F" transform="translate(220,263)"/>
<path d="M0 0 C1.65 0 3.3 0 5 0 C5 1.32 5 2.64 5 4 C3.68 4 2.36 4 1 4 C0.67 2.68 0.34 1.36 0 0 Z " fill="#F5F5F5" transform="translate(154,169)"/>
<path d="" fill="#1A161E" transform="translate(0,0)"/>
<path d="" fill="#181820" transform="translate(0,0)"/>
</svg>
