<svg xmlns="http://www.w3.org/2000/svg" version="1.1" width="600px" height="600px" viewBox="0 0 200 200" style="overflow:hidden!important;"><defs id="SvgjsDefs2848"></defs><g id="svga-group-wrapper"><g id="svga-group-backs-single"></g><g id="svga-group-humanwrap-move" transform="matrix(1,0,0,1,0,0)"><g id="svga-group-humanwrap" transform="matrix(1,0,0,1,0,0)"><g id="svga-group-hair-back-move" transform="matrix(1,0,0,1,0,0)"><g id="svga-group-hair-back" transform="matrix(1,0,0,1,0,0)"></g></g><g id="svga-group-humanbody-back"><path id="SvgjsPath3152" d="m168.5 219.5-1.7-21.5s.7-9-8.8-15.3-23.4-10.1-29.5-14.2c-6.1-4.1-9.2-4.5-9-16.9s.9-40.3.9-40.3H79.6s.7 27.9.9 40.3c.2 12.4-2.9 12.8-9 16.9-6.1 4.1-20 7.9-29.5 14.2S33.2 198 33.2 198l-1.6 21.5h136.9z" fill="#73512d" stroke-width="none" opacity="1" stroke="none"></path></g><g id="svga-group-chinshadow-single"><path id="SvgjsPath3148" d="M80.4 155.4c5.9 5.8 12.6 9.3 19.6 9.3s13.7-3.5 19.6-9.3c-.1-1.1-.1-2.4-.1-3.8.2-12.4.9-40.3.9-40.3H79.6s.7 27.9.9 40.3c0 1.4 0 2.7-.1 3.8z" fill="#543310" stroke-width="none" opacity="0.65" stroke="none"></path></g><g id="svga-group-humanbody-front"><path id="SvgjsPath3153" d="M73.8 175.9c5.1 2.9 11.8 5.2 17.6 5.7.4 0 .4-.6.1-.7-2.8-1.1-5.9-1.7-8.8-2.6-2.9-.9-5.8-2-8.8-2.7-.1-.1-.3.2-.1.3zm35.2 6.2c5.3-.6 11.3-3 15.9-5.8.3-.2.1-.6-.2-.5-2.6.9-5.2 2-7.8 2.9-2.6.9-5.4 1.5-8 2.5-.5.1-.5.9.1.9z" fill="#543310" stroke-width="none" opacity="1" stroke="none"></path><path id="SvgjsPath3154" d="m168.4 219.4-2.1-21.4c0-2.2-.5-4.5-1.5-6.6-.9-2.1-2.3-3.9-3.9-5.5s-3.5-2.8-5.5-4c-2-1.2-4.1-2.2-6.2-3.1-4.2-1.9-8.6-3.6-12.9-5.4-2.2-.9-4.3-1.9-6.4-3-1.1-.6-2.1-1.2-3-1.9-1-.6-2-1.2-3-1.9s-2-1.5-2.8-2.6c-.8-1-1.3-2.2-1.7-3.4-.7-2.4-.8-4.8-.8-7.2 0-4.7.2-9.4.3-14.1.2-9.4.6-18.7.9-28l.6.6-20.4-.2-20.4-.1.3-.3.7 28c.1 4.7.3 9.3.4 14 0 2.4-.1 4.7-.8 7.1-.3 1.2-.9 2.3-1.6 3.3-.8 1-1.7 1.8-2.7 2.5s-2 1.3-2.9 2c-.9.6-1.9 1.3-3 1.9-2.1 1.2-4.2 2.1-6.4 3.1-4.3 1.9-8.6 3.6-12.8 5.6-2.1 1-4.2 2.1-6.1 3.2-2 1.2-3.8 2.4-5.4 4-1.6 1.6-2.9 3.4-3.8 5.4-.4 1-.8 2.1-1 3.1-.2 1.1-.4 2.2-.3 3.2v.2l-1.5 21.5-1-1.1 34 .1c11.3 0 22.7.1 34.1.2l34.2.3 34.4.5zm.2.2-34 .4-34.2.3c-11.4.1-22.9.2-34.4.2l-34.4.1h-1.1l.1-1.1 1.7-21.5v.1c-.1-5.1 2.2-9.8 5.7-13.3 1.7-1.7 3.8-3.1 5.8-4.3 2-1.2 4.2-2.2 6.3-3.2 4.3-2 8.7-3.7 13-5.4 2.1-.9 4.3-1.8 6.3-2.9 1-.5 1.9-1.1 3-1.8 1-.6 2-1.2 2.9-1.9.9-.6 1.8-1.4 2.4-2.2.7-.9 1.2-1.9 1.5-2.9.6-2.1.8-4.5.8-6.8 0-4.6-.1-9.3-.2-14l-.6-28v-.3h.3l20.4-.1 20.4-.2h.6v.6c-.1 9.3-.2 18.7-.4 28-.1 4.7-.2 9.4-.2 14 .1 2.3.2 4.6.8 6.7.3 1.1.8 2 1.4 2.9.6.8 1.4 1.6 2.4 2.2.9.6 1.9 1.3 2.9 1.9 1 .7 1.9 1.3 2.9 1.8 2 1.1 4.1 2.1 6.3 3 4.3 1.8 8.6 3.6 12.9 5.6 2.1 1 4.2 2.1 6.2 3.3 2 1.2 4 2.6 5.7 4.3 3.4 3.4 5.6 8.1 5.4 13v-.1l1.4 21.6zm-112.8-.4 1.9-13.8.1 13.8h-2zm88.6 0-1.9-13.8-.1 13.8h2z" fill="#452706" stroke-width="none" opacity="1" stroke="none"></path></g><g id="svga-group-clothes-single"><path id="SvgjsPath5378" d="M172 220s-1.3-17.2-2.6-22.7-4-12.6-5.1-13.4c-1.1-.9-1.9-.4-1.9-.4s-1.1-.9-4.5-3.4-18.5-7.2-20.4-8.5c-1.9-1.3-10.2-4.7-10.2-4.7l.2-2.3s-2.6-1.9-3.4-3.4c-.8-1.5-1.3-3.6-1.3-3.6l-.4-2.5s-.6 2-1 3.3-1 6.5-1.5 8.8c-.3 1.5-2.2 4.6-3.5 6.1-1.5 1.6-3.8 3-6.1 4.2-3.4 1.8-4.8 2.4-5.4 3.1-.6.7-.9 2.9-1.9 6l-1.1 2.6s-2.9-3.9-4.5-6.4c-1.6-2.5-3.1-3.4-4-3.4s-5.7.1-6.1-.2-1.8-1.7-2.4-2.8c-.7-1.1-3.4-8.1-4.1-9.5-.7-1.4-2-7.2-2.4-8.5-.3-1.3-.6-3.1-.6-3.1l-.4 1.1s-.8 3.4-1.7 4.9c-.8 1.5-3.4 3.4-3.4 3.4l.2 2.3s-8.3 3.4-10.2 4.7c-1.9 1.3-17 6-20.4 8.5s-4.5 3.4-4.5 3.4-.8-.4-1.9.4c-1.1.9-3.8 7.9-5.1 13.4S28 220 28 220" fill="#ffffff" stroke-width="none" opacity="1" stroke="none"></path><path id="SvgjsPath5379" d="M163.9 185.7c-.1-.4-.8-.2-.7.2 2.9 9.4 4.1 19.1 5.7 28.8 0 .2.4.1.4-.1.6-10-1.9-19.6-5.4-28.9zm-3.1-1.1c-2.3 4.8-3.6 10.2-3.9 15.5 0 .2.3.2.3 0 .8-5.4 2.1-10.3 3.9-15.5 0 0-.2-.1-.3 0zm-59.6 12.5c-.2-.1-.4-.2-.2-.4.3-.3-.1-.7-.4-.6-1 .4-.1 2.1.7 1.4.1-.1 0-.3-.1-.4zm-.4 16.4c0-.2-.2-.3-.4-.1-.6.5 0 1.6.7 1.3.1 0 .1-.2 0-.2-.1-.4-.3-.6-.3-1zm6.9-31.2c-.3 0-.7-.1-.7-.5 0-.2-.4-.3-.4-.1-.1.4 0 .7.3.9.3.2.7.2.9 0 .2-.1.1-.3-.1-.3zm-22.9-3.5c-2.3 1.4-4.4 3.4-6.4 5.2-1.9 1.9-4.1 3.8-5.4 6.2-.1.2.1.3.3.2 2.1-1.8 3.7-4 5.7-5.9 2-1.9 4.2-3.5 6.2-5.4.1-.1-.2-.4-.4-.3zm-45.5 5.6c1 7.4 3.8 14.6 5 22.1 0 .1.1.1.1 0-.4-7.2-1-15.8-4.7-22.1-.1-.3-.5-.2-.4 0zm-2.7.6c-4 7.9-6.2 17.4-6.2 26.2 0 .2.4.3.4.1 1.3-9.1 3.3-17.3 6.3-26 .2-.4-.3-.6-.5-.3zm93.5 4.3c-2.5-8.2-4.1-15.7-4.3-24.3 0-.3-.4-.3-.5 0-.7 7.7.5 16.3 3.7 23.5-2.5-3.1-5.3-6.1-8.1-8.8-2-1.9-4.2-4.1-7.2-2.9-.3.1-.2.6.2.6 3.5-.8 6.7 4.4 8.9 6.5 2.2 2.1 4.3 4.4 6.6 6.3.3.2.8-.1.6-.4.1-.2.2-.3.1-.5zm-12.8-14.1c3.4-3.2 5.9-8.9 4.8-13.7-.1-.2-.4-.2-.4.1-.3 2.4-.3 4.8-1.2 7.1-.8 2.3-2.1 4.4-3.5 6.3-.1.1.2.3.3.2zm12.4-3.9c8.6 4.8 18.3 8.1 27.5 11.5.3.1.5-.4.2-.5-8.4-4.8-17.8-9.7-27.4-11.9-.4-.1-.8.6-.3.9z" fill="#ffffff" stroke-width="none" opacity="1" stroke="none"></path><path id="SvgjsPath5380" d="M158.3 201.6c-.2 2.9-.3 5.7-.3 8.6v4.3c.1 1.4.1 2.9.2 4.3.1-1.4.2-2.9.3-4.3l.3-4.3.6-8.5c.2-2.8.5-5.6 1-8.4.3-1.4.6-2.8 1-4.1.4-1.4.8-2.7 1.4-4.1-1.4 2.5-2.4 5.2-3.1 8-.9 2.8-1.2 5.6-1.4 8.5zm-51.2-20.3c.6 0 1.2.5 1.2 1.2s-.5 1.2-1.2 1.2-1.2-.5-1.2-1.2.6-1.2 1.2-1.2zm-6.2 14.4c.6 0 1.2.5 1.2 1.2s-.5 1.2-1.2 1.2-1.2-.5-1.2-1.2.6-1.2 1.2-1.2zm-.1 17.1c.6 0 1.2.5 1.2 1.2s-.5 1.2-1.2 1.2-1.2-.5-1.2-1.2.6-1.2 1.2-1.2zm15.7-31.9s.1-.1 0 0c.1-.1 0 0 0 0zm55 29.3c-.2-3.3-.5-6.6-.9-9.8-.4-3.3-1.3-6.5-2.3-9.7-.5-1.6-1.1-3.1-1.8-4.7-.4-.8-.7-1.5-1.2-2.3-.4-.5-.8-.8-1.3-1-.3-.1-.6-.2-.9-.2h-.4l-3.6-2.8c-.6-.5-1.4-1-2.1-1.4-.8-.4-1.5-.8-2.2-1.1-3-1.4-6.1-2.5-9.1-3.6l-4.6-1.7c-.8-.3-1.5-.6-2.2-.9-.2-.1-.4-.2-.5-.2-.1-.1-.3-.1-.5-.3-.4-.2-.8-.4-1.1-.6-2.8-1.4-5.7-2.5-8.6-3.7l.1-1.9c0-.2-.1-.4-.2-.5-.7-.5-1.4-1.1-2.1-1.7-.3-.3-.6-.6-.9-1-.3-.3-.5-.7-.7-1.1-.4-.8-.7-1.7-.9-2.6-.2-.9-.3-1.8-.5-2.7 0-.1-.1-.2-.2-.3-1-.8-2.2-.9-2.2-.9-.2 1.8.3 4.7.4 5.4 0 .2-.1.4-.1.6l-.7 4.9c-.1.8-.2 1.6-.4 2.4-.2.7-.5 1.5-.9 2.2-.8 1.4-1.6 2.8-2.7 4-2.3 2.3-5.3 3.6-8.2 5.1-.7.4-1.5.7-2.2 1.2-.4.2-.8.5-1 .9-.3.4-.4.8-.5 1.2-.5 1.6-.9 3.2-1.4 4.7l-.7 1.7-2.6-3.9c-1.1-1.5-1.9-3.3-3.6-4.6-.4-.3-.9-.6-1.5-.8-.3-.1-.7-.1-.9-.1h-.7l-2.8-.1c-.5 0-.9 0-1.4-.1-.2 0-.4 0-.6-.1-.1 0-.1-.1-.2-.2-.6-.6-1.2-1.3-1.7-2.1-.4-.6-.8-1.6-1.1-2.4l-1.1-2.6-2.1-5.2c-.6-1.7-1-3.6-1.5-5.4l-.5-1.6-.1-.3c.1-.2.2-.6.3-1.1.1-1 .2-4 .2-4s-2 .4-2.5.8c-.2.1-.5.3-.6.6l-.4 1.1v.1c-.2.8-.4 1.6-.7 2.3-.2.8-.5 1.5-.9 2.2-.3.6-.8 1.1-1.4 1.7-.6.5-1.2 1.1-1.8 1.5-.3.2-.4.6-.4.9l.2 1.6c-2.8 1.2-5.5 2.3-8.3 3.7-.4.2-.7.4-1.1.6l-.3.2-.2.1c-.1.1-.3.1-.5.2-.7.3-1.5.6-2.2.9l-4.6 1.7c-3.1 1.1-6.1 2.3-9.1 3.6-.8.3-1.5.7-2.2 1.1-.7.4-1.6.9-2.2 1.4l-3.5 2.8h-.4c-.3 0-.6.1-.9.2-.5.2-1 .5-1.3 1-.6.8-.9 1.6-1.2 2.3-.7 1.5-1.3 3.1-1.8 4.7-1 3.1-1.9 6.4-2.3 9.7-.4 3.3-.7 6.6-.9 9.8-.2 3.3-.4 6.6-.6 9.8h.2c.3-3.3.7-6.5 1.1-9.8.4-3.2.8-6.5 1.3-9.7.5-3.2 1.5-6.3 2.6-9.4l1.8-4.5c.3-.7.7-1.5 1.1-2 .1-.2.4-.4.6-.4.1 0 .2-.1.3-.1h.2l.6-.1c.4 1.2.8 2.4 1.2 3.7.4 1.5.8 2.9 1.1 4.4.7 3 1.2 6 1.6 9 .4 3 .8 6.1 1.1 9.1.2 1.5.3 3.1.5 4.6.2 1.5.3 3.1.4 4.6.2-3.1.1-6.2-.1-9.2-.2-3.1-.5-6.1-.9-9.2-.4-3.1-1-6.1-1.8-9.1-.8-2.7-1.7-5.4-3-8h.2l3.9-2.9c.7-.5 1.2-.9 1.9-1.2.7-.4 1.4-.7 2.2-1 3-1.2 6-2.3 9.1-3.5l4.6-1.7c.8-.3 1.5-.6 2.3-.9l.6-.3.3-.2.2-.1c.3-.2.7-.4 1-.5 2.7-1.3 5.6-2.5 8.4-3.7.1 1.4.2 2.8.1 4.1 0 1.3-.1 2.5-.2 3.8-.2 1.2-.4 2.4-.7 3.7-.5 2.5-.9 5.1-1.4 7.6-.5 2.5-.8 5.1-1.3 7.6 0 .3 0 .6.2.8.3.4 1 .4 1.4.1 1.5-1.3 2.9-2.7 4.3-4.1s2.8-2.8 4.1-4.2c.7-.7 1.3-1.5 1.9-2.3l.9-1.2c.2-.4.5-.8.8-1.1l.5-.5c2.3 1.4 4.8 2.3 7.4 2.9.9.2 1.9.4 2.8.5.6 1.8 1.4 3.4 2.3 5l.6 1.2c.2.4.3.9.6 1.3.3.7.7 1.4 1.1 2.2-.1.3-.2.5-.3.9-.2 1.4-.1 2.8-.1 4.1l.2 4c.1 1.3 0 2.6 0 4 0 1.3 0 2.7.1 4l.1 4c.1 1.3.1 2.7.2 4 .1-1.3.2-2.7.3-4l.2-4c.1-2.7.2-5.3.1-8.1-.1-1.4-.2-2.7-.2-4-.1-1.3-.2-2.7-.1-3.9 0-.5.4-1.2.7-1.8l.9-1.8c.5-1.1 1.1-2.1 1.5-3.1.3.1.6 0 .7-.3l1-2.6c.1-.3.1-.5.2-.8 1.1.1 2.1 0 3.2-.2.9-.1 1.8-.4 2.7-.6-1.4 2.6-2.8 5.2-4.1 7.8-.7 1.4-1.6 2.6-2.4 4-.4.7-.8 1.5-.8 2.4 0 .8 0 1.6.1 2.4.2 3.1.5 6.2.7 9.3.1 1.5.1 3.1.1 4.6.1 1.6.1 3.1.2 4.7.2-3.1.4-6.2.4-9.4-.1-3.1-.3-6.2-.5-9.3-.1-.8-.1-1.6-.1-2.3 0-.7.3-1.3.6-2 .7-1.3 1.6-2.7 2.2-4.1 1.2-2.7 2.4-5.4 3.5-8.2.3-.1.6-.2.8-.2 1.2-.4 2.3-.9 3.3-1.6 1-.6 1.9-1.4 2.8-2.2-1.1.5-2 1.1-3.1 1.5-1.1.5-2.2 1-3.3 1.4-2.1.8-4.2 1.3-6.4 1.8.3-1.3.7-2.6 1-3.8.1-.4.2-.8.4-1 .2-.3.5-.5.8-.7l2.1-1.2c.7-.3 1.3-.7 2-1 .9-.1 1.8-.1 2.7.1.6.1 1.1.3 1.5.7.5.4.9.8 1.3 1.2l1 1c1.3 1.4 2.5 3 3.8 4.5 1.7 2 3.7 3.4 5.7 4.9 2 1.5 4.1 2.8 6.2 4.1.2.1.5.2.7.1.5-.1.9-.6.7-1.2-.5-2.2-1.1-4.4-1.6-6.6s-1.1-4.4-1.7-6.6c-.6-2.2-1.2-4.4-1.7-6.6-.4-1.9-.8-3.8-1-5.7 2.7 1.2 5.5 2.4 8 3.8.4.2.7.4 1 .6.1.1.3.2.6.3s.4.2.6.3c.8.4 1.5.6 2.3.9l4.6 1.7 4.6 1.7c1.5.6 3 1.1 4.5 1.8.7.3 1.5.6 2.1 1 .7.4 1.3.7 1.9 1.2l3.9 2.9.9.1h.2c.1 0 .2 0 .4.1s.5.3.6.4c.4.5.8 1.3 1.1 2 .7 1.5 1.2 3 1.8 4.5 1.1 3.1 2.1 6.2 2.6 9.4s.9 6.5 1.3 9.7l1.1 9.8h.2c.2-3.2 0-6.5-.3-9.7zm-89.2-28.1c-.4.4-.7.7-1 1.1-.3.4-.6.7-.9 1.1-.7.7-1.4 1.4-2.1 2-1.4 1.4-2.9 2.6-4.3 3.9l-2.3 2.1c.3-1.6.6-3.2.8-4.9.4-2.5.8-5.1 1.2-7.6.2-1.2.4-2.6.5-3.9.1-1.3.1-2.6 0-3.9-.1-1.6-.3-3.1-.6-4.6.2-.2.3-.5.2-.8l-.2-1.8c.5-.4 1-.9 1.5-1.3.6-.6 1.3-1.3 1.8-2.2.4-.8.7-1.6.9-2.3l.5 1.8c.5 1.8.9 3.7 1.6 5.5l2.2 5.3 1.1 2.6.6 1.3.3.7c.1.2.3.5.4.7.6.9 1.2 1.6 2 2.3l.1.1c-1.5.8-3 1.6-4.3 2.8zm8.8 2c-2.5-.6-5-1.2-7.6-1.9.9-1 2.1-1.9 3.2-2.6l.1.1c.1.1.1.1.3.2.2.1.4.1.4.1.3.1.6.1.8.1H93.7c.3.1.7.3 1 .5 1.3 1 2.3 2.7 3.4 4.2l.5.6c-1.2-.2-2.4-.3-3.7-.5-1.2-.3-2.5-.5-3.8-.8zm8.7 8.3c-.3.6-.7 1.1-1 1.7-.2.3-.3.6-.5.8-.1-.7-.3-1.5-.5-2.2-.1-.5-.3-.9-.4-1.4-.2-.5-.4-.9-.6-1.4-.9-1.6-1.9-3.2-3.1-4.6.4 0 .8.1 1.2.1 1.3.1 2.6 0 3.8-.2l2.8 3.9c0 .1.1.1.2.1l-1.9 3.2zm28.3-15.3.7 3.3c.5 2.2 1 4.4 1.5 6.7.4 1.4.7 2.9 1 4.3-1.4-.9-2.8-1.8-4.1-2.7l-3-2.1c-1-.7-1.9-1.5-2.7-2.3-1.7-1.8-3.4-3.6-5.3-5.2-.5-.4-1-.8-1.5-1.1-.6-.4-1.2-.6-1.9-.6-.8-.1-1.5 0-2.2.2 2.1-1.1 4.2-2.3 5.9-4 1.2-1.2 2-2.7 2.8-4.1.4-.7.8-1.5 1-2.3.2-.8.3-1.6.5-2.4l.8-4.9c.1-.4.1-.8.2-1.2l.3-1.2.2-.6c.1.3.1.6.2 1 .2.9.5 1.9.9 2.8.2.4.4.9.7 1.3.3.4.6.8 1 1.1.6.6 1.2 1.2 1.9 1.7l-.2 2c0 .2.1.5.3.6 0 2.1.2 4.2.5 6.3.1 1.2.3 2.3.5 3.4z" fill="#e0e0e0" stroke-width="none" opacity="1" stroke="none"></path></g><g id="svga-group-head" transform="matrix(1,0,0,1,0,0)"><g id="svga-group-ears-left-move" transform="matrix(1,0,0,1,0,0)"><g id="svga-group-ears-left" transform="matrix(1,0,0,1,0,0)"><path id="SvgjsPath3102" d="M64.2 96.3c-.2-.3-3.1-4-5.5-6.3-2.5-2.3-3.2-2.2-4.4-.8s-2.7 8.5-2.3 11.7 3.3 8.2 4.9 11c1.6 2.8 3.1 6.3 4.8 6 1.8-.3 4.2-4.3 5.3-7.3 1.2-3 .6-10.3-2.8-14.3z" fill="#73512d" stroke-width="none" opacity="1" stroke="none"></path><path id="SvgjsPath3103" d="M67.9 104.8c.1.8.2 1.6.2 2.4s0 1.6-.2 2.4l-.3 1.2c-.1.4-.3.7-.4 1-.3.7-.6 1.3-.9 2-.7 1.2-1.4 2.4-2.4 3.4-.5.5-1 1-1.7 1.2-.3.1-.8.1-1.2 0-.4-.2-.7-.4-1-.7-1.2-1.2-1.8-2.6-2.5-4s-1.4-2.7-2.1-4.1c-.7-1.4-1.4-2.8-2-4.2-.3-.7-.6-1.4-.9-2.2-.3-.7-.5-1.5-.6-2.3-.2-1.6 0-3.2.1-4.7.2-1.5.4-3 .8-4.5.2-.7.4-1.5.7-2.2.1-.2.2-.3.3-.5s.2-.4.3-.5c.2-.3.5-.5.8-.7s.7-.3 1.1-.3c.4.1.7.2 1.1.4.6.4 1.1.9 1.7 1.4 2 2.1 3.7 4.5 5.6 6.8 1.8 2.5 2.9 5.6 3.5 8.7zm-9.6-14.6c-1-.8-2.2-1.7-2.9-1.2-.2.1-.4.3-.6.6-.1.1-.2.2-.2.3-.1.1-.1.3-.2.4-.3.6-.5 1.2-.7 1.9-.4 1.3-.8 2.8-1.1 4.2-.3 1.4-.5 3-.4 4.4.1.7.3 1.5.5 2.2l.9 2.1c.6 1.4 1.4 2.7 2.2 4s1.6 2.6 2.3 3.9c.4.7.7 1.3 1.1 1.9.4.6.8 1.2 1.2 1.6s.8.6 1.2.4.9-.5 1.3-1c.8-.9 1.5-2 2.2-3.2l.9-1.8c.1-.3.3-.6.4-.9l.2-.4c0-.2.1-.3.1-.5.3-1.3.3-2.8.3-4.3-.1-1.5-.3-3-.8-4.5s-1.2-2.9-2.1-4c-1.7-2.2-3.7-4.4-5.8-6.1z" fill="#64411d" stroke-width="none" opacity="1" stroke="none"></path><path id="SvgjsPath3104" d="M54.1 102.4c-.2-2.1-.4-7.4.8-9 2-2.7 5.6 6.1 6.5 8.8 0 .1.1.2.1.2.1.3-.1.7-.4.6-.4-.2-.8-.6-1.2-.8-1.1-.5-1.5.4-1.2 1.7.4 1.7 1.3 2.7 2.1 4 .1.2 0 .4-.2.3-1.5-.9-3.3-4.2-2.9-6.2.3-1.8 1.8-1.7 2.9-.8-.7-1.6-1.4-3.1-2.3-4.5-.6-.9-1.1-1.9-2-2-1.1-.2-.9.3-1.1 1.7-.8 4.6-.3 9.7 2.4 13.7.1.1 0 .2-.1.1-2-2.2-3.1-4.7-3.4-7.8z" fill="#543310" stroke-width="none" opacity="1" stroke="none"></path></g></g><g id="svga-group-ears-right-move" transform="matrix(1,0,0,1,0,0)"><g id="svga-group-ears-right" transform="matrix(1,0,0,1,0,0)"><path id="SvgjsPath3105" d="M135.8 96.3c.2-.3 3.1-4 5.5-6.3 2.5-2.3 3.2-2.2 4.4-.8s2.7 8.5 2.3 11.7-3.3 8.2-4.9 11c-1.6 2.8-3.1 6.3-4.8 6-1.8-.3-4.2-4.3-5.3-7.3-1.2-3-.6-10.3 2.8-14.3z" fill="#73512d" stroke-width="none" opacity="1" stroke="none"></path><path id="SvgjsPath3106" d="M135.7 96.3c1.8-2.3 3.5-4.7 5.6-6.8.5-.5 1-1 1.7-1.4.3-.2.7-.4 1.1-.4.4-.1.8.1 1.1.3.3.2.6.5.8.7.1.1.2.3.3.5s.2.3.3.5c.3.7.5 1.4.7 2.2.4 1.5.6 3 .8 4.5.1 1.5.3 3.1.1 4.7-.1.8-.3 1.6-.6 2.3-.3.8-.6 1.5-.9 2.2-.6 1.4-1.3 2.8-2 4.2-.7 1.4-1.4 2.7-2.1 4.1-.7 1.4-1.4 2.8-2.5 4-.3.3-.6.6-1 .7s-.9.2-1.2 0c-.7-.2-1.2-.7-1.7-1.2-1-1-1.7-2.2-2.4-3.4-.3-.6-.6-1.3-.9-2-.1-.3-.3-.7-.4-1l-.3-1.2c-.1-.8-.2-1.6-.2-2.4s.1-1.6.2-2.4c.5-3.3 1.6-6.4 3.5-8.7zm.1.1c-.9 1.1-1.6 2.5-2.1 4s-.7 3-.8 4.5 0 3 .3 4.3c0 .2.1.3.1.5l.2.4c.1.3.3.6.4.9l.9 1.8c.6 1.2 1.4 2.3 2.2 3.2.4.4.9.8 1.3 1 .4.2.8 0 1.2-.4s.8-1 1.2-1.6.8-1.3 1.1-1.9c.7-1.3 1.6-2.6 2.3-3.9.8-1.3 1.5-2.6 2.2-4l.9-2.1c.3-.7.5-1.5.5-2.2.1-1.5-.1-3-.4-4.4-.3-1.4-.6-2.9-1.1-4.2-.2-.7-.5-1.3-.7-1.9-.1-.1-.1-.3-.2-.4-.1-.1-.1-.2-.2-.3l-.6-.6c-.7-.6-1.8.4-2.9 1.2-2 1.6-4 3.8-5.8 6.1z" fill="#64411d" stroke-width="none" opacity="1" stroke="none"></path><path id="SvgjsPath3107" d="M145.9 102.4c.2-2.1.4-7.4-.8-9-2-2.7-5.6 6.1-6.5 8.8 0 .1-.1.2-.1.2-.1.3.1.7.4.6.4-.2.8-.6 1.2-.8 1.1-.5 1.5.4 1.2 1.7-.4 1.7-1.3 2.7-2.1 4-.1.2 0 .4.2.3 1.5-.9 3.3-4.2 2.9-6.2-.3-1.8-1.8-1.7-2.9-.8.7-1.6 1.4-3.1 2.3-4.5.6-.9 1.1-1.9 2-2 1.1-.2.9.3 1.1 1.7.8 4.6.3 9.7-2.4 13.7-.1.1 0 .2.1.1 2-2.2 3.1-4.7 3.4-7.8z" fill="#543310" stroke-width="none" opacity="1" stroke="none"></path></g></g><g id="svga-group-faceshape-wrap" transform="matrix(1,0,0,1,0,0)"><g id="svga-group-faceshape-single"><path id="SvgjsPath3134" d="M141 88.4c0 30.3-18.9 65.2-41 65.2s-41-34.9-41-65.2 18.9-47 41-47 41 16.6 41 47z" fill="#73512d" stroke-width="none" opacity="1" stroke="none"></path><path id="SvgjsPath3135" d="M100 41.3c-22.1 0-41.1 16.7-41.1 47s19 65.5 41.1 65.5 41.1-35.2 41.1-65.5-19-47-41.1-47zm28.2 13.6.8.8c.3.3.5.6.8.9.3.3.5.6.8.9l.7.9c.2.3.5.6.7.9l.7 1 .3.5.3.5c.4.7.9 1.3 1.2 2l.6 1c.2.3.4.7.5 1l.5 1.1.5 1.1c.2.4.3.7.5 1.1l.4 1.1c2.3 5.9 3.2 12.4 3.3 18.7 0 6.4-.9 12.8-2.6 18.9-.8 3.1-1.9 6.1-3.1 9-1.2 2.9-2.5 5.8-4 8.6s-3.1 5.5-4.8 8.1c-.9 1.3-1.8 2.6-2.7 3.8-.9 1.2-1.9 2.4-3 3.6-2 2.3-4.3 4.4-6.7 6.3-2.4 1.8-5 3.3-7.8 4.3-1.4.5-2.8.9-4.3 1-1.5.2-2.9.2-4.4.1-3-.2-5.9-1.2-8.6-2.6-2.7-1.4-5.3-3.3-7.6-5.4-2.3-2.1-4.4-4.5-6.3-7.1s-3.6-5.3-5-8.1c-1.5-2.8-2.8-5.7-3.9-8.7-.6-1.5-1.1-3-1.6-4.5s-.9-3-1.3-4.6c-.8-3.1-1.4-6.2-1.8-9.3-.4-3.1-.7-6.3-.8-9.4 0-1.6 0-3.1.1-4.7 0-.8.1-1.6.1-2.3l.2-2.3c.3-3.1.9-6.2 1.7-9.1.8-3 1.8-5.9 3.2-8.6.2-.4.3-.7.5-1l.5-1c.4-.7.8-1.3 1.2-2 .4-.6.8-1.3 1.3-1.9l.7-.9.3-.5.4-.4c1.9-2.4 4.1-4.5 6.5-6.3s5-3.3 7.8-4.5 5.7-2 8.6-2.5c.7-.2 1.5-.2 2.2-.3.4-.1.8-.1 1.1-.1l1.1-.1c.8 0 1.5-.1 2.3-.1H102.6l1.1.1c.4 0 .8.1 1.1.1.4 0 .8.1 1.1.1l1.1.2.6.1.6.1 1.1.2c.4.1.7.2 1.1.3s.7.2 1.1.3c1.4.4 2.9.9 4.3 1.5s2.8 1.2 4.1 2c2.7 1.5 5.2 3.3 7.4 5.4l.4.4.5.3z" fill="#452706" stroke-width="none" opacity="1" stroke="none"></path></g></g><g id="svga-group-mouth-single-move" transform="matrix(1,0,0,1,0,0)"><g id="svga-group-mouth-single" transform="matrix(1,0,0,1,0,0)"><path id="SvgjsPath5902" d="M95.2 133.6c3.7 1.9 5.4 1.5 7.2 1.3s6.2-2.5 9-5.2c2.7-2.7 3.2-4.2 3.2-4.2-2.5-.5-9.6-2.6-10.7-2.4-.8.1-2.9 1.9-3.6 1.9s-3.1-1.5-3.9-1.6c-.9-.1-2.3.4-4.4 1.1s-6 1.1-6 1.1 5.5 6.1 9.2 8z" fill="#a06b59" stroke-width="none" opacity="1" transform="translate(0 3)"></path><path id="SvgjsPath5903" d="M85.5 125.7c4.9 1.2 10.2 2.1 15.2 2.3 1.8.1 3.7-.3 5.5-.6 3-.5 6.3-.8 9.2-1.8.3-.1.3-.7-.1-.6-4.8.6-9.7 2.4-14.6 2.2-5.1-.2-10.1-1.4-15.2-1.9-.2.1-.2.4 0 .4z" fill="#915642" stroke-width="none" opacity="1" transform="translate(0 3)"></path></g></g><g id="svga-group-eyes-left-move" transform="matrix(1,0,0,1,0,0)"><g id="svga-group-eyes-left" transform="matrix(1,0,0,1,0,0)"><g id="svga-group-eyesback-left"><path id="SvgjsPath4922" d="M92.1 98.1s-3.5 2.7-5.9 3.2c-2.4.5-6.1.8-9.4-.1-3.2-1-4.9-2.8-4.9-2.8s1.4-2.6 3.4-3.6 4.1-2.6 8.6-1.9 7.3 3.7 8.2 5.2z" fill="#ffffff" stroke-width="none" opacity="1"></path></g><g id="svga-group-eyesiriswrapper-left" transform="matrix(1,0,0,1,0,0)"><g id="svga-group-eyesiriscontrol-left" transform="matrix(1,0,0,1,0,0)"><g id="svga-group-eyesiris-left" transform="matrix(1,0,0,1,0,0)"><path id="SvgjsPath3169" d="M82 91.5c2.7 0 4.9 2.2 4.9 4.9s-2.2 4.9-4.9 4.9-4.9-2.2-4.9-4.9 2.2-4.9 4.9-4.9z" fill="#401916" stroke-width="none" opacity="1" stroke="none"></path><path id="SvgjsPath3170" d="M82 93.8c1.4 0 2.6 1.2 2.6 2.6S83.4 99 82 99s-2.6-1.2-2.6-2.6 1.2-2.6 2.6-2.6z" fill="#000000" stroke-width="none" opacity="1"></path><path id="SvgjsPath3171" d="m81.3 94.3-.5-.5c-.2-.2-.4-.3-.7-.3s-.5.1-.7.3c-.2.2-.3.4-.3.7s.1.5.3.7l.5.5c.2.2.4.3.7.3.2 0 .5-.1.7-.3.4-.5.4-1 0-1.4zm2.5 4.4c.8 0 .8-1.3 0-1.3s-.9 1.3 0 1.3z" fill="#ffffff" stroke-width="none" opacity="1"></path></g></g></g><g id="svga-group-eyesfront-left"><path id="SvgjsPath4930" d="M70.7 98c0 6.9 4.9 12.5 11 12.5s11-5.6 11-12.5-4.9-12.5-11-12.5-11 5.6-11 12.5zm1.2.4s1.4-2.6 3.4-3.6 4.1-2.6 8.6-1.9c4.5.7 7.2 3.6 8.2 5.1 0 0-3.5 2.7-5.9 3.2-2.4.5-6.1.8-9.4-.1-3.2-.9-4.9-2.7-4.9-2.7z" fill="#73512d" stroke-width="none" opacity="1" stroke="none"></path><path id="SvgjsPath4931" d="M91 96.6s-2.7-3.5-7.8-3.9c-5.1-.5-9.4 2.8-11.3 5.7 0 0-2 .5-3.3-.7 0 0 2 .1 4.3-2.1 2.1-2.1 5.6-4 9.8-3.4 4.5.5 6.4 1.8 8.3 4.4z" fill="#64411d" stroke-width="none" opacity="1" stroke="none"></path><path id="SvgjsPath4932" d="M69.9 95.9c-.1-.1 0-.2.1-.2 1.2.7 2.2.7 3.3.2.4-.5.9-.9 1.4-1.3-1 0-2-.4-2.6-1.2-.1-.1.1-.2.1-.1.9.7 1.9 1.1 2.9 1 .6-.4 1.1-.7 1.8-1-.6-.3-1.1-.8-1.3-1.5 0-.1.1-.2.2-.1.4.6.9 1.1 1.6 1.4.7-.3 1.4-.5 2.1-.6-.1-.1-.2-.1-.2-.2-.2-.3-.5-.7-.5-1.1 0-.1.2-.2.3-.1.2.3.2.6.4.9.1.2.2.3.4.4 4.8-.7 10.1 1.5 12.6 6 .1.2-.2.4-.3.2-2.3-3.5-6.2-5.7-10.5-5.5-3.9.2-7.1 2.4-9.6 5.4 6.2 4.1 13.4 4 19.5-.2.1-.1.3.1.1.2-3.1 2.8-7.2 4-11.1 3.8-.1.1-.2.3-.2.4-.1.2-.1.3-.2.5-.1.1-.2.1-.2-.1 0-.3.1-.6.3-.9-.8-.1-1.6-.2-2.4-.4-.1.1-.3.2-.4.4-.1.2-.2.4-.4.6-.1.1-.2 0-.2-.1 0-.3.2-.5.3-.7.1-.1.2-.2.2-.3-.6-.2-1.3-.4-1.9-.7-.2.1-.4.2-.6.4l-.6.6c-.1.1-.2 0-.2-.1.2-.4.6-.8 1.1-1-.6-.3-1.2-.6-1.7-1-.2.1-.4.1-.6.3-.3.2-.5.4-.8.6-.1.1-.2 0-.2-.1.2-.5.8-.8 1.3-1-.4-.3-.9-.6-1.3-1l-.1.1c-.1.1-.3 0-.2-.2 0 0 0-.1.1-.1 0-.1 0-.1.1-.2.3-.6.6-1.2 1-1.8-1 .4-2.1.1-2.9-.6z" fill="#05070f" stroke-width="none" opacity="1" stroke="none"></path></g></g></g><g id="svga-group-eyes-right-move" transform="matrix(1,0,0,1,0,0)"><g id="svga-group-eyes-right" transform="matrix(1,0,0,1,0,0)"><g id="svga-group-eyesback-right"><path id="SvgjsPath4923" d="M107.9 98.1s3.5 2.7 5.9 3.2c2.4.5 6.1.8 9.4-.1 3.2-1 4.9-2.8 4.9-2.8s-1.4-2.6-3.4-3.6-4.1-2.6-8.6-1.9-7.3 3.7-8.2 5.2z" fill="#ffffff" stroke-width="none" opacity="1"></path></g><g id="svga-group-eyesiriswrapper-right" transform="matrix(1,0,0,1,0,0)"><g id="svga-group-eyesiriscontrol-right" transform="matrix(1,0,0,1,0,0)"><g id="svga-group-eyesiris-right" transform="matrix(1,0,0,1,0,0)"><path id="SvgjsPath3172" d="M118 91.5c2.7 0 4.9 2.2 4.9 4.9s-2.2 4.9-4.9 4.9-4.9-2.2-4.9-4.9 2.2-4.9 4.9-4.9z" fill="#401916" stroke-width="none" opacity="1" stroke="none"></path><path id="SvgjsPath3173" d="M118 93.8c1.4 0 2.6 1.2 2.6 2.6S119.4 99 118 99s-2.6-1.2-2.6-2.6 1.2-2.6 2.6-2.6z" fill="#000000" stroke-width="none" opacity="1"></path><path id="SvgjsPath3174" d="m117.4 94.3-.5-.5c-.2-.2-.4-.3-.7-.3s-.5.1-.7.3c-.2.2-.3.4-.3.7s.1.5.3.7l.5.5c.2.2.4.3.7.3.2 0 .5-.1.7-.3.3-.5.4-1 0-1.4zm2.4 4.4c.8 0 .8-1.3 0-1.3s-.8 1.3 0 1.3z" fill="#ffffff" stroke-width="none" opacity="1"></path></g></g></g><g id="svga-group-eyesfront-right"><path id="SvgjsPath4933" d="M118.3 85.5c-6.1 0-11 5.6-11 12.5s4.9 12.5 11 12.5 11-5.6 11-12.5-5-12.5-11-12.5zm4.9 15.7c-3.2 1-7 .6-9.4.1-2.4-.5-5.9-3.2-5.9-3.2.9-1.5 3.6-4.4 8.2-5.1 4.5-.7 6.7.9 8.6 1.9 2 1 3.4 3.6 3.4 3.6s-1.7 1.7-4.9 2.7z" fill="#73512d" stroke-width="none" opacity="1" stroke="none"></path><path id="SvgjsPath4936" d="M109 96.6s2.7-3.5 7.8-3.9c5.1-.5 9.4 2.8 11.3 5.7 0 0 2 .5 3.3-.7 0 0-2 .1-4.3-2.1-2.1-2.1-5.6-4-9.8-3.4-4.5.5-6.4 1.8-8.3 4.4z" fill="#64411d" stroke-width="none" opacity="1" stroke="none"></path><path id="SvgjsPath4937" d="M130.1 95.9c.1-.1 0-.2-.1-.2-1.2.7-2.2.7-3.3.2-.4-.5-.9-.9-1.4-1.3 1 0 2-.4 2.6-1.2.1-.1-.1-.2-.1-.1-.9.7-1.9 1.1-2.9 1-.6-.4-1.1-.7-1.8-1 .6-.3 1.1-.8 1.3-1.5 0-.1-.1-.2-.2-.1-.4.6-.9 1.1-1.6 1.4-.7-.3-1.4-.5-2.1-.6.1-.1.2-.1.2-.2.2-.3.5-.7.5-1.1 0-.1-.2-.2-.3-.1-.2.3-.2.6-.4.9-.1.2-.2.3-.4.4-4.8-.7-10.1 1.5-12.6 6-.1.2.2.4.3.2 2.3-3.5 6.2-5.7 10.5-5.5 3.9.2 7.1 2.4 9.6 5.4-6.2 4.1-13.4 4-19.5-.2-.1-.1-.3.1-.1.2 3.1 2.8 7.2 4 11.1 3.8.1.1.2.3.2.4.1.2.1.3.2.5.1.1.2.1.2-.1 0-.3-.1-.6-.3-.9.8-.1 1.6-.2 2.4-.4.1.1.3.2.4.4.1.2.2.4.4.6.1.1.2 0 .2-.1 0-.3-.2-.5-.3-.7-.1-.1-.2-.2-.2-.3.6-.2 1.3-.4 1.9-.7.2.1.4.2.6.4l.6.6c.1.1.2 0 .2-.1-.2-.4-.6-.8-1.1-1 .6-.3 1.2-.6 1.7-1 .2.1.4.1.6.3.3.2.5.4.8.6.1.1.2 0 .2-.1-.2-.5-.8-.8-1.3-1 .4-.3.9-.6 1.3-1l.1.1c.1.1.3 0 .2-.2 0 0 0-.1-.1-.1 0-.1 0-.1-.1-.2-.3-.6-.6-1.2-1-1.8 1 .4 2.1.1 2.9-.6z" fill="#05070f" stroke-width="none" opacity="1" stroke="none"></path></g></g></g><g id="svga-group-facehighlight-single"></g><g id="svga-group-eyebrows-left-move" transform="matrix(1,0,0,1,0,0)"><g id="svga-group-eyebrows-left-rotate" transform="matrix(1,0,0,1,0,0)"><g id="svga-group-eyebrows-left" transform="matrix(1,0,0,1,0,0)"><path id="SvgjsPath4581" d="m66.6 88.3.1-.1c.2-.3.5-.5.8-.7.3-.9 1.1-1.6 1.7-2.3.7-.8 1.3-1.6 2-2.3.4-.7.9-1.8 1.7-2 .1 0 .3 0 .3.2.1 0 .1-.1.2-.1h.3c1.8-.1 4.1.2 5.8.5 1.2 0 2.5.3 3.7.4 1.8.2 3.6 0 5.3.2.1 0 .2-.1.3-.1.1 0 .2-.1.2 0h.1c.2-.1.5 0 .5.2.2-.1.4-.2.7-.2.1 0 .2 0 .3.1.2-.1.4.1.3.2-.3.4-.6.9-1 1.3.5-.2 1.1-.4 1.6-.5.2-.2.3-.4.5-.7.2-.2.6 0 .5.3-.2.8-.7 1.5-1.2 2.2-.2.4-.4.7-.6 1.1-.3.4-.5 1-.9 1.3-.4.3-1 .4-1.6.2-1.8 0-4.3.1-5.9-.8-.3 0-.6-.1-.9-.2-1.1.4-2.4.1-3.6-.1-1.1-.1-2.3-.2-3.4-.5-.7.2-1.5.3-2.2.4-.4.1-1 .2-1.4.1l-.9.6c-.4.3-.9.6-1.4.7-.1 0-.1.1-.1.1-.4.3-.8.7-1.3.8-.1 0-.2-.1-.2-.2-.3 0-.3-.1-.3-.1z" fill="#2a232b" stroke-width="none" opacity="1" stroke="none"></path><path id="SvgjsPath4582" d="M72.6 81.4c3 .3 6.3 2.6 7.7 5 .1.1-.1.2-.2.1-1.1-1.1-2.2-2.2-3.6-3.1-1.3-.8-2.7-1.2-4.1-1.8 0 0 .1-.2.2-.2zm-3 3.6c.2-.1.5-.1.7-.1-.2 0-.3-.1-.5-.1s-.2-.3 0-.3c1.7-.4 3.5.6 4.8 1.3.1.1 0 .2-.1.2-.8-.3-1.5-.6-2.3-.8h-.1c.3.1.7.3.9.5.2.1 0 .3-.2.2-.5-.2-1.1-.4-1.7-.5-.5-.1-1.1 0-1.6-.1-.1 0-.1-.3.1-.3zm1.5-2.8c2.4-.2 5.7 1.9 6.9 3.8.1.1-.1.3-.2.2-1.1-.8-2-1.7-3.3-2.4-1.1-.6-2.4-.8-3.5-1.3-.1-.1 0-.3.1-.3zm7.9-.9c1.8 1.2 2.9 3.2 3.3 5.2.1.2-.3.3-.4.1-.6-2-1.8-3.4-3.1-5-.1-.2.1-.4.2-.3zm5.1 2.6c0-.2.2-.2.3 0 .4 1 .3 2.1-.1 3-.1.1-.2.1-.2-.1.2-1 .1-1.9 0-2.9zm3.3 3.3c1-.5 1.9-.9 2.7-1.7.7-.8 1.2-1.7 1.7-2.6 0-.1.2 0 .2.1-.7 1.8-2 4.3-4.4 4.4-.3 0-.3-.1-.2-.2z" fill="#3a353a" stroke-width="none" opacity="1" stroke="none"></path><path id="SvgjsPath4583" d="M65.5 89.1c-.1.1.1.2.2.2s.1.1.2 0c1-.2 1.9-.9 2.8-1.4 1-.6 2-1.1 2.9-1.7 5.8.6 11.6 1.3 17.4 1.5.2 0 .2-.3.1-.3-1.2-.2-2.3-.3-3.5-.5 1.9-.6 3.4-2.7 3.7-4.4 0-.2-.2-.3-.3-.1-.4.9-.9 1.8-1.6 2.6-.6.7-1.4 1.1-2.1 1.7-.1.1-.1.2 0 .3-.2 0-.4-.1-.6-.1.7-1.5.8-3.2.4-4.7 1.9.1 3.9.2 5.8-.1.2 0 .2-.3 0-.3-2-.3-4.1-.3-6.1-.4-.1-.1-.1-.1-.2 0-.7 0-1.4-.1-2.1-.1-3.1-.2-6.3-.5-9.4-.9-.2 0-.4.1-.5.3-.1-.1-.4-.2-.6 0-1.2 1.3-2.2 2.7-3.2 4.1-1.1 1.2-2.4 2.7-3.3 4.3zm8.6-8c0 .1 0 .2.1.2 1.3.7 2.7 1.4 3.9 2.4 1 .8 1.8 1.8 2.6 2.7-1.7-.2-3.4-.3-5.1-.5-1.4-1.2-3.1-2.1-5-2.2.8-.9 1.5-1.8 2.1-2.8v-.1c.1 0 .1.1.2.1.4.1.8.1 1.2.2zm7 5.3c-1.2-2.2-3.6-4.3-6.2-5.2 1.6.2 3.2.3 4.8.5.5.7 1.2 1.4 1.6 2.2.5.9.7 1.8 1 2.7-.4-.1-.8-.2-1.2-.2zm3.3.4c-.5-.1-1-.1-1.5-.2-.1-1.7-.9-3.7-2.3-4.9.4 0 .9.1 1.3.1.9.1 1.8.1 2.7.2.3 1.7.3 3.1-.2 4.8zm-16 .6c-.5.2-1 .5-1.5.7.8-.9 1.5-1.9 2.3-2.8.4-.5.8-.9 1.2-1.4 1.7.5 3.3 1 4.8 1.9-1.2-.1-2.4-.2-3.7-.3-.1 0-.2 0-.3.1-.4 0-.8 0-1.2.1-.4.1-.9.1-1.2.3-.1.1-.1.2 0 .3.4.1.8 0 1.3-.1.4-.1.7-.1 1.1-.2v.1c-1 .4-1.9.8-2.8 1.3zm21.2-3.7c-.2 0-.3-.2-.1-.4.5-.3 1-.5 1.5-.8.5-.3.9-.7 1.3-1.1.1-.1.2-.1.2-.1.1-.1.3 0 .3.1-.4 2.2-1.2 4.5-3 6.1-.2.2-.6-.1-.4-.3 1.2-1.6 2.2-3.1 2.8-4.9-.6.8-1.6 1.5-2.6 1.4z" fill="#1b141c" stroke-width="none" opacity="1" stroke="none"></path></g></g></g><g id="svga-group-eyebrows-right-move" transform="matrix(1,0,0,1,0,0)"><g id="svga-group-eyebrows-right-rotate" transform="matrix(1,0,0,1,0,0)"><g id="svga-group-eyebrows-right" transform="matrix(1,0,0,1,0,0)"><path id="SvgjsPath4584" d="m133.4 88.3-.1-.1c-.2-.3-.5-.5-.8-.7-.3-.9-1.1-1.6-1.7-2.3-.6-.8-1.3-1.6-2-2.3-.4-.7-.9-1.8-1.7-2-.1 0-.3 0-.3.2-.1 0-.1-.1-.2-.1h-.3c-1.8-.1-4.1.2-5.8.5-1.2 0-2.5.3-3.7.4-1.8.2-3.6 0-5.3.2-.1 0-.2-.1-.3-.1-.1 0-.2-.1-.2 0h-.1c-.2-.1-.5 0-.5.2-.2-.1-.4-.2-.7-.2-.1 0-.2 0-.3.1-.2-.1-.4.1-.3.2.3.4.6.9 1 1.3-.5-.2-1.1-.4-1.6-.5-.2-.2-.3-.4-.5-.7-.2-.2-.6 0-.5.3.2.8.7 1.5 1.2 2.2.2.4.4.7.6 1.1.3.4.5 1 .9 1.3.4.3 1 .4 1.6.2 1.8 0 4.3.1 5.9-.8.3 0 .6-.1.9-.2 1.1.4 2.4.1 3.6-.1 1.1-.1 2.3-.2 3.4-.5.7.2 1.5.3 2.2.4.5.1 1 .2 1.5.1l.9.6c.4.3.9.6 1.4.7.1 0 .1.1.1.1.4.3.8.7 1.3.8.1 0 .2-.1.2-.2.2 0 .2-.1.2-.1z" fill="#2a232b" stroke-width="none" opacity="1" stroke="none"></path><path id="SvgjsPath4585" d="M127.4 81.4c-3 .3-6.3 2.6-7.7 5-.1.1.1.2.2.1 1.1-1.1 2.2-2.2 3.6-3.1 1.3-.8 2.7-1.2 4.1-1.8 0 0-.1-.2-.2-.2zm3 3.6c-.2-.1-.5-.1-.7-.1.2 0 .3-.1.5-.1s.2-.3 0-.3c-1.6-.4-3.5.6-4.8 1.3-.1.1 0 .2.1.2.8-.3 1.5-.6 2.3-.8h.1c-.3.1-.7.3-.9.5-.2.1 0 .3.2.2.5-.2 1.1-.4 1.7-.5.5-.1 1.1 0 1.6-.1.1 0 .1-.3-.1-.3zm-1.5-2.8c-2.4-.2-5.7 1.9-6.9 3.8-.1.1.1.3.2.2 1.1-.8 2-1.7 3.3-2.4 1.1-.6 2.4-.8 3.5-1.3.1-.1 0-.3-.1-.3zm-7.9-.9c-1.8 1.2-2.9 3.2-3.3 5.2-.1.2.3.3.4.1.6-2 1.8-3.4 3.1-5 .1-.2-.1-.4-.2-.3zm-5.1 2.6c0-.2-.2-.2-.3 0-.4 1-.3 2.1.1 3 .1.1.2.1.2-.1-.2-1-.1-1.9 0-2.9zm-3.3 3.3c-1-.5-1.9-.9-2.7-1.7-.7-.8-1.2-1.7-1.7-2.6 0-.1-.2 0-.2.1.7 1.8 2 4.3 4.4 4.4.3 0 .3-.1.2-.2z" fill="#3a353a" stroke-width="none" opacity="1" stroke="none"></path><path id="SvgjsPath4586" d="M131.1 84.5c-1.1-1.4-2.1-2.8-3.2-4.1-.2-.2-.4-.1-.6 0-.1-.2-.2-.3-.5-.3-3.1.4-6.2.7-9.4.9-.7.1-1.4.1-2.1.1-.1 0-.1-.1-.2 0-2.1.1-4.1.1-6.1.4-.2 0-.2.3 0 .3 1.9.3 3.8.2 5.8.1-.5 1.6-.3 3.3.4 4.7-.2 0-.4.1-.6.1.1-.1.1-.2 0-.3-.7-.6-1.5-1-2.1-1.7-.7-.8-1.2-1.7-1.6-2.6-.1-.2-.4-.1-.3.1.3 1.8 1.8 3.8 3.7 4.4-1.2.2-2.3.3-3.5.5-.2 0-.1.3.1.3 5.8-.2 11.6-.9 17.4-1.5 1 .6 1.9 1.2 2.9 1.7.9.5 1.8 1.2 2.8 1.4h.2c.1 0 .2-.1.2-.2-.8-1.3-2.1-2.8-3.3-4.3zm-4-3.6c.1 0 .1 0 .2-.1v.1c.6.9 1.4 1.8 2.1 2.8-1.9.2-3.7 1-5 2.2-1.7.2-3.4.3-5.1.5.8-1 1.6-1.9 2.6-2.7 1.2-1 2.5-1.6 3.9-2.4.1-.1.1-.1.1-.2.4-.1.8-.1 1.2-.2zm-9.4 5.6c.3-.9.5-1.8 1-2.7.4-.8 1.1-1.5 1.6-2.2 1.6-.1 3.2-.3 4.8-.5-2.6.9-5 3-6.2 5.2-.4.1-.8.2-1.2.2zm-2.3-4.5c.9-.1 1.8-.2 2.7-.2.4 0 .9-.1 1.3-.1-1.3 1.2-2.2 3.2-2.3 4.9-.5.1-1 .1-1.5.2-.5-1.7-.5-3.1-.2-4.8zm13.5 4c.4 0 .7.1 1.1.1.4.1.9.2 1.3.1.1 0 .1-.2 0-.3-.4-.2-.8-.2-1.2-.3-.4-.1-.8-.1-1.2-.1-.1-.1-.2-.1-.3-.1-1.2.1-2.4.2-3.7.3 1.5-.9 3.1-1.4 4.8-1.9.4.5.8.9 1.1 1.4.8.9 1.5 1.9 2.3 2.8-.5-.3-1-.5-1.5-.7-.9-.4-1.8-.8-2.7-1.3zm-18.5-2.3c.2 0 .3-.2.1-.4-.5-.3-1-.5-1.5-.8-.5-.3-.9-.7-1.3-1.1-.1-.1-.2-.1-.2-.1-.1-.1-.3 0-.3.1.4 2.2 1.2 4.5 3 6.1.2.2.6-.1.4-.3-1.2-1.6-2.2-3.1-2.8-4.9.6.8 1.6 1.5 2.6 1.4z" fill="#1b141c" stroke-width="none" opacity="1" stroke="none"></path></g></g></g><g id="svga-group-nose-single-move" transform="matrix(1,0,0,1,0,0)"><g id="svga-group-nose-single" transform="matrix(1,0,0,1,0,0)"><path id="SvgjsPath3247" d="M97.72 89.37c-.8 3.33-.91 6.89-1.27 10.29-.38 3.64-1.08 7.4-1.03 11.06 0 .29.45.37.52.07.74-3.34.83-6.91 1.18-10.31.37-3.64 1.05-7.41.93-11.06 0-.19-.28-.24-.33-.05z" fill="#452706" stroke-width="none" opacity="1" transform="translate(0 2)" stroke="none"></path><path id="SvgjsPath3248" d="M94.71 108.8c-.98 1.31-1.8 2.73-2.52 4.2-.46.95-1.04 2.07-.73 3.16.5 1.8 2.79 2.36 4.28 1.51.44-.26.24-.95-.26-.95-.87-.01-1.89.27-2.58-.47-.84-.89-.01-2.5.36-3.4.55-1.32 1.22-2.59 1.74-3.92.07-.19-.19-.26-.29-.13z" fill="#452706" stroke-width="none" opacity="1" transform="translate(0 2)" stroke="none"></path><path id="SvgjsPath3249" d="M94.57 116.21c2.7-.2 3.21 3.2 5.78 3.28 2.2.07 2.37-3.24 4.46-3.14.24.01.32-.33.12-.45-2.37-1.4-2.81 2.72-4.99 2.46-1.29-.15-2.21-2.05-3.37-2.6-.79-.37-1.36-.34-2.13.01-.19.11-.09.46.13.44z" fill="#452706" stroke-width="none" opacity="1" transform="translate(0 2)" stroke="none"></path><path id="SvgjsPath3250" d="M104.07 117.75c1.78.4 3.85-.15 4.27-2.13.21-.99-.12-1.97-.64-2.81-.84-1.37-1.93-2.53-2.73-3.95-.13-.24-.47-.12-.48.13-.1 1.59 1.08 2.69 1.92 3.92.78 1.13 1.45 2.69.14 3.81-.6.51-1.74.42-2.48.56-.24.05-.23.42 0 .47z" fill="#452706" stroke-width="none" opacity="1" transform="translate(0 2)" stroke="none"></path><path id="SvgjsPath3251" d="M102.32 112.41c-.39-.7-1.4-.81-1.96-.25-.05.05-.23.28-.28.34-.06.08-.19.25-.21.28-.06.1-.12.2-.17.3l-.11.26c0-.01-.01.01-.03.05-.06.06-.12.13-.17.19-.17.18-.34.36-.48.57-.4.63-.08 1.35.46 1.75.83.62 2.03.12 2.61-.58.7-.84.89-1.92.34-2.91z" fill="#7b5936" stroke-width="none" opacity="1" transform="translate(0 2)" stroke="none"></path></g></g><g id="svga-group-hair-front" transform="matrix(1,0,0,1,0,0)"><path id="SvgjsPath3997" d="M77.1 48.8s-6.2-1.8-5.1-14S88.7 18 101.4 18s23.6 4.9 26.5 13.8c2.9 8.9.5 16.1-3.6 17.2s-47.2-.2-47.2-.2z" fill="#1b141c" stroke-width="none" opacity="1" stroke="none"></path><path id="SvgjsPath3998" d="M134.7 54.9C123.8 36.7 100 38.1 100 38.1s-24.7-.9-35.7 17.2C54.1 72.3 57.1 88 57.1 88s2.2 2.2 3.5 10.2c.1.8 1.5.7 1.7-.2.5-2.6.2-8.2 1.9-15.6C67 70.6 76.4 60.5 86.5 57.6c5.4-1.6 22.5-.9 27.9.6 10.1 3 18.1 12.1 20.9 23.9 1.7 7.3 1.7 13.3 2.2 15.9.2.8 1.5 1 1.7.2 1.4-8 3.6-9.8 3.6-9.8s2.2-16.6-8.1-33.5zM129 36c-.2-1.3-.5-2.8-1-4.2-2.9-8.9-13.8-13.8-26.5-13.8-3.4 0-7.1.3-10.6 1.1-2.9 1.7-5.3 4.1-4.9 7.4 1.1 8 8.4 8.4 19 9.3 8.6.7 20.8 7.1 24 .2z" fill="#2a232b" stroke-width="none" opacity="1" stroke="none"></path><path id="SvgjsPath3999" d="M64.1 64.6c.3-4.9 1.7-9.5 3.7-13.9-1.2 1.4-2.4 2.9-3.4 4.6-5.6 9.2-7.2 18.1-7.6 24.3.5 5.9 2.2 12.2 5.8 16.4.1-1.5.2-3.4.4-5.7-1.8-5-3.7-9.7-3.8-15.6-.1-5.6 1.2-10.6 3.2-15.4-1.9 7.3-1.7 15.5 2.2 21 0 .1.1.1.2.2.3-1 .7-2 1.1-3-.9-4.3-2.1-8.4-1.8-12.9zm6.6-16.7c-.9.8-1.8 1.6-2.6 2.5-2.4 7.3-3.4 16.1-.2 22.8.4-.8.9-1.5 1.4-2.3-.2-3.5-.8-6.9-.7-10.5.1-4.2.9-8.4 2.1-12.5zM72.2 59c0-4.6.8-9.1 1.8-13.6-.6.4-1.1.8-1.7 1.2-2.6 6.8-3.5 15.1-1.5 22.2.7-.8 1.3-1.6 2-2.4-.3-2.5-.6-4.9-.6-7.4zm6.6-16.3c-.9.4-1.8.9-2.6 1.3-3.1 6.4-4.6 15-2.8 21.9.9-.9 1.7-1.7 2.7-2.5-.4-2.2-.7-4.4-.6-6.7.1-5 1.5-9.5 3.3-14zm4.7-1.9c-.8.3-1.7.6-2.5.9-3 5.7-4.3 13.3-1.9 19.3.7-.5 1.4-.9 2.1-1.3-.8-6.7-.8-12.4 2.3-18.9zm1.7-.5c-1.3 5.9-2.1 12.1-.8 18 .4-.1.7-.3 1.1-.4 0-5.8-.3-11.5.7-17.3 0-.2-.1-.4-.2-.5-.3 0-.5.1-.8.2zm6.2-1.5c-.5.1-1 .2-1.6.3-1.1 5.8-1 12.1.2 17.9.5 0 1.1-.1 1.6-.1-.1-6.1-.3-12-.2-18.1zm4.7-.3c0-.1 0-.2-.1-.2-.3 0-.5 0-.8.1v.2c-.5 6-.5 12.3 1 18.2h1c-.4-6.2-1.1-12.2-1.1-18.3zm7.8 8.2c.2 3.4.2 6.8.5 10.2.3 0 .7 0 1 .1.6-6.4-1-12.5-1-18.7-.3 0-.6 0-.9-.1-.3 2.8.2 5.7.4 8.5zm7.9-5.6c.4 5.6 0 11-.8 16.5.5.1.9.2 1.4.2.9-5.5.9-11.1.3-16.7 0-.6-.9-.6-.9 0zm11 7.9c.1 4.3-.7 8.1-2.5 11.8.4.2.8.5 1.2.8 2.3-3.8 3.1-8.3 2.1-12.7 0-.5-.8-.4-.8.1zm6.6-.3c-.1-.6-.9-.4-.9.1-.4 5.6-1 10.9-2.6 16.2l.9.9c2.4-5.2 3.7-11.3 2.6-17.2zm-1.3 18.8c.3.4.7.8 1 1.3 3.2-3.9 5.3-8.8 5.7-13.8v-.1c-.6-.9-1.1-1.8-1.8-2.6-.7 5.5-2.1 10.4-4.9 15.2zm6.7-12.5c-.2 2.8-.3 5.5-1.1 8.2-.7 2.2-1.8 5.2-3.5 7.2.3.5.7 1.1 1 1.6 1.8-1.5 3-4.2 3.9-6.1 1-2.2 1.6-4.7 1.8-7.2-.7-1.3-1.4-2.5-2.1-3.7zm2.1 4.9c-1 4.2-1.7 10.1-4.8 13.7.3.5.5 1.1.8 1.6 1.7-1.5 2.8-3.8 3.6-5.7 1.1-2.5 1.8-5.1 1.7-7.8-.3-.7-.6-1.5-1-2.2-.1 0-.3.2-.3.4zm-.3 30.3c3-6.1 4.2-13.3 4.5-20.1-.6-2.2-1.3-4.5-2.2-6.9-.7 5.8-1.4 11.2-4.4 16.3.2.7.4 1.5.6 2.2 1.3-1.7 2.3-3.5 3.2-5.4-.7 2.9-1.6 5.7-2.5 8.6.4 1.9.6 3.7.8 5.3zm2.5 8c1.4-8 3.6-9.8 3.6-9.8s.4-2.7.1-6.9h-.1c0-.2.1-.5.1-.8-.1-1.9-.4-4.1-.8-6.5-.9 3.8-1.5 7.7-2.7 11.5-.7 2.3-1.6 4.4-2.5 6.6.2 1.8.3 3.3.4 4.5.3-.5.6-.9.8-1.4-.2.7-.5 1.5-.7 2.2 0 .1 0 .2.1.4.1.7 1.1.9 1.5.5 0-.1.1-.1.1-.2.1 0 .1-.1.1-.1zM89.7 26.1c.2-2.9 1.3-5.4 3.2-7.4l-1.5.3c-1.7 2.1-2.6 5-2.7 7.7-.1 1.5.1 3.9.8 6 .4.3.9.5 1.4.7-1.1-2.3-1.3-5.4-1.2-7.3zm24.2 11.5c3.3-3.5 6.6-10.4 5.6-15.5-.4-.2-.8-.5-1.2-.7 1.8 4.9-1.9 11.8-5.1 15.9.3.2.5.3.7.3zm11.9-9.9c.8 2 .7 4.1-1.1 6.2-2.2 2.4-5.2 4-8.4 4.4.8.2 1.6.3 2.3.5 3.5-.7 7.1-3.5 8.3-6.5.2-.6.4-1.3.4-1.9-.3-1-.9-1.9-1.5-2.7zm-28.1-9.6c-.3 0-.6 0-1 .1-1.6 5.4-.8 12.2 1.7 17 .3 0 .5.1.8.1-2.3-5.1-3-11.6-1.5-17.2zm11.9 18.5c3.4-5.1 4.8-11.8 2.4-17.4l-1.2-.3c2.4 5.9 1.2 11.7-1.9 17.5.2.1.5.1.7.2zm-4.7-.8h.2c.4-4.9.7-12.6-1.7-17.8h-1.2c2.6 5.1 2.2 12.4 2.2 17.8h.5z" fill="#1b141c" stroke-width="none" opacity="1" stroke="none"></path><path id="SvgjsPath4000" d="M119.9 43.2c0-.2-.5-.2-.4.1.5 4.1.1 7.9-.5 12 0 .3.4.4.5.1 1.2-3.9 1-8.2.4-12.2zm-1 .8c0-.2-.3-.2-.3 0-.2 3.8-.6 7.5-.9 11.2 0 .3.4.3.4.1.9-3.7 1.1-7.7.8-11.3zm-1.5 0c0-.2-.4-.3-.4 0 0 3.3-.4 6.5-.7 9.8 0 .3.4.3.5.1.8-3.2.8-6.7.6-9.9zm-2 .3c0-.2-.3-.2-.3 0 .1 2.8-.2 5.5-.2 8.3 0 .3.4.4.5.1.4-2.8.3-5.7 0-8.4zm-2-.9c0-.1-.2-.1-.2 0 .3 2.3.3 4.5.3 6.8 0 .2.2.2.2 0 .2-2.2 0-4.5-.3-6.8zm-3.2-1.5c0-.4-.7-.4-.7 0 0 4.6-.5 9.2-.6 13.7 0 .3.5.4.6.1 1.1-4.5 1.1-9.2.7-13.8zm-2.1.2c0-.2-.4-.2-.4 0 0 4.1-.3 8.1-.3 12.2 0 .2.4.3.4.1.6-4.1.5-8.2.3-12.3zm-2.1.8c0-.2-.4-.2-.4 0-.1 3.7-.4 7.3-.2 11 0 .3.4.3.4 0 .4-3.6.2-7.3.2-11zm-4.5-.8c0-.3-.4-.3-.4 0-.3 4-.4 8.2.1 12.2 0 .4.6.4.6 0 .1-4.1-.2-8.2-.3-12.2zm-1.8 1c0-.3-.4-.3-.4 0-.1 3.5-.4 7.2.1 10.8 0 .3.5.2.5-.1.1-3.6-.3-7.1-.2-10.7zm-2 .2c0-.4-.5-.3-.6 0-.4 3.2-.6 6.6 0 9.7.1.3.6.2.6-.1 0-3.2-.2-6.4 0-9.6zm-4.2.3c-.5 3.7-.8 7.5-.3 11.2 0 .3.5.3.5 0 0-3.7-.1-7.5.2-11.2 0-.2-.4-.3-.4 0zm-6.2-.7c-.4 3.8-.7 7.7-.2 11.5 0 .2.4.3.4 0 .1-3.8.1-7.7.2-11.5 0-.3-.4-.2-.4 0zm-3.3 1c-.7 3.7-1.1 7.7-.8 11.4 0 .4.6.4.6 0 .2-3.8.3-7.6.6-11.4 0-.2-.4-.2-.4 0zm-1.7 2c-.8 3.3-1.3 6.9-.9 10.2 0 .3.4.3.5 0 .2-3.4.4-6.7.8-10.1 0-.2-.3-.3-.4-.1zm-4.5-.2c.1-.3-.3-.4-.4-.1-1.5 4.1-2 8.4-1.2 12.7.1.2.4.2.4-.1-.1-4.3.2-8.4 1.2-12.5zm44.1 1.5c0-.4-.6-.4-.6 0-.1 3.8-.6 7.6-.8 11.4 0 .3.5.4.5.1 1-3.8 1.1-7.8.9-11.5zm3.9.2c0-.2-.4-.2-.4.1.2 4.1-.1 7.9-.8 12-.1.3.4.4.5.1 1.2-3.9 1.4-8.1.7-12.2zm1.1 4.3c0-.2-.3-.2-.3 0-.1 3.6-.7 7.1-1.4 10.6 0 .2.3.3.3.1 1.2-3.4 1.6-7 1.4-10.7zm4.5.2c0-.3-.4-.3-.4 0-.4 4.1-1.3 7.8-2.4 11.8-.1.3.3.4.4.2 2-3.5 2.7-8 2.4-12zm2.2 7.4c-.5 2.7-1.3 5.3-2.3 7.8-.1.2.2.3.4.2 1.4-2.4 2.1-5.1 2.5-7.9 0-.4-.6-.4-.6-.1zm.7 6.3c-.3.6-.6 1.2-.8 1.9 0 .1.2.2.2.1l.9-1.8c.2-.3-.2-.5-.3-.2zm2.9 0c-.7 3.4-1.7 6.5-2.6 9.8-.1.3.3.4.4.2 1.7-2.9 2.5-6.6 2.6-10 .1-.2-.3-.3-.4 0zm1.1 4.2c-1.1 2.8-2.4 5.6-3.2 8.5-.1.3.4.6.6.2 1.3-2.7 2.2-5.7 3.2-8.6.1-.3-.5-.5-.6-.1zm-.1 7.3c-.3.9-.8 1.8-.9 2.8 0 .2.3.4.4.2.5-.8.8-1.8 1.2-2.7.2-.6-.5-.7-.7-.3zm-14.4-50.3c-.8 2.1-1.7 4.1-3 5.9-1.3 1.8-3.1 3.1-4.6 4.8-.2.2 0 .4.3.3 4-1.7 7-6.8 7.8-10.9.1-.3-.4-.5-.5-.1zm-1.9.6c-1.3 3.1-3.1 5.6-4.9 8.4-.2.3.2.6.5.4 2.3-2.3 3.9-5.5 4.8-8.6-.1-.2-.3-.4-.4-.2zm-6.5-4.3c-.2 3.6-1.1 6.8-2.2 10.2-.1.3.4.5.5.2 1.8-3.1 2.4-6.9 2.3-10.5.1-.3-.5-.3-.6.1zm-1.9 1.9c-.1 2.5-.8 4.6-1.6 6.9-.1.3.3.5.5.2 1.2-2.1 1.6-4.7 1.6-7.1 0-.4-.5-.4-.5 0zm-4.2-3.1c-.2-.1-.4.2-.2.4.8.8.2 4.2.1 5.2-.2 1.8-.6 3.7-.9 5.5-.1.3.3.4.5.1.9-2.5 1.3-5 1.4-7.6 0-1 .4-3.2-.9-3.6zm-2.1 1.8c-.1-.3-.4-.1-.4.1.5 3.7 0 7.1-.7 10.7-.1.3.4.4.5.1 1.3-3.4 1.3-7.2.6-10.9zm-4.3-1.5c0-.3-.5-.4-.5-.1-.6 4-.8 8.2.2 12.2.1.2.4.2.4-.1-.2-4-.5-7.9-.1-12zm-2.1-.6c0-.3-.4-.2-.4 0-.4 3.6-.5 7.6.5 11.1.1.2.4.2.4-.1-.1-3.7-.7-7.3-.5-11zm-2.1.6c0-.3-.4-.3-.5 0-.4 3.5-.4 7.1.7 10.6.1.3.5.2.5-.1-.6-3.5-1-6.9-.7-10.5zm-4.3.8c.1-.3-.4-.5-.5-.1-.8 3.1-.8 6.6.3 9.6.1.3.6.2.5-.1-.5-3.3-.8-6.2-.3-9.4zm-2.5.4c0-.2-.3-.2-.4 0-.4 3.4-.1 6.6 1.3 9.8.1.2.4 0 .3-.1-.9-3.2-1.3-6.4-1.2-9.7zm-5-.1c-1.6 3-2 6.6-.4 9.8.1.3.6.1.5-.2-.9-3.1-1.1-6.2.4-9.3.2-.4-.3-.7-.5-.3zm-2.2 1.1c0-.3-.4-.3-.4 0-.3 3.2-.1 6.5 1.2 9.5.1.3.5.1.4-.2-.8-3.1-1.4-6.1-1.2-9.3z" fill="#3a353a" stroke-width="none" opacity="1" stroke="none"></path></g><g id="svga-group-glasses-single-move" transform="matrix(1,0,0,1,0,0)"><g id="svga-group-glasses-single" transform="matrix(1,0,0,1,0,0)"></g></g></g></g></g><rect id="svga-credit-rect" width="200" height="15" x="0" y="185" fill="#ecf0f1" opacity="0.5" style="display: none;"></rect><text id="svga-credit-text" font-family="Avenir Next, Roboto, Helvetica, Arial, sans-serif" font-size="10px" text-anchor="start" font-weight="400" size="10px" anchor="start" weight="400" fill="#333333" x="33.402061462402344" y="182.71133995056152" style="display: none;"><tspan id="SvgjsTspan2896" dy="13" x="33.402061462402344">Created on AvatarMaker.com</tspan></text></g></svg>