<svg xmlns="http://www.w3.org/2000/svg" version="1.1" width="600px" height="600px" viewBox="0 0 200 200" style="overflow:hidden!important;"><g id="svga-group-wrapper"><g id="svga-group-backs-single"></g><g id="svga-group-humanwrap-move" transform="matrix(1,0,0,1,0,0)"><g id="svga-group-humanwrap"><g id="svga-group-hair-back-move" transform="matrix(1,0,0,1,0,0)"><g id="svga-group-hair-back"><path id="SvgjsPath7367" d="M54.6 66.5 43 148.8l30.4 34.8h63.5l23.7-33.5-20.2-86.3z" fill="#2e1707" stroke-width="none" opacity="1" stroke="none"></path></g></g><g id="svga-group-humanbody-back"><path id="SvgjsPath3439" d="m168.2 200-4.6-14.2-34.9-13.4-10.8-9.7-1.4-50.5h-33l-1.4 50.5-10.8 9.7-34.9 13.4-4.6 14.2-3 20h142.4z" fill="#875732" stroke-width="none" opacity="1" stroke="none"></path><path id="SvgjsPath3440" d="m83.5 112.2-1.4 50.5-10.8 9.7-34.9 13.4-4.6 14.2-3 20H39v-20l1.7-13.3 32.1-12.9 14.1-9.5 2-52.1z" fill="#683712" stroke-width="none" opacity="1" stroke="none"></path></g><g id="svga-group-chinshadow-single"><path id="SvgjsPath3868" d="m117.5 151.4-1.1-39.3H83.5l-1.2 44.3c3.4 1.7 11 5.4 14.9 5.4 5.2 0 16.6-6.3 16.6-6.3 1.3-1.2 2.5-2.6 3.7-4.1z" fill="#592a06" stroke-width="none" opacity="1" stroke="none"></path></g><g id="svga-group-humanbody-front"></g><g id="svga-group-clothes-single"><path id="SvgjsPath7540" d="m168.5 186.5-3.5-.9-4.9-2.9-22.4-8.4-37.6 12.2-37.8-12.3-22.4 8.5-4.9 2.9-3.5.9-4.4 13.4V220h145.8v-20.1z" fill="#db6cd5" stroke-width="none" opacity="1" stroke="none"></path><path id="SvgjsPath7541" d="m100.1 186.5-37.8-12.3-22.3 8.4-4.9 2.9-3.5.9-4.4 13.4V220h8.4l-1.9-17.8 3.6-9.9 1.2-.7 5.1 9.2L46 220h1.5l-2.8-20-6-8.6 5.4-3.3s7.2-1.8 12.7-3.2l.7 1.8 4 1.6L75.8 200l1.6-1.6 13.3 7.3 10.9 2.4.3 12h2.8l-.7-11.3 9 3.2 3.3-4.5 5.7-.6 8.3-8.3 5.1-.6 4-6.3 4.9-3 3.2-1.6.8-6.3 1.2-2-11.9-4.5-37.5 12.2zm63.7 2.2-8.9 11.7-1.1 19.6h2.6l-.2-19.2 7.6-12.1z" fill="#cc50c5" stroke-width="none" opacity="1" stroke="none"></path><path id="SvgjsPath7542" d="m111.3 209.9-7.4-5.2.2 2.3-11-5.4.5 2.1-9-4.9.7 2-7.8-4.7-2 .3-7.7-6.5.3 2-4.6-3.9-1.3-3.8-.7 1-2.1-3.1-.8-2.1-1 1.1-3.6-5.6 1.3-12.3 3.9-6.2h-1.8l7-5.6 8-4.1-1.3-.8 7.7-.8 3.7.1-.2 5.2 2.4 10.2 4.5 4.5-1.1.1 3.6 2.5 4.5 3.3s-1.7 0-1.6-.1 3.6 3.6 3.6 3.6l3.8 2.8-1 .2 2.5 2.4 1.7 1.7 5.4-6.6h-1.3l4.3-5.2-1.5-.2 3.9-7.1-1.2.1 1.9-6.6.5-11 9.5 1.9-1 .6 10.2 2.1 7.4 5.5h-2.4l5.6 6.2 1 4.3-1.5-1.1 2.2 5.9-1 5.6-1.4-3.3s.1 6.3-.1 6.7c-.2.4-3.1 5.6-3.1 5.6l-.9-3.4-6.8 11.5-4 2.5.7-2.3-2.2 2.3-5.3 6.7-.1-2.3-5.7 3.3-3.2.9-.2-1.7-2.3 3.6.8 3.3-.6 2.1-1.5-2.2z" fill="#faadf5" stroke-width="none" opacity="1" stroke="none"></path><path id="SvgjsPath7543" d="m111.3 209.9-7.4-5.2.2 2.3-11-5.4.5 2.1-9-4.9.7 2-7.8-4.7-2 .3-7.7-6.5.3 2-4.6-3.9-1.3-3.8-.7 1-2.1-3.1-.8-2.1-1 1.1-3.6-5.6 1.3-12.3 3.9-6.2h-1.8l7-5.6 8-4.1-1.3-.8 7.7-.8 3.7.1-.2 5.2 2.4 10.2 4.5 4.5-1.1.1 3.6 2.5 4.5 3.3s-1.7 0-1.6-.1 3.6 3.6 3.6 3.6l3.8 2.8-1 .2 2.5 2.4 1.7 1.7 5.4-6.6h-1.3l4.3-5.2-1.5-.2 3.9-7.1-1.2.1 1.9-6.6.5-11 9.5 1.9-1 .6 10.2 2.1 7.4 5.5h-2.4l5.6 6.2 1 4.3-1.5-1.1 2.2 5.9-1 5.6-1.4-3.3s.1 6.3-.1 6.7c-.2.4-3.1 5.6-3.1 5.6l-.9-3.4-6.8 11.5-4 2.5.7-2.3-2.2 2.3-5.3 6.7-.1-2.3-5.7 3.3-3.2.9-.2-1.7-2.3 3.6.8 3.3-.6 2.1-1.5-2.2z" fill="#ffffff" stroke-width="none" opacity="0.85"></path><path id="SvgjsPath7544" d="m102.2 180.6 3.2 1.5 6.6 5.7 1.9 4-3.1-3.6 3.5 6.4.9 4.8s-1-1.9-1.2-1.6.9 3.6.9 3.6l.3 1.5-2.1-2.6-.8-5.3 1.4.5-5.4-8.6.6-.5-4-3.9-2.7-1.9zm-35.3 1.7 2.1 4.5 6.3 5.7-1.2-3.1 4.8 4.6 6.3 1-5.5-1.7-6.6-6.3-.4 1.8-3.2-2.8-2.6-3.7zm-3.9-16-.1 6.7 4.9 6.1-4-6.4-.8-6.4zm7.7 11.6 3.5 6.1 7.6 2.4-7-3.6-4.1-4.9zm15.9 13.7 4.2 4.6 10.2 4.6-9.8-5.3-4.6-3.9zm-15.1-37.9-4.4 4.2-1.4 7.5 3.6 7.5-2.4-8 1.2-6.8 3.4-4.4zm-.5 12.5 2.1 6.6.8 5.5.3-6.3-3.2-5.8zm5.3 10.1 3.2 5 3.2 1.7-3.1-3.3-3.3-3.4zm-14.1-.8c-.1.4.3 5.1.3 5.1L66 186l-2.6-5.9-1.2-4.6zm36.1 20.6 9.5 2.7s3.3 4.5 3 4.4-3.2-2.7-3.2-2.7l2.4 4.5 1 3.4-1.9-2.7-3.5-5.7-5.8-2.6-3.9-1-2.3-2.8 4.7 2.5zm-7.9-19.2 6 1.8 3 3-3.6-2.3-5.4-2.5zm34.8-26.3 3.5 8.8-1.5-1.2.4 7.1-3.2 4.9 2.1-5.5-.9-8.4.9.1-1.3-5.8zm-4.1 22.8-3.5 5.8-3.7 1.2-3.5 3 4.4-2.4 4.1-.9 2.2-6.7zm7.5-5.4-2.6 4-1.8 5 2.6-4.9 1.8-4.1zM114 196.6l1.6-5.4s4-3.2 4.1-3.6 3.1-4.9 3.1-4.9l-1.7 6.7-2.4 5.1 1-4.6-3.2 1.8-2.5 4.9zm11.6-47.1s9.8 1.7 10.2 1.9 5.4 4.3 5.4 4.3l-6.5-3.4-9.1-2.8zm12.7 9.4s5.7 7.5 5.8 7.9-.8 6.8-.8 6.8l-.8-7.2-4.2-7.5zm2.8 14.5s-.5 8.2-.8 8.6c-.3.4-4.1 6.8-4.1 6.8l3.5-7.2 1.4-8.2zm-6.4 12.9-1.6 3.7-3.7 3.2 2.7-3.6 2.6-3.3zm-63.5-39.9 1.3.8-8 4.1-7 5.6h1.8l-3.9 6.2-.7 6.5 1.9-5-.6 6.7 1.3 4.6.5-3.1 3 4-1.5-4.4.8-10.3 4.9-5.7-2.8-.8 11.5-6.1.1-2.6s1-.5 2-1.1l-4.6.6zm17 19.2 1.1-.1-4.5-4.5-1.8-10-.4-5.3h-.3l-5.6 2.6-.9 8.1 1.9-3 1.7 7.2L87 167l-1.7-2.7 5.7 4.5 5.3 2.5-4.5-3.3-3.6-2.4zm23.4 11.7.2-2.8 2.5-1 2.4-5.8.5 3.2 2.8-9.8-2.1-.1.9-6.3.9 3.4 1.3-7.6-3.3-4.7-.3-.1-.5 11-1.9 6.6 1.2-.1-3.9 7 1.5.2-4.3 5.2h1.3l-5.4 6.6 1.4-.1 4.8-4.8z" fill="#cc50c5" stroke-width="none" opacity="0.25" stroke="none"></path><path id="SvgjsPath7545" d="m76.6 186.7 3.3 4.4 6.4 1.9-6-3.1-3.7-3.2zm2.1-22.6 7 3.6 3.4 3.6 6.7 2.2-4.8-.4s3.8 2.9 4.2 2.9 3.6.4 3.6.4l2.1 3.7-2.7-3h-4l-6.4-4.9-3.4-4 .7 3.7 2.5 2.9-3.3-2.3-1.5-5.2-4.1-3.2zm9.2 14.9 3.1 4.2s6.7 1.4 6.3 1.2-5.7-2.3-5.7-2.3l-3.7-3.1zm12.6 5.3 4.4 2.1 2.2 4.5-2.9-3.8-3.7-2.8zm-5.5 2.2 4.4.5 3 2.5-3.5-1.6-3.9-1.4zm16.7 12.7-2-2.9-1.5-3.6-3.3-1.4 2.6 1.9 1.5 3.3 2.7 2.7zM80 169.9c-.3-.4-4.6-5.5-4.6-5.5l1-7.4.6 7.1 3 5.8zm-6.5-11c0-.6.4-7.9.4-7.9l2.1-2.5-1.2 4.6-1.3 5.8zm11.7 26.8 2.7 2.7 4.4.6-4.1-1.4-3-1.9zm-15.8-24.3-.9 4.1 2.7 7.2 1.1 5.7-.1-6.6-2.9-6.7.1-3.7zm12.5 13.5 2.6 4.6 3.8 2.9-3.4-3.5-3-4zm48.5-21.2 6.7 5.1 2.6 5.9-2.5-2.2 2.2 5.7-2.3 6.8.3-6-2.9 6.6 1.8-9 1.5.3-2.9-6.1 1.2-1.5-5.7-5.6zm6.7 25-1.8 5.5-4.1 3.4 2.9-4 3-4.9zm7.5-3.8-.4 4.5s-1.5 4.5-1.4 4.1c.1-.4 2.5-4.2 2.5-4.2l-.7-4.4zm-17.3-23.8s6.4 1.6 7 1.8 3.8 2.6 3.8 2.6l-5.1-2.1-5.7-2.3zm-7.3-3.8 5 4.4.4 4.6-1.6-4.2 1.2 11.3-3.5 5.5 2.2-7-1-7.9-2.3 4.5 1.5-6-.5-2.9-1.4-2.3zm2.8 27.9-2.3 7.9-4.2 2.6 3.4-3.8 3.1-6.7zm8.8-9.7 1.2 6.7-1.8 6 .4-5.7.2-7zm.6 14.6-2.5 4.8-4.4 1.9 3.4-2.9 3.5-3.8zm-1.8-6.4-.9 5.1-2.2 3 1.4-3.8 1.7-4.3zm-3.5 19.9-2.2 3.5-5.1 3.4-2.6 2.5 1.6-3.6 5.5-2.9 2.8-2.9zm1.2-5.6-3 4-1.5 4.4.1-4.1 4.4-4.3z" fill="#ffffff" stroke-width="none" opacity="1"></path></g><g id="svga-group-head" transform="matrix(1,0,0,1,0,0)"><g id="svga-group-ears-left-move" transform="matrix(1,0,0,1,0,0)"><g id="svga-group-ears-left"><path id="SvgjsPath3389" d="M64.1 91.8s-6-.7-10.6-3.7c0 0-3.5 9.4-4 14.4 0 0 6.7 13 10 18.5 0 0 5.2-.7 6.3-1.4l1.4-8.4-3.1-19.4z" fill="#875732" stroke-width="none" opacity="1" stroke="none"></path><path id="SvgjsPath3390" d="M54.3 90c-.2-.4-.8-1.9-.8-1.9 5.2.4 10.7 1.4 10.7 1.4l3 21.7-1.4 8.4c-1.1.7-6.3 1.4-6.3 1.4-.6-1-1.3-2.4-2.1-3.7l2.6 1 3-1.6s.7-11.2.5-11.5c-.1-.3-9-14.8-9.2-15.2z" fill="#784620" stroke-width="none" opacity="1" stroke="none"></path><path id="SvgjsPath3391" d="m51.3 100.9 2.8-5.5 5.2 6.8 2.2 9.5-1.4 1.9-4.3-7.6 1-4.7-2.6-4z" fill="#683712" stroke-width="none" opacity="1" stroke="none"></path></g></g><g id="svga-group-ears-right-move" transform="matrix(1,0,0,1,0,0)"><g id="svga-group-ears-right"><path id="SvgjsPath3392" d="M135.9 91.8s6-.7 10.6-3.7c0 0 3.5 9.4 4 14.4 0 0-6.7 13-10 18.5 0 0-5.2-.7-6.3-1.4l-1.4-8.4 3.1-19.4z" fill="#875732" stroke-width="none" opacity="1" stroke="none"></path><path id="SvgjsPath3393" d="M145.7 90c.2-.4.8-1.9.8-1.9-5.2.4-10.7 1.4-10.7 1.4l-3 21.73 1.4 8.37c1.1.7 6.3 1.4 6.3 1.4.6-1 1.3-2.4 2.1-3.7l-2.6 1-3-1.6s-.7-11.2-.5-11.5c.1-.3 9-14.8 9.2-15.2z" fill="#784620" stroke-width="none" opacity="1" stroke="none"></path><path id="SvgjsPath3394" d="m148.7 100.9-2.8-5.5-5.2 6.8-2.2 9.5 1.4 1.9 4.3-7.6-1-4.7 2.6-4z" fill="#683712" stroke-width="none" opacity="1" stroke="none"></path></g></g><g id="svga-group-faceshape-wrap"><g id="svga-group-faceshape-single"><path id="SvgjsPath3858" d="M136.8 61c-6.7-11.2-19-18.9-19-18.9-7-1.5-17.8-2.2-17.8-2.2s-10.8.8-17.8 2.2c0 0-12.4 7.6-19 18.9 0 0-5 14-5.2 23.9 0 0 2.6 23.7 5.8 34 0 0 9.9 19.8 19.6 29.7 0 0 11.5 6.3 16.6 6.3s16.6-6.3 16.6-6.3c9.7-9.9 19.6-29.7 19.6-29.7 3.1-10.3 5.8-34 5.8-34-.3-9.8-5.2-23.9-5.2-23.9z" fill="#875732" stroke-width="none" opacity="1" stroke="none"></path><path id="SvgjsPath3859" d="m85.8 45.6 28.8-.8L136.8 61c-6.7-11.2-19-18.9-19-18.9-7-1.5-17.8-2.2-17.8-2.2s-10.8.8-17.8 2.2c0 0-12.4 7.6-19 18.9 0 0-5 14-5.2 23.9 0 0 2.6 23.7 5.8 34 0 0 9.9 19.8 19.6 29.7 0 0 11.5 6.3 16.6 6.3-4.1-.5-15.3-8.6-15.3-8.6-3.3-4.7-15.2-28-15.2-28-2.5-6.4-6.6-34.9-6.6-34.9.3-3.3 4.4-20.5 4.4-21.3s18.5-16.5 18.5-16.5z" fill="#683712" stroke-width="none" opacity="1" stroke="none"></path></g></g><g id="svga-group-mouth-single-move" transform="matrix(1,0,0,1,0,0)"><g id="svga-group-mouth-single"><path id="SvgjsPath4631" d="m87.06 129.72 8.35 5.42 10.61.06 7.84-5.34-12.92-.14-8.99-.19z" fill="#d56572" stroke-width="none" opacity="1" transform="translate(0 3)" stroke="none"></path><path id="SvgjsPath4632" d="m85.79 129.82 10.42.48 4.25 2.03 3.67-2.22 11.01-.15-11.22-2.66-3.72 1.74-4.26-1.59z" fill="#c64a58" stroke-width="none" opacity="1" transform="translate(0 3)" stroke="none"></path><path id="SvgjsPath4633" d="m111.64 130.62-5.86 4.08-4.6.03 4.43-.38z" fill="#f4a4ad" stroke-width="none" opacity="1" transform="translate(0 3)" stroke="none"></path><path id="SvgjsPath4634" d="M100.51 129.4s3.35-1.68 3.47-1.68 5.44 1.41 5.44 1.41l-5.4-1.03-3.51 1.3z" fill="#dd7480" stroke-width="none" opacity="1" transform="translate(0 3)" stroke="none"></path></g></g><g id="svga-group-eyes-left-move" transform="matrix(1,0,0,1,0,0)"><g id="svga-group-eyes-left"><g id="svga-group-eyesback-left"><path id="SvgjsPath5312" d="m91.9 100.1-5.1-4.5-8.8.1-6.8 3.8s5.7 4.2 7 4.8l8.6-.4 5.1-3.8z" fill="#ffffff" stroke-width="none" opacity="1"></path></g><g id="svga-group-eyesiriswrapper-left" transform="matrix(1,0,0,1,0,0)"><g id="svga-group-eyesiriscontrol-left" transform="matrix(1,0,0,1,0,0)"><g id="svga-group-eyesiris-left"><path id="SvgjsPath5636" d="M77.9 102.5 76.8 99l1.7-3.3 3.5-1.1 3.2 1.7 1.2 3.5-1.7 3.2-3.5 1.2z" fill="#390c08" stroke-width="none" opacity="1" stroke="none"></path><path id="SvgjsPath5637" d="m81.9 94.9 3.1 1.6 1.1 3.3-1.6 3.1-3.3 1.1-3.1-1.6-1-3.4 1.6-3.1 3.2-1m.1-.6-3.7 1.2-1.8 3.5 1.2 3.7 3.4 1.8 3.7-1.2 1.8-3.4-1.2-3.7-3.4-1.9z" fill="#1a0200" stroke-width="none" opacity="1" stroke="none"></path><path id="SvgjsPath5638" d="M82.6 96.8h-2.1L79 98.4l.1 2.1 1.5 1.4h2.1l1.5-1.5-.1-2.1z" fill="#000000" stroke-width="none" opacity="1"></path><path id="SvgjsPath5639" d="m78.8 96.4.8 1-1.1-.7.3-.3zm1.8-.8v1.1l-.5-1 .5-.1zm1.6-.3-.3 1.2-.2-1.2h.5zm1.5.8-.7.8.3-1 .4.2zm1.4 1-1.2.7.9-1.1.3.4zm.5 1.7h-1.2l1.1-.5.1.5zm.1 1.3-1.1-.4 1.2-.1-.1.5zm-.8 1.3-.7-.7 1 .3-.3.4zm-.7 1.3-.7-1.1 1 .8-.3.3zm-1.7.5-.1-1.2.6 1.1-.5.1zm-1.6.2.4-1.1.1 1.2-.5-.1zm-1.8-1 .8-.8-.4 1.1-.4-.3zm-1.1-1.5.9-.3-.7.7-.2-.4zm-.4-1.5 1.2.3-1.2.2v-.5zm.4-1.7.7.6-.9-.1.2-.5z" fill="#1a0200" stroke-width="none" opacity="1" stroke="none"></path><path id="SvgjsPath5640" d="m78.8 97.1 2 1.8.6-.4-1.2-2.4-1.4 1zm3.7 4.2.5.8.8-.3-.4-.9-.9.4z" fill="#ffffff" stroke-width="none" opacity="1"></path></g></g></g><g id="svga-group-eyesfront-left"><path id="SvgjsPath5320" d="M67.97 94.46v11.11l7.69 7.86h10.87l7.69-7.86V94.46l-7.69-7.86H75.66l-7.69 7.86zm3.25 4.89 6.84-3.78 8.83-.05 5.05 4.54-5.05 3.78-8.62.36c-1.34-.66-7.05-4.85-7.05-4.85z" fill="#875732" stroke-width="none" opacity="1"></path><path id="SvgjsPath5321" d="m91.94 100.07-5.06-4.54-8.82.05-6.84 3.77-1.53.02-1.72-.76 3.63-.89 6.18-3.06 9.49.07 4.08 3.94z" fill="#683712" stroke-width="none" opacity="1"></path><path id="SvgjsPath5322" d="m72.17 100.51-1.61-1.16-1.86-1.34 2.64.92 1.57-.84a24 24 0 0 0-.61-.22l-1.15-1.38 1.95.99.63.16 1.62-.87-.64-.36-.73-1.15 1.38.99.6.19 1.37-.74-.55-.33-.46-.77.84.65.6.21.09-.05 9.11-.19 4.98 4.83-5.24-4.2h-8.66l-6.38 3.66 6.6 4.67 8.52-.52 3.96-2.69-3.77 3.08-8.76.39-.54-.35-.81.76.21-.42.39-.47-1-.65-.45.32-.71.54.35-.52.6-.49-.99-.64-.85.48-.89.64.66-.79.75-.53-1.12-.73-1.01.47-.85.5.58-.71.89-.5-.86-.56-.04-.03-.75.2-1.33.6.89-.71.84-.34z" fill="#000000" stroke-width="none" opacity="1"></path></g></g></g><g id="svga-group-eyes-right-move" transform="matrix(1,0,0,1,0,0)"><g id="svga-group-eyes-right"><g id="svga-group-eyesback-right"><path id="SvgjsPath5313" d="m108.1 100.1 5.1-4.5 8.8.1 6.8 3.8s-5.7 4.2-7 4.8l-8.6-.4-5.1-3.8z" fill="#ffffff" stroke-width="none" opacity="1"></path></g><g id="svga-group-eyesiriswrapper-right" transform="matrix(1,0,0,1,0,0)"><g id="svga-group-eyesiriscontrol-right" transform="matrix(1,0,0,1,0,0)"><g id="svga-group-eyesiris-right"><path id="SvgjsPath5641" d="m114.8 102.5-1.2-3.5 1.7-3.3 3.5-1.1 3.3 1.7 1.1 3.5-1.7 3.2-3.5 1.2z" fill="#390c08" stroke-width="none" opacity="1" stroke="none"></path><path id="SvgjsPath5642" d="m118.8 94.9 3.1 1.6 1.1 3.3-1.6 3.1-3.3 1.1-3.1-1.6-1.1-3.3 1.6-3.1 3.3-1.1m0-.6-3.7 1.2-1.8 3.4 1.2 3.7 3.4 1.8 3.7-1.2 1.8-3.4-1.2-3.7-3.4-1.8z" fill="#1a0200" stroke-width="none" opacity="1" stroke="none"></path><path id="SvgjsPath5643" d="M119.4 96.8h-2.1l-1.5 1.6.1 2.1 1.5 1.4h2.1l1.5-1.5-.1-2.1z" fill="#000000" stroke-width="none" opacity="1"></path><path id="SvgjsPath5644" d="m115.6 96.4.8 1-1.1-.7.3-.3zm1.8-.8v1.1l-.5-1 .5-.1zm1.6-.3-.3 1.2-.2-1.2h.5zm1.6.8-.7.8.3-1 .4.2zm1.3 1-1.2.7.9-1.1.3.4zm.5 1.7h-1.2l1.1-.5.1.5zm.1 1.3-1.1-.4 1.2-.1-.1.5zm-.8 1.3-.7-.7 1 .3-.3.4zm-.7 1.3-.7-1.1 1 .8-.3.3zm-1.6.5-.1-1.2.6 1.1-.5.1zm-1.6.2.4-1.1.1 1.2-.5-.1zm-1.9-1 .8-.8-.3 1.1-.5-.3zm-1.1-1.5.9-.3-.7.7-.2-.4zm-.4-1.5 1.2.3-1.2.2v-.5zm.4-1.7.7.6-.9-.1.2-.5z" fill="#1a0200" stroke-width="none" opacity="1" stroke="none"></path><path id="SvgjsPath5645" d="m115.7 97.1 2 1.8.5-.4-1.1-2.4-1.4 1zm3.6 4.2.5.8.8-.3-.4-.9-.9.4z" fill="#ffffff" stroke-width="none" opacity="1"></path></g></g></g><g id="svga-group-eyesfront-right"><path id="SvgjsPath5323" d="M124.34 86.6h-10.87l-7.69 7.86v11.11l7.69 7.86h10.87l7.69-7.86V94.46l-7.69-7.86zm-2.6 17.6-8.62-.36-5.05-3.78 5.05-4.54 8.83.05 6.84 3.78c-.01 0-5.72 4.19-7.05 4.85z" fill="#875732" stroke-width="none" opacity="1"></path><path id="SvgjsPath5326" d="m108.06 100.07 5.06-4.54 8.82.05 6.84 3.77 1.53.02 1.72-.76-3.63-.89-6.18-3.06-9.49.07-4.08 3.94z" fill="#683712" stroke-width="none" opacity="1"></path><path id="SvgjsPath5327" d="m127.83 100.51 1.61-1.16 1.86-1.34-2.64.92-1.57-.84a24 24 0 0 1 .61-.22l1.15-1.38-1.95.99-.63.16-1.62-.87.64-.36.73-1.15-1.38.99-.6.19-1.37-.74.55-.33.46-.77-.84.65-.6.21-.09-.05-9.11-.19-4.98 4.83 5.24-4.2h8.66l6.38 3.66-6.6 4.67-8.52-.52-3.96-2.69 3.77 3.08 8.76.39.54-.35.81.76-.21-.42-.39-.47 1-.65.45.32.71.54-.35-.52-.6-.49.99-.64.86.46.89.64-.66-.79-.75-.53 1.12-.73 1.01.47.85.5-.58-.71-.89-.5.86-.56.04-.03.75.2 1.33.6-.89-.71-.85-.32z" fill="#000000" stroke-width="none" opacity="1"></path></g></g></g><g id="svga-group-facehighlight-single"></g><g id="svga-group-eyebrows-left-move" transform="matrix(1,0,0,1,0,0)"><g id="svga-group-eyebrows-left-rotate" transform="matrix(1,1.7453292519943295e-9,-1.7453292519943295e-9,1,1.5158184396568686e-7,-1.3953906830010965e-7)"><g id="svga-group-eyebrows-left"><path id="SvgjsPath5897" d="m93.2 89.1-.6 1.9-2.1 1.2-11.6-5.5-7.1-.1-4.9 3.1 4.3-4.7 7.5-1.4 9.1 2.7z" fill="#2a232b" stroke-width="none" opacity="1"></path><path id="SvgjsPath5898" d="m90 87.5.8.4-.4 2.5-.4-2.9zm-5.5-2.2 1.4 2.4-1.9-2.5.5.1zm3.3 1 .3.2c.2 1.3.5 3.4.5 3.4l-1.4-3.7.6.1zm-5.6-1.6.7 1.3-2-1.7 1.3.4zM71 86.3c-.1 0 0 0 0 0zm-1.7.7c.7-.3 1.3-.6 1.6-.7-.3.2-1.4 1-2.5 1.7l.9-1zm6-2.7 1.6 1.6-2.1-1.5.5-.1zm-4.1.7 1.5-.3 2.3.7c0 .1-2.2-.2-3.8-.4z" fill="#3a353a" stroke-width="none" opacity="1"></path></g></g></g><g id="svga-group-eyebrows-right-move" transform="matrix(1,0,0,1,0,0)"><g id="svga-group-eyebrows-right-rotate" transform="matrix(1,1.7453292519943295e-9,-1.7453292519943295e-9,1,1.5158184396568686e-7,-2.0952678880803433e-7)"><g id="svga-group-eyebrows-right"><path id="SvgjsPath5899" d="m106.8 89.1.6 1.9 2.1 1.2 11.6-5.5 7.1-.1 4.9 3.1-4.3-4.7-7.5-1.4-9.1 2.7z" fill="#2a232b" stroke-width="none" opacity="1"></path><path id="SvgjsPath5900" d="m110 87.5-.8.4.4 2.5.4-2.9zm5.5-2.2-1.4 2.4 1.9-2.5-.5.1zm-3.3 1-.3.2c-.2 1.3-.5 3.4-.5 3.4l1.4-3.7-.6.1zm5.6-1.6-.7 1.3 2-1.7-1.3.4zm11.2 1.6c.1 0 0 0 0 0zm1.7.7c-.7-.3-1.4-.6-1.6-.7.3.2 1.4 1 2.5 1.7l-.9-1zm-6-2.7-1.6 1.6 2.1-1.5-.5-.1zm4.1.7-1.5-.3-2.3.7c0 .1 2.2-.2 3.8-.4z" fill="#3a353a" stroke-width="none" opacity="1"></path></g></g></g><g id="svga-group-nose-single-move" transform="matrix(1,0,0,1,0,0)"><g id="svga-group-nose-single"><path id="SvgjsPath4317" d="m103.35 108.14-.8-.31 5.16 8.97-1.6 2.28-1.38-.95.22-1.02-1.09.47-1.6 3.15-2.1.08-2.5-.08-1.6-3.15-1.08-.47.21 1.02-1.38.95-1.59-2.28 5.15-8.97.33-10.76-1.13 11.07-5.22 8.81 2.54 3.31 2.17-1.58 1.24 2.76h5.33l1.23-2.76 2.18 1.58 2.54-3.31z" fill="#683712" stroke-width="none" opacity="1" transform="translate(0 2)" stroke="none"></path><path id="SvgjsPath4318" d="m97.27 117.21 1.3.61 3.06.08 1.53-.69-.58-2.35-.98-3.1-2.03 4.07z" fill="#8f603c" stroke-width="none" opacity="1" transform="translate(0 2)" stroke="none"></path></g></g><g id="svga-group-hair-front"><path id="SvgjsPath7364" d="m80.6 60.6-13.1 5-4.4 13.2 4.1 8.8-2 10.4-8.2 9.2 3.6 10.9 4.9 4.1-.6 8-11.8 10.7 2.5 14 11.8 10.3.4 8.2-6.5 8.2.7 4.7 5.8 3.6-9.3-.8-12.9-6.7-4.6-7.9-10.4-4.3-3.9-9.3 1.8-10-5-14.6 5.7-11.4 1.1-12.9-7.2-10.7 6.8-17.1 10-5.7 2.2-6.4-6.8-10.4L46 47.1l12.5-3.2 9.6 1.7V32.4l12.1-5.7 7.2 3.2 6.4-2.8 3.6-7.2 13.5.7 6.8 4.7 10.7 2.8 6.1 13.6 7.1 5.4 14.7 2.5 8.6 10.3-3.3 8.6 4.3 10.3-2.8 13.3 5.7 10.7 6.8 2.5 3.2 9.9-3.9 11.1 1.7 5 5.4 5.7-5 9.3 1.1 7.9-7.2 10.3 2.5 10.4-7.8 7.8-8.2-2.8-5.8 5.7H142l-5.3 5.7v6.1l-5-7.2-.4-7.5-6.1-5.3 10.4-16.5-5-10 1.4-11 10.4-4.7-.4-5-8.2-2.8-2.1-13.9 5.7-12.9-2.2-17.8-17.1-4-6.1-11 2.2-7.9-10.4-8.6-18.6 2.9z" fill="#361c0b" stroke-width="none" opacity="1" stroke="none"></path><path id="SvgjsPath7365" d="M130.9 79.5 120.6 77l-4.7-10 4.4-12.2-4.7-8.7-18.4-2.5-13.4 8.1-3.7 5.3h-9.4l-11.2 3.7-4.4 14.7 9.4 10.9-.9 10.6L52 107.2s4.4 10.6 4.7 11.5 8.8 3.4 8.8 3.4l-4.8-4-3.7-10.9 8.2-9.2 2-10.5-4.1-8.7 4.3-13.2 13.2-5 4.6-6.4 18.6-2.9 10.3 8.6-2.1 7.8 6.1 11.1 17.1 3.9 2.1 17.8-5.7 12.8 2.1 13.9.6-12.1 7.8-10.9 8.1-17.2-5.6-8.7-13.7 1.2zM75.7 53.3 85 36.5l22.4-10.9 13.1 9.3 3.1 16.8 15.9.6 4.4 6.9-4.1 8.7 4.4 3.1 13.4-3.1 4 6.6V87l2.2-12.8-3.8-8.4-13.1 1.9-2.5-2.8 2.8-9-5.8-8.7-13.8-.3-5-16.2-14.3-8.7-25.4 12.6-7.2 18.7zm-5.9-1.6-19.3 4.4-6.9 8.1 6.2 18.4-1.6 5.3-15 12.8-.9 10.9 5 8.7L25.8 135l6.9 16.8-1.6 9.4 8.4 10.3 6.9.9 4 10.6 10.6 4.7-9-7.5-3.1-12.8-7.5-8.7-3.1-10-5.6-14 12.5-16.2s-3.7-7.2-3.7-8.1.9-10.3.9-10.3L58 89.5l-.3-6.9-6.5-13.7 5-10.9 13.6-6.3zm4.8 1.3-3.4-5.7.1-13.7L80 28l-11.9 4.5v13.2l2.2 3.8 4.3 3.5zM46 47.1l-5.8 15.2 4.6 10.9-4.8 5.3 2.1-6.4-6.8-10.4L46 47.1zm117.1 45-7.9 19.2-7.2 9 4.5 16.4 12.5 11.1-1.6 11.9-13.5 5.3-5.8 12.5 7.6 8.1-2.8-7.6 5.3-9.5 16.8-4 7.1-10.3-1.1-7.9-18.9-10.9-4-13.5 7.1-10.1 1.9-19.7zm-20.4 46.7-8.5 10.6 4.8 14.8-7.7 18.5.4 7.5 2.9-8.8 10.9-15.6-8.8-16.9 6-10.1zm36.1-23.6-8.5 11.9 5 6.9 6.7 3-5.4-5.7-1.8-5 4-11.1z" fill="#2e1707" stroke-width="none" opacity="1" stroke="none"></path><path id="SvgjsPath7366" d="m79.9 54.3 3.3-5.7L97.5 38l18.8 5.3 6.5 11.9-2 11.8 4.5 8.6 20.4-.4 6.1 12.3-4.5 22.9-10.6 6.5-.4 7.8 10.2 5.7 2 9-3.7 9.8 3.7 9.8-.8-9.8 4.5-11-2.4-9.8-9-5.3v-4.9l11-7.4 6.1-24.5-9.8-13.5-21.7.8-2.4-6.1-.3-15.7-5-12.5-22.9-6.1-14.6 13.4-1.3 7.7zm85 47-.8 14.7-4.9 7.3 1.6 12.3 15.9 9-12.7-10.2-2-10.2 5.3-8.2-2.4-14.7zM71.4 54.7 58.7 58l-7.6 10.8L58 89.4l-14 14.7 2.5 13.5 6.1 6.1.8 7.4-10.6 9 5.3 23.3s9.8 5.3 10.2 6.5 1.2 7.8 1.2 7.8l-2 4.1 2.5 4.1-.4-4.1 3.3-6.1-2-9-9.8-6.9-5.3-18.8 11.8-9.4-.8-10.2-8.2-6.1v-11.4l14.7-15.1L55 69.4l6.1-9.8 10.3-4.9zM67.3 49l-9.8-2-11 2.9-6.3 12.4 3 8.4-.4-9.4 6.1-9 9.4-2.5 9-.8zm-29.9 79.7-6.1 7.4 4.1 19.2 8.2 12.3-5.7-13.9-4.1-17.6 3.6-7.4zm90.8-73.5 4.9 12.3 6.9.5-5.3-3.4-6.5-9.4zm30.6 8.5-6.9-11.8-9.8-3.3 8.2 5.3 8.5 9.8z" fill="#3e2210" stroke-width="none" opacity="1" stroke="none"></path></g><g id="svga-group-glasses-single-move" transform="matrix(1,0,0,1,0,0)"><g id="svga-group-glasses-single"></g></g></g></g></g><rect id="svga-credit-rect" width="200" height="15" x="0" y="185" fill="#ecf0f1" opacity="0.5" style="display: none;"></rect><text id="svga-credit-text" font-family="Avenir Next, Roboto, Helvetica, Arial, sans-serif" font-size="10px" text-anchor="start" font-weight="400" size="10px" anchor="start" weight="400" fill="#333333" x="33.402061462402344" y="182.71133995056152" style="display: none;"><tspan id="SvgjsTspan3371" dy="13" x="33.402061462402344">Created on AvatarMaker.com</tspan></text></g><defs id="SvgjsDefs3323"></defs></svg>